<svg xmlns="http://www.w3.org/2000/svg" width="1254" height="836" viewBox="0 0 1254 836">
<g>
<path d="M 562.67 655.93 C550.87,657.25 546.13,657.17 534.00,655.45 C502.48,650.98 473.11,633.63 457.07,609.99 C452.72,603.58 452.54,603.45 445.80,601.80 C416.13,594.51 392.83,568.16 389.42,538.03 C388.73,531.94 388.69,531.86 383.11,528.07 C371.89,520.42 362.86,508.97 356.55,494.38 C344.75,467.09 345.27,435.41 357.95,408.79 L 360.71 402.98 L 357.25 394.37 C345.42,364.91 350.69,330.91 370.99,305.68 C374.34,301.51 378.86,296.70 381.04,294.97 L 385.00 291.83 L 385.00 280.81 C385.00,261.66 390.12,248.59 402.39,236.47 C412.25,226.72 422.38,221.78 437.18,219.50 C440.84,218.94 440.87,218.89 441.48,213.22 C443.18,197.47 448.21,186.75 458.99,175.92 C471.25,163.61 486.43,157.62 504.19,158.09 L 511.96 158.29 L 516.05 152.16 C523.61,140.85 535.99,131.95 549.01,128.49 C555.49,126.76 569.73,126.56 577.20,128.08 C590.45,130.79 606.30,141.61 615.69,154.36 L 620.00 160.22 L 620.00 394.00 C620.00,615.21 619.91,627.89 618.25,629.81 C617.29,630.93 613.80,634.17 610.50,637.02 C599.12,646.85 581.44,653.84 562.67,655.93 ZM 725.00 654.38 C720.88,655.22 712.78,656.12 707.00,656.38 C679.08,657.65 656.72,649.96 639.25,633.11 L 634.00 628.04 L 634.00 160.46 L 636.67 156.48 C640.84,150.27 647.79,142.83 652.87,139.13 C659.00,134.66 670.22,129.49 676.80,128.11 C685.31,126.33 698.88,126.72 706.14,128.96 C718.52,132.79 732.10,143.21 738.47,153.79 L 741.31 158.50 L 752.91 158.61 C769.94,158.77 780.92,162.94 793.09,173.86 C803.63,183.32 811.19,198.16 812.58,212.12 L 813.23 218.73 L 821.16 220.29 C835.24,223.07 848.46,230.69 855.79,240.26 C865.39,252.79 869.00,263.76 869.00,280.35 L 869.00 291.27 L 876.46 298.69 C885.78,307.94 892.83,318.39 896.83,328.86 C905.72,352.14 904.93,376.89 894.53,401.25 C893.88,402.77 894.39,403.00 898.39,403.00 L 903.00 403.00 L 903.00 414.00 L 893.00 414.00 L 893.00 419.00 C893.00,423.33 892.73,424.00 891.00,424.00 C889.17,424.00 889.00,424.67 889.00,432.00 C889.00,439.81 888.94,440.00 886.56,440.00 C883.99,440.00 883.42,441.87 882.75,452.50 C882.50,456.44 882.44,456.51 878.07,457.00 C876.50,457.18 875.51,457.15 874.74,457.56 C873.08,458.44 872.50,461.36 869.45,472.80 C868.10,477.91 865.64,484.75 864.00,488.00 L 861.02 493.91 L 860.89 493.92 L 868.62 494.21 L 876.50 494.50 L 877.09 509.00 L 862.00 509.00 L 862.00 504.62 C862.00,502.22 861.71,498.82 861.37,497.08 L 860.73 493.92 L 853.76 494.21 L 846.50 494.50 L 845.92 513.00 L 861.00 513.00 L 861.00 532.00 L 846.00 532.00 L 846.00 541.51 L 840.79 543.53 C835.06,545.74 834.27,547.10 834.10,555.08 L 834.00 559.66 L 828.55 559.21 C823.37,558.78 823.07,558.89 822.45,561.33 C822.10,562.74 820.77,564.58 819.49,565.41 C818.22,566.25 816.02,569.31 814.61,572.21 C813.19,575.12 810.46,580.20 808.53,583.50 C806.60,586.80 805.02,589.84 805.01,590.25 C805.01,590.66 807.25,591.00 810.00,591.00 L 815.00 591.00 L 815.00 604.00 L 802.00 604.00 L 802.00 597.00 L 788.00 597.00 L 788.00 603.89 C788.00,609.27 788.35,610.92 789.59,611.40 C790.46,611.73 791.59,611.75 792.09,611.44 C794.27,610.10 792.65,612.96 788.25,618.21 C773.19,636.19 750.47,649.18 725.00,654.38 ZM 504.48 393.41 L 523.47 410.00 L 562.76 410.00 L 564.03 406.94 C566.92,399.95 578.33,395.82 585.98,398.99 C589.05,400.26 596.00,407.21 596.00,409.00 C596.00,409.55 597.74,410.00 599.86,410.00 L 603.72 410.00 L 604.33 403.75 C604.67,400.31 604.97,377.59 605.00,353.26 C605.05,311.26 604.95,308.82 603.09,305.18 C601.08,301.24 592.44,292.67 573.68,276.01 L 563.00 266.52 L 563.00 232.76 C563.00,205.09 562.76,199.00 561.65,199.00 C559.27,199.00 552.13,193.15 550.37,189.77 C548.22,185.62 548.16,176.49 550.25,172.50 C552.29,168.60 556.77,164.40 560.32,163.06 C565.40,161.14 572.92,161.77 577.58,164.49 C590.10,171.83 589.70,190.93 576.88,197.56 L 574.00 199.05 L 574.00 262.87 L 588.43 275.94 C596.37,283.12 603.12,289.00 603.43,289.00 C603.74,289.00 604.00,261.43 604.00,227.72 C604.00,221.97 604.01,216.75 604.01,212.00 C604.05,173.40 604.06,166.20 600.64,161.48 C599.44,159.81 597.81,158.45 595.60,156.14 C586.17,146.22 569.97,140.59 557.50,142.89 C548.52,144.55 540.18,149.09 533.78,155.79 C528.42,161.41 522.00,172.19 522.00,175.58 C522.00,176.74 521.49,177.01 520.25,176.51 C493.89,165.94 465.16,179.59 457.48,206.33 C455.79,212.22 455.82,226.69 457.53,233.32 L 458.26 236.14 L 454.38 235.32 C448.67,234.11 434.10,234.37 429.50,235.76 C418.50,239.07 406.50,250.83 401.94,262.76 C398.73,271.16 398.25,285.18 400.83,295.00 C401.91,299.12 402.73,302.53 402.65,302.56 C402.57,302.59 399.43,304.10 395.67,305.91 C388.92,309.17 383.58,314.59 377.85,324.00 L 376.03 327.00 L 400.76 327.00 C414.37,327.00 435.91,327.30 448.64,327.66 L 471.79 328.31 L 473.41 325.17 C476.72,318.77 487.32,316.07 493.76,319.99 C503.77,326.10 503.33,340.94 492.98,346.31 C485.97,349.94 475.79,346.74 473.01,340.03 C471.80,337.11 471.54,337.00 465.38,337.00 C460.92,337.00 459.00,337.38 459.00,338.26 C459.00,340.76 463.87,357.14 465.03,358.53 C465.68,359.32 470.55,363.75 475.86,368.39 C481.16,373.02 494.04,384.28 504.48,393.41 ZM 521.50 634.03 C533.55,636.64 553.79,636.21 565.50,633.09 C577.81,629.81 600.00,618.23 600.00,615.09 C600.00,614.60 592.35,606.65 583.00,597.41 L 566.00 580.62 L 566.00 507.37 L 562.46 505.68 C560.34,504.67 557.83,502.20 556.21,499.53 L 553.50 495.06 L 542.75 495.03 L 532.00 495.00 L 532.00 524.50 L 536.56 526.92 C542.80,530.23 546.00,535.81 546.00,543.39 C546.00,549.72 544.59,553.16 540.34,557.20 C534.29,562.95 525.78,564.47 518.50,561.11 C503.37,554.13 503.24,533.58 518.28,525.87 L 522.05 523.93 L 521.78 509.72 L 521.50 495.50 L 511.34 495.22 L 501.18 494.93 L 488.84 481.28 C482.05,473.77 471.13,461.84 464.56,454.77 C453.06,442.40 452.50,441.95 449.56,442.71 C439.84,445.21 430.56,441.63 425.04,433.23 L 421.57 427.97 L 394.54 428.23 L 367.50 428.50 L 366.10 433.50 C364.61,438.83 363.94,465.15 365.22,468.25 C365.88,469.85 368.09,470.00 391.37,470.00 L 416.80 470.00 L 418.82 466.57 C424.10,457.62 435.43,456.05 443.51,463.15 C455.31,473.50 445.86,492.83 430.14,490.51 C426.33,489.94 424.65,488.95 420.75,484.91 L 415.99 480.00 L 392.50 480.00 C373.15,480.00 369.00,480.24 369.00,481.38 C369.00,485.06 377.70,499.84 382.93,505.04 C391.78,513.84 392.38,514.00 417.30,514.00 L 438.80 514.00 L 440.83 510.56 C443.45,506.12 448.10,503.77 454.28,503.77 C466.17,503.77 473.17,517.40 466.40,527.36 C460.31,536.33 447.63,536.18 440.89,527.06 L 438.62 524.00 L 405.71 524.00 L 406.28 531.75 C406.59,536.01 407.79,542.54 408.96,546.25 L 411.08 553.00 L 438.47 553.00 C464.11,553.00 465.90,552.88 466.44,551.18 C467.38,548.22 472.22,544.26 476.20,543.19 C485.93,540.56 495.34,547.55 495.33,557.39 C495.32,565.12 490.15,571.12 482.21,572.62 C477.35,573.53 470.37,570.55 467.69,566.41 L 465.50 563.02 L 441.50 563.04 L 417.50 563.06 L 424.51 569.78 C431.82,576.80 439.76,581.33 450.56,584.67 C455.72,586.26 460.11,586.50 484.13,586.47 L 511.75 586.45 L 514.50 583.18 C522.24,573.99 534.77,573.76 543.19,582.66 C551.83,591.80 548.23,608.56 536.68,612.93 C532.68,614.45 523.38,614.25 520.20,612.59 C515.88,610.32 510.84,604.46 510.10,600.84 L 509.42 597.50 L 489.21 597.23 C478.09,597.08 469.00,597.35 469.00,597.83 C469.00,599.57 480.73,612.60 486.53,617.30 C495.14,624.27 510.63,631.68 521.50,634.03 ZM 510.71 453.11 C512.79,453.44 534.64,453.78 559.25,453.86 L 604.00 454.00 L 604.00 420.00 L 600.17 420.00 C596.85,420.00 596.01,420.50 593.92,423.71 C587.01,434.30 571.26,434.39 564.30,423.88 L 561.73 420.00 L 518.83 420.00 L 509.61 411.75 C504.55,407.21 495.48,399.17 489.45,393.88 C483.43,388.59 473.34,379.69 467.03,374.11 L 455.57 363.97 L 452.23 351.73 C450.39,345.01 448.44,339.05 447.90,338.50 C447.28,337.88 432.52,337.38 409.01,337.20 L 371.11 336.89 L 369.45 342.20 C368.54,345.11 367.56,352.08 367.27,357.68 L 366.74 367.87 L 384.33 367.84 L 401.91 367.82 L 403.89 364.46 C406.20,360.54 412.53,357.00 417.21,357.00 C427.74,357.02 434.64,370.26 428.73,379.10 C422.74,388.06 409.30,387.96 404.15,378.92 L 402.50 376.01 L 385.75 376.01 C371.72,376.00 369.00,376.24 369.00,377.46 C369.00,380.22 373.01,389.65 377.01,396.28 L 381.01 402.91 L 377.01 409.11 C374.80,412.52 373.00,415.69 373.00,416.16 C373.00,416.62 384.14,416.98 397.75,416.97 L 422.50 416.93 L 425.50 411.74 C427.40,408.45 429.91,405.76 432.34,404.40 C436.94,401.83 448.41,400.61 451.64,402.35 C452.82,402.98 465.74,414.52 480.35,428.00 C502.98,448.87 507.47,452.59 510.71,453.11 ZM 329.00 531.00 L 329.00 551.00 L 262.00 551.00 L 262.00 250.00 L 329.00 250.00 L 329.00 270.00 L 286.00 270.00 L 286.00 531.00 ZM 992.00 250.00 L 992.00 551.00 L 925.00 551.00 L 925.00 531.00 L 968.00 531.00 L 968.00 270.00 L 925.00 270.00 L 925.00 250.00 ZM 589.58 589.89 C597.04,597.10 603.34,603.00 603.58,603.00 C603.81,603.00 604.00,571.80 604.00,533.66 L 604.00 464.33 L 556.25 463.67 C527.96,463.27 507.07,462.58 505.00,461.96 C502.67,461.26 495.32,455.25 483.00,443.97 L 464.50 427.02 L 462.59 430.93 L 460.68 434.84 L 463.37 438.03 C464.85,439.78 475.16,451.34 486.28,463.71 L 506.50 486.21 L 530.00 485.53 C549.68,484.96 553.66,484.59 554.50,483.29 C561.00,473.16 570.32,469.65 579.50,473.89 C586.51,477.13 590.00,482.48 590.00,490.00 C590.00,497.33 585.81,503.77 579.25,506.53 L 576.00 507.90 L 576.00 576.78 ZM 543.17 394.11 C542.93,394.21 542.70,394.31 542.48,394.41 C540.30,395.37 539.23,395.84 538.17,395.82 C537.04,395.80 535.92,395.24 533.50,394.13 C529.24,392.19 523.93,386.88 520.17,380.78 L 517.87 377.06 L 521.54 370.50 C523.56,366.89 526.33,363.16 527.70,362.22 C529.96,360.66 531.41,359.73 532.34,358.43 C534.01,356.10 534.00,352.57 534.00,342.13 C534.00,341.60 534.00,341.06 534.00,340.49 L 534.00 323.99 L 523.25 312.34 C517.34,305.93 508.07,296.71 502.66,291.84 L 492.81 283.00 L 474.47 283.00 C456.82,283.00 456.11,283.08 455.48,285.07 C454.57,287.94 449.22,293.84 446.10,295.42 C438.77,299.12 428.84,297.54 423.28,291.78 C419.31,287.66 418.00,284.21 418.00,277.90 C418.00,267.30 426.19,259.00 436.63,259.00 C439.51,259.00 443.14,259.48 444.68,260.06 C448.34,261.44 453.55,266.49 455.05,270.13 L 456.24 273.00 L 487.83 273.00 L 488.52 265.60 C488.90,261.53 488.95,251.97 488.62,244.35 C487.99,229.62 488.20,230.19 482.14,226.83 C477.92,224.50 474.86,218.04 474.86,211.49 C474.86,205.55 476.45,201.79 480.66,197.81 C484.37,194.30 488.01,193.00 494.10,193.00 C510.55,193.00 518.87,211.97 507.90,224.46 C506.31,226.27 503.66,228.31 502.00,229.00 L 499.00 230.24 L 499.00 275.50 L 507.09 282.50 C511.54,286.35 521.66,296.35 529.59,304.72 L 544.00 319.95 L 544.00 358.80 L 547.42 360.82 C551.87,363.44 558.00,372.54 558.00,376.51 C558.00,381.79 550.20,391.04 543.17,394.11 ZM 577.50 304.51 L 578.02 388.00 L 568.00 388.00 L 567.99 348.75 L 567.98 309.50 L 551.44 297.09 C542.34,290.27 534.47,283.88 533.95,282.91 C533.43,281.93 533.00,273.01 533.00,263.09 L 533.00 245.05 L 529.91 243.45 C525.92,241.39 522.56,234.16 523.43,229.50 C525.23,219.93 537.04,214.89 545.10,220.26 C553.04,225.55 553.80,234.43 546.92,241.32 L 543.00 245.24 L 543.00 278.60 ZM 781.50 323.19 C783.92,324.73 785.98,325.04 792.18,324.80 C801.42,324.43 804.35,322.70 807.98,315.45 C810.15,311.11 810.50,308.89 810.84,297.39 C811.40,278.22 809.00,269.80 801.76,265.52 C797.41,262.95 788.83,262.41 783.66,264.39 C774.08,268.05 771.98,273.45 772.04,294.38 C772.10,313.79 773.52,318.12 781.50,323.19 ZM 701.66 336.89 C704.31,338.28 707.47,338.93 711.86,338.96 C719.81,339.01 724.79,336.46 728.13,330.63 C730.29,326.86 730.53,325.14 730.83,310.92 C731.20,293.74 730.38,288.79 726.35,284.01 C722.55,279.49 718.93,278.00 711.80,278.02 C696.59,278.06 690.91,288.49 692.32,313.79 C693.05,326.89 695.85,333.82 701.66,336.89 ZM 699.17 411.01 C706.63,412.77 712.94,411.26 717.61,406.59 C722.19,402.01 723.24,396.88 722.84,381.05 C722.44,365.25 720.96,361.04 714.41,357.21 C711.17,355.31 709.35,354.98 703.78,355.24 C695.92,355.62 692.54,357.59 689.50,363.56 C686.70,369.07 685.97,394.02 688.42,400.43 C690.42,405.68 694.79,409.97 699.17,411.01 ZM 744.42 384.58 C746.11,385.32 749.65,385.94 752.28,385.96 C766.32,386.08 771.58,377.17 770.83,354.60 C770.48,344.04 770.11,341.94 767.96,338.09 C764.48,331.85 761.15,329.70 754.26,329.25 C749.69,328.95 747.57,329.35 744.00,331.19 C737.15,334.71 735.67,338.60 735.16,354.41 C734.55,373.62 736.91,381.31 744.42,384.58 ZM 658.30 273.04 C662.52,275.62 671.27,275.67 675.97,273.16 C682.14,269.85 683.50,265.55 683.47,249.50 C683.44,233.51 682.26,229.35 676.84,226.05 C671.35,222.71 665.77,222.40 660.28,225.14 C652.47,229.03 651.50,231.71 651.50,249.50 C651.50,266.32 652.40,269.45 658.30,273.04 ZM 777.17 442.04 C784.71,443.89 792.35,440.74 795.50,434.47 C797.22,431.06 797.50,428.51 797.50,416.50 C797.50,400.77 796.51,397.50 790.70,393.96 C786.36,391.31 777.64,391.31 773.30,393.96 C767.40,397.56 766.59,399.92 766.15,414.80 C765.92,422.88 766.20,429.72 766.86,431.92 C768.23,436.48 772.79,440.96 777.17,442.04 ZM 661.69 471.04 C665.78,472.35 674.08,471.33 676.99,469.16 C682.56,465.01 683.50,461.73 683.50,446.50 C683.50,434.30 683.24,432.06 681.50,429.10 C678.49,423.99 674.81,421.73 668.79,421.27 C661.78,420.75 657.26,423.16 654.25,429.04 C652.25,432.94 652.00,434.90 652.00,446.75 C652.00,457.94 652.31,460.69 653.93,463.86 C656.18,468.28 657.83,469.81 661.69,471.04 ZM 734.19 499.97 C738.22,502.43 746.76,502.69 751.04,500.48 C756.51,497.65 758.00,492.79 758.00,477.79 C758.00,467.13 757.65,463.81 756.25,461.03 C751.14,450.91 734.69,451.22 729.50,461.53 C727.81,464.89 727.51,467.41 727.56,478.00 C727.63,492.41 728.95,496.78 734.19,499.97 ZM 692.50 517.52 C700.38,520.36 707.91,517.55 711.47,510.44 C713.15,507.09 713.41,504.72 713.23,494.59 C712.99,480.98 711.64,476.95 706.10,473.26 C699.55,468.90 689.48,471.18 685.59,477.92 C684.04,480.60 683.52,483.75 683.20,492.42 C682.57,509.00 684.68,514.70 692.50,517.52 ZM 711.07 210.25 C718.09,213.83 726.17,211.61 729.84,205.08 C731.74,201.68 732.00,199.70 732.00,188.36 C732.00,174.24 730.91,170.41 725.86,166.71 C722.54,164.27 714.60,164.12 710.19,166.40 C704.52,169.34 703.50,172.72 703.50,188.67 C703.50,204.58 704.27,206.78 711.07,210.25 ZM 673.00 189.00 L 673.00 212.00 L 687.00 212.00 L 687.00 149.00 L 680.65 149.00 C675.57,149.00 673.95,149.40 672.49,151.01 C671.48,152.12 668.26,154.62 665.33,156.57 C660.08,160.05 660.00,160.19 660.00,165.05 C660.00,170.77 660.86,171.13 667.00,168.00 C669.16,166.90 671.39,166.00 671.96,166.00 C672.65,166.00 673.00,173.75 673.00,189.00 ZM 663.00 324.96 L 663.00 347.00 L 677.00 347.00 L 677.00 287.00 L 671.38 287.00 C666.58,287.00 665.27,287.43 662.38,289.97 C660.52,291.61 657.20,293.97 655.01,295.22 C651.16,297.42 651.02,297.68 651.01,302.71 L 651.00 307.91 L 654.95 306.52 C657.12,305.75 659.82,304.63 660.95,304.03 C662.99,302.94 663.00,303.06 663.00,324.96 ZM 658.42 621.63 C664.82,624.53 673.03,621.58 675.58,615.45 C677.52,610.82 677.50,592.14 675.56,587.49 C672.27,579.63 660.98,577.56 654.85,583.69 C651.03,587.51 649.39,596.25 650.43,607.22 C651.25,615.79 653.17,619.26 658.42,621.63 ZM 835.31 322.54 C842.02,325.45 849.72,323.36 852.60,317.83 C854.85,313.52 855.64,300.42 854.07,293.43 C852.42,286.06 848.77,283.00 841.65,283.00 C831.51,283.00 829.00,287.07 829.00,303.50 C829.00,316.74 830.18,320.30 835.31,322.54 ZM 656.38 571.09 C661.06,573.94 668.08,573.65 671.89,570.44 C675.75,567.19 676.99,562.69 676.97,552.00 C676.95,541.20 674.72,535.62 669.56,533.46 C664.78,531.47 661.12,531.63 657.19,534.03 C652.41,536.94 651.00,541.23 651.00,552.82 C651.00,564.53 652.18,568.53 656.38,571.09 ZM 811.26 477.03 C812.49,477.55 815.87,477.84 818.76,477.66 C828.38,477.07 831.53,471.27 830.80,455.50 C830.16,441.93 826.90,437.73 817.00,437.73 C807.99,437.73 805.00,442.96 805.00,458.72 C805.01,470.45 806.57,475.03 811.26,477.03 ZM 749.00 245.50 L 749.00 266.00 L 762.00 266.00 L 762.00 210.00 L 756.96 210.00 C752.66,210.00 751.14,210.58 746.71,213.88 C743.84,216.01 740.49,218.27 739.25,218.91 C737.43,219.85 737.00,220.92 737.00,224.54 C737.00,229.73 737.98,230.07 744.00,227.00 C746.16,225.90 748.16,225.00 748.46,225.00 C748.76,225.00 749.00,234.23 749.00,245.50 ZM 844.00 424.30 C846.47,425.56 848.67,425.92 851.47,425.50 C859.40,424.31 862.00,419.37 862.00,405.50 C862.00,394.34 860.53,389.84 856.13,387.57 C852.33,385.60 846.76,385.56 843.07,387.46 C838.83,389.65 837.00,395.34 837.00,406.27 C837.00,417.21 838.70,421.58 844.00,424.30 ZM 826.00 371.73 C830.91,373.45 835.96,372.40 839.50,368.91 C842.32,366.14 842.52,365.43 842.85,356.93 C843.29,345.66 842.60,341.86 839.40,338.06 C836.34,334.42 831.88,333.43 826.50,335.19 C820.58,337.13 819.00,340.98 819.00,353.50 C819.00,365.62 820.62,369.84 826.00,371.73 ZM 761.75 537.92 C764.63,539.60 773.23,539.17 775.63,537.23 C779.27,534.28 780.00,531.49 780.00,520.52 C780.00,508.05 778.73,504.62 773.27,502.34 C769.01,500.56 764.28,501.20 760.67,504.05 C754.07,509.23 754.86,533.91 761.75,537.92 ZM 659.00 371.10 L 659.00 408.00 L 671.00 408.00 L 671.00 358.00 L 665.89 358.00 C661.75,358.00 660.09,358.56 657.08,360.94 C655.04,362.55 652.16,364.42 650.69,365.10 C648.37,366.15 648.00,366.92 648.00,370.66 C648.00,375.63 648.57,375.83 654.75,373.03 ZM 721.75 589.92 C722.71,590.48 725.41,590.95 727.73,590.97 C731.03,590.99 732.70,590.35 735.23,588.08 C738.41,585.25 738.51,584.91 738.86,575.91 C739.29,564.52 737.99,559.56 734.01,557.51 C728.18,554.49 720.50,556.42 718.19,561.47 C717.54,562.92 717.00,568.36 717.00,573.60 C717.00,583.50 718.28,587.90 721.75,589.92 ZM 754.26 578.47 C756.75,580.21 764.19,580.50 767.06,578.97 C770.64,577.05 772.00,572.65 772.00,563.00 C772.00,553.35 770.64,548.95 767.06,547.03 C764.62,545.73 757.44,545.69 755.05,546.97 C748.74,550.35 748.14,574.19 754.26,578.47 ZM 740.00 408.95 L 740.00 443.00 L 744.89 443.00 C749.67,443.00 749.79,442.92 750.14,439.75 C750.34,437.96 750.35,427.61 750.17,416.75 L 749.85 397.00 L 745.55 397.00 C742.87,397.00 740.76,397.59 739.95,398.56 C739.24,399.41 736.71,401.26 734.33,402.65 C730.38,404.97 730.00,405.53 730.00,409.16 C730.00,412.82 730.18,413.08 732.25,412.44 C733.49,412.06 735.74,411.12 737.25,410.35 ZM 706.64 262.25 C707.26,265.99 707.28,266.00 712.13,266.00 L 717.00 266.00 L 717.00 222.00 L 712.62 222.00 C709.88,222.00 707.76,222.58 706.95,223.56 C706.24,224.41 703.71,226.26 701.33,227.65 C697.57,229.86 697.00,230.64 697.00,233.60 C697.00,237.41 697.59,237.62 702.53,235.55 L 706.00 234.10 L 706.01 246.30 C706.02,253.01 706.30,260.19 706.64,262.25 ZM 865.67 377.33 C866.03,377.70 868.28,378.00 870.67,378.00 L 875.00 378.00 L 875.00 333.00 L 871.01 333.00 C867.99,333.00 865.90,333.85 862.43,336.50 C859.91,338.42 857.43,340.00 856.92,340.00 C856.42,340.00 856.00,341.80 856.00,344.00 C856.00,346.20 856.24,348.00 856.53,348.00 C856.82,348.00 858.68,347.33 860.65,346.50 C862.63,345.67 864.41,345.00 864.62,345.00 C864.83,345.00 865.00,352.12 865.00,360.83 C865.00,369.54 865.30,376.97 865.67,377.33 ZM 793.78 369.25 L 794.00 381.00 L 804.04 381.00 L 803.50 338.50 L 799.81 338.19 C796.91,337.95 795.00,338.65 790.95,341.44 C788.10,343.40 785.38,345.00 784.89,345.00 C783.89,345.00 783.66,351.33 784.63,352.29 C784.97,352.64 786.83,352.26 788.75,351.46 C793.49,349.48 793.50,349.49 793.53,353.75 C793.55,355.81 793.67,362.79 793.78,369.25 ZM 787.00 234.50 L 787.00 250.00 L 797.00 250.00 L 797.00 207.00 L 793.39 207.00 C790.92,207.00 787.93,208.18 783.94,210.75 C778.57,214.20 778.11,214.80 778.06,218.25 L 778.05 218.53 C778.02,220.38 778.01,221.36 778.46,221.68 C778.96,222.04 780.05,221.59 782.35,220.63 L 782.65 220.50 C784.63,219.68 786.41,219.00 786.62,219.00 C786.83,219.00 787.00,225.98 787.00,234.50 ZM 659.45 521.74 C659.74,522.50 661.74,523.00 664.47,523.00 L 669.00 523.00 L 669.00 481.00 L 665.12 481.00 C662.83,481.00 660.72,481.64 659.95,482.56 C659.24,483.41 656.71,485.26 654.33,486.65 C650.90,488.67 650.00,489.76 650.00,491.93 C650.00,495.73 650.62,496.04 655.09,494.47 L 659.00 493.09 L 659.22 502.29 C659.33,507.36 659.33,513.52 659.20,515.99 C659.07,518.45 659.19,521.04 659.45,521.74 ZM 696.67 621.33 C697.03,621.70 699.28,622.00 701.67,622.00 L 706.00 622.00 L 706.00 581.00 L 702.11 581.00 C699.43,581.00 696.66,582.01 693.17,584.25 C688.78,587.07 688.11,587.94 688.06,590.87 C688.01,593.85 688.26,594.18 690.25,593.75 C691.49,593.48 693.29,592.93 694.25,592.52 C695.87,591.84 696.00,592.86 696.00,606.23 C696.00,614.17 696.30,620.97 696.67,621.33 ZM 705.00 449.00 L 705.00 464.00 L 714.00 464.00 L 714.00 423.00 L 710.64 423.00 C708.44,423.00 705.33,424.28 701.64,426.71 C696.68,429.98 696.00,430.83 696.00,433.71 L 696.00 433.89 C696.00,435.51 696.00,436.39 696.42,436.70 C696.92,437.06 698.02,436.60 700.44,435.59 L 700.65 435.50 C702.63,434.67 704.41,434.00 704.62,434.00 C704.83,434.00 705.00,440.75 705.00,449.00 ZM 697.00 555.00 L 697.00 570.00 L 706.00 570.00 L 706.00 529.00 L 702.89 529.00 C700.99,529.00 697.49,530.47 693.94,532.75 C688.84,536.03 688.10,536.91 688.06,539.75 C687.99,543.40 689.05,543.75 693.36,541.49 C694.94,540.67 696.40,540.00 696.61,540.00 C696.83,540.00 697.00,546.75 697.00,555.00 ZM 795.96 312.07 C794.65,314.52 788.83,314.70 786.87,312.35 C785.36,310.53 784.29,286.62 785.44,280.47 C786.22,276.29 788.38,274.00 791.51,274.00 C796.19,274.00 797.00,277.01 797.00,294.29 C797.00,303.30 796.55,310.97 795.96,312.07 ZM 715.14 327.09 C712.09,329.56 711.41,329.50 708.45,326.55 C706.06,324.15 706.00,323.72 706.00,308.50 C706.00,293.28 706.06,292.85 708.45,290.45 C711.30,287.61 713.22,287.37 715.43,289.57 C717.87,292.01 718.18,294.67 717.83,310.46 C717.51,324.53 717.40,325.27 715.14,327.09 ZM 816.00 396.77 L 816.00 426.00 L 825.00 426.00 L 825.00 386.00 L 821.08 386.00 C818.43,386.00 816.24,386.76 814.33,388.35 C812.77,389.64 810.49,391.24 809.25,391.89 C807.66,392.72 807.00,393.97 807.00,396.15 C807.00,399.42 807.27,399.47 813.75,397.46 ZM 778.00 474.39 L 778.00 489.00 L 787.00 489.00 L 787.00 449.00 L 783.64 449.00 C781.44,449.00 778.33,450.28 774.64,452.71 C769.94,455.81 769.00,456.91 769.00,459.33 C769.00,461.94 769.27,462.18 771.75,461.75 C773.26,461.50 775.29,460.95 776.25,460.53 C777.87,459.84 778.00,460.86 778.00,474.39 ZM 708.60 399.90 C704.96,403.91 700.61,401.78 699.42,395.41 C699.05,393.48 698.95,386.56 699.18,380.04 C699.66,366.71 700.49,364.72 705.39,365.20 C710.32,365.68 711.11,368.47 710.79,384.15 C710.54,395.92 710.24,398.08 708.60,399.90 ZM 799.63 524.75 C800.13,526.60 800.93,527.00 804.14,527.00 L 808.04 527.00 L 807.77 508.25 L 807.50 489.50 L 804.83 489.19 C803.09,488.99 800.38,490.05 797.13,492.19 C792.79,495.05 792.10,495.96 792.05,498.86 C792.02,501.14 792.40,502.06 793.25,501.74 C793.63,501.60 793.99,501.46 794.32,501.34 C796.23,500.60 797.37,500.16 798.04,500.54 C799.02,501.10 799.02,503.39 799.01,509.02 C799.01,509.69 799.01,510.41 799.01,511.18 C799.02,517.41 799.30,523.51 799.63,524.75 ZM 756.44 373.78 C755.59,375.00 753.84,376.00 752.57,376.00 C748.26,376.00 747.52,373.68 747.18,358.94 C746.81,343.36 747.96,339.00 752.47,339.00 C757.08,339.00 758.00,342.08 758.00,357.50 C758.00,368.60 757.67,372.02 756.44,373.78 ZM 730.99 536.25 L 731.00 547.00 L 739.00 547.00 L 739.00 511.00 L 735.52 511.00 C730.57,511.00 723.15,516.51 723.06,520.25 C722.99,523.24 723.59,523.49 727.33,522.06 C730.58,520.83 730.97,522.35 730.99,536.25 ZM 751.00 302.89 L 751.00 316.00 L 759.00 316.00 L 759.00 280.00 L 755.12 280.00 C752.82,280.00 750.72,280.64 749.95,281.57 C749.23,282.43 747.38,283.79 745.82,284.59 C743.65,285.71 743.00,286.76 743.00,289.13 C743.00,291.89 743.25,292.15 745.41,291.61 C746.73,291.28 748.53,290.73 749.41,290.40 C750.81,289.86 751.00,291.31 751.00,302.89 ZM 671.06 264.43 C669.47,266.34 665.65,266.48 664.15,264.68 C662.49,262.68 661.54,242.28 662.89,237.35 C664.58,231.18 670.17,230.21 671.75,235.82 C673.06,240.49 672.53,262.66 671.06,264.43 ZM 824.00 263.45 L 824.00 275.12 L 831.50 274.50 L 832.05 243.00 L 828.18 243.00 C825.60,243.00 823.72,243.66 822.52,244.97 C821.54,246.06 819.90,247.22 818.87,247.54 C817.58,247.95 817.00,249.08 817.00,251.18 C817.00,254.33 817.51,254.46 822.25,252.51 C823.86,251.84 824.00,252.73 824.00,263.45 ZM 671.13 461.35 C669.21,463.65 666.40,463.41 664.56,460.78 C663.35,459.06 663.00,455.76 663.00,446.21 C663.00,432.77 663.77,430.00 667.51,430.00 C672.16,430.00 673.25,433.52 672.85,447.33 C672.61,455.90 672.08,460.20 671.13,461.35 ZM 785.75 430.00 C784.06,433.26 779.56,433.92 778.07,431.13 C777.47,430.02 777.00,423.56 777.00,416.57 C777.00,405.33 777.21,403.79 779.00,402.00 C781.38,399.62 782.01,399.56 784.56,401.42 C786.27,402.67 786.53,404.30 786.78,415.17 C786.97,423.82 786.67,428.25 785.75,430.00 ZM 436.92 429.08 C440.17,432.33 443.57,432.79 447.85,430.57 C450.58,429.17 453.00,425.32 453.00,422.40 C453.00,417.60 447.81,413.00 442.38,413.00 C438.46,413.00 434.00,418.06 434.00,422.50 C434.00,425.21 434.76,426.91 436.92,429.08 ZM 521.79 551.45 C526.12,553.80 529.80,553.35 533.08,550.08 C535.24,547.91 536.00,546.21 536.00,543.50 C536.00,540.79 535.24,539.09 533.08,536.92 C526.08,529.92 515.07,536.62 517.93,546.15 C518.65,548.56 520.07,550.52 521.79,551.45 ZM 826.00 517.00 L 826.00 534.00 L 842.00 534.00 L 842.00 517.00 ZM 746.71 491.00 C745.18,494.03 741.84,494.72 739.91,492.40 C737.94,490.03 737.42,468.50 739.25,465.00 C740.99,461.66 744.37,461.26 746.40,464.17 C748.43,467.06 748.66,487.13 746.71,491.00 ZM 806.00 547.75 L 806.00 556.00 L 822.00 556.00 L 822.00 540.15 L 814.00 539.83 L 806.00 539.50 ZM 844.00 549.00 L 860.00 549.00 L 860.00 565.00 L 844.00 565.00 ZM 837.00 573.00 L 837.00 589.00 L 821.00 589.00 L 821.00 573.00 ZM 430.92 284.08 C436.94,290.09 446.00,286.52 446.00,278.13 C446.00,274.94 445.40,273.68 442.92,271.59 C439.38,268.61 437.11,268.37 432.91,270.55 C427.43,273.38 426.50,279.66 430.92,284.08 ZM 842.48 476.73 L 843.09 480.00 L 858.00 480.00 L 858.00 463.92 L 850.25 464.21 L 842.50 464.50 L 842.18 468.98 C842.01,471.44 842.14,474.93 842.48,476.73 ZM 701.96 508.07 C701.38,509.16 699.88,510.00 698.50,510.00 C694.79,510.00 694.00,507.22 694.00,494.14 C694.00,484.57 694.32,481.83 695.57,480.57 C697.74,478.40 699.61,478.61 701.44,481.22 C703.28,483.85 703.69,504.84 701.96,508.07 ZM 720.80 201.80 C720.14,202.46 718.55,203.00 717.28,203.00 C713.95,203.00 713.00,199.60 713.00,187.66 C713.00,176.85 714.28,173.00 717.86,173.00 C721.44,173.00 722.00,175.04 722.00,188.00 C722.00,196.47 721.61,200.99 720.80,201.80 ZM 890.00 476.64 L 890.00 480.00 L 882.97 480.00 C877.97,480.00 875.79,479.61 875.42,478.64 C875.13,477.90 875.03,474.41 875.20,470.89 L 875.50 464.50 L 891.28 463.91 L 890.64 468.59 C890.29,471.17 890.00,474.79 890.00,476.64 ZM 490.36 220.03 C497.25,222.88 504.48,215.47 501.58,208.53 C498.99,202.33 492.71,201.13 487.92,205.92 C483.36,210.49 484.59,217.65 490.36,220.03 ZM 522.92 601.08 C526.18,604.34 528.73,604.71 532.94,602.53 C542.14,597.77 535.52,583.06 525.96,587.02 C519.47,589.70 518.07,596.22 522.92,601.08 ZM 565.00 189.31 C569.62,191.07 576.00,186.49 576.00,181.41 C576.00,176.79 575.15,175.13 571.93,173.46 C567.73,171.29 565.18,171.67 561.92,174.92 C557.05,179.80 558.56,186.87 565.00,189.31 ZM 905.00 443.00 L 905.00 458.00 L 890.00 458.00 L 890.00 443.00 ZM 768.00 585.00 L 768.00 600.00 L 783.00 600.00 L 783.00 585.00 ZM 744.00 595.00 L 744.00 610.00 L 759.00 610.00 L 759.00 595.00 ZM 784.00 541.00 L 784.00 556.00 L 798.00 556.00 L 798.00 541.00 ZM 788.00 567.00 L 788.00 581.00 L 802.00 581.00 L 802.00 567.00 ZM 716.00 608.00 L 716.00 622.00 L 730.00 622.00 L 730.00 608.00 ZM 756.00 184.28 L 756.00 201.00 L 763.00 201.00 L 763.00 176.00 L 760.25 176.03 C757.12,176.06 751.00,181.08 751.00,183.60 C751.00,184.80 751.66,185.11 753.50,184.76 ZM 666.96 613.07 C665.80,615.25 663.00,615.60 661.20,613.80 C660.41,613.01 660.00,608.80 660.00,601.50 C660.00,590.08 660.64,588.00 664.16,588.00 C667.06,588.00 668.00,591.33 668.00,601.50 C668.00,606.80 667.53,612.00 666.96,613.07 ZM 863.00 430.91 L 863.00 445.00 L 877.09 445.00 L 876.80 438.25 L 876.50 431.50 ZM 667.02 563.43 C665.86,566.51 662.53,566.86 661.04,564.07 C660.47,563.00 660.00,557.63 660.00,552.14 C660.00,544.38 660.35,541.79 661.57,540.57 C662.44,539.71 663.53,539.00 664.00,539.00 C664.47,539.00 665.56,539.71 666.43,540.57 C667.63,541.78 668.00,544.33 668.00,551.51 C668.00,556.66 667.56,562.02 667.02,563.43 ZM 845.03 313.95 C843.71,316.42 841.53,317.11 839.56,315.67 C838.18,314.66 837.98,312.64 838.22,302.49 L 838.50 290.50 L 841.25 290.18 C843.44,289.93 844.20,290.40 845.00,292.50 C846.28,295.87 846.30,311.57 845.03,313.95 ZM 576.47 422.05 C579.33,423.21 579.76,423.18 582.93,421.54 C587.73,419.05 588.49,413.40 584.55,409.45 C581.46,406.37 577.89,406.33 574.39,409.34 C569.93,413.17 571.02,419.84 576.47,422.05 ZM 821.02 468.43 C819.99,471.17 817.22,471.82 815.20,469.80 C813.94,468.54 813.46,449.58 814.61,446.58 C814.94,445.71 816.30,445.00 817.63,445.00 C820.91,445.00 822.00,448.25 822.00,458.00 C822.00,462.33 821.56,467.02 821.02,468.43 ZM 823.00 489.00 L 823.00 503.00 L 836.00 503.00 L 836.00 489.00 ZM 852.00 417.50 C850.50,419.31 848.82,419.42 847.20,417.80 C845.94,416.54 845.46,397.58 846.61,394.58 C847.65,391.88 851.91,392.64 853.12,395.75 C854.50,399.28 853.67,415.49 852.00,417.50 ZM 533.45 381.55 C536.45,384.55 539.87,384.68 543.37,381.93 C545.20,380.48 546.00,378.91 546.00,376.74 C546.00,369.67 537.32,366.24 533.07,371.63 C530.32,375.13 530.45,378.55 533.45,381.55 ZM 834.11 363.00 C833.22,366.20 829.54,366.89 828.07,364.13 C826.70,361.57 826.67,345.48 828.04,342.93 C829.53,340.14 832.86,340.49 834.02,343.57 C835.12,346.44 835.17,359.15 834.11,363.00 ZM 567.03 495.18 C569.47,497.63 570.57,498.07 572.78,497.52 C576.79,496.52 579.00,494.08 579.00,490.66 C579.00,483.85 571.27,480.64 566.45,485.45 C563.19,488.71 563.36,491.51 567.03,495.18 ZM 481.00 338.00 C482.11,339.11 484.33,340.00 486.00,340.00 C487.67,340.00 489.89,339.11 491.00,338.00 C492.11,336.89 493.00,334.67 493.00,333.00 C493.00,329.40 489.91,326.00 486.63,326.00 C480.34,326.00 476.71,333.71 481.00,338.00 ZM 429.32 480.81 C432.60,482.39 434.40,482.21 436.73,480.03 C440.01,476.98 440.49,474.14 438.25,471.13 C435.05,466.84 429.34,467.03 426.39,471.52 C425.04,473.58 424.97,474.51 425.95,476.88 C426.61,478.47 428.12,480.23 429.32,480.81 ZM 771.00 531.00 C770.41,532.10 769.36,533.00 768.66,533.00 C765.73,533.00 765.00,530.49 765.00,520.42 C765.00,512.36 765.33,509.97 766.58,508.93 C767.73,507.98 768.63,507.90 769.83,508.66 C771.16,509.50 771.56,511.65 771.79,519.35 C771.95,524.88 771.62,529.85 771.00,531.00 ZM 878.50 528.50 L 878.50 540.50 L 872.75 540.80 L 867.00 541.10 L 867.00 527.90 L 872.75 528.20 ZM 910.80 429.75 L 910.50 435.50 L 899.00 436.10 L 899.00 424.00 L 911.10 424.00 ZM 412.22 376.44 C417.12,379.88 423.25,377.04 423.25,371.34 C423.25,368.14 419.86,365.00 416.39,365.00 C410.74,365.00 407.72,373.29 412.22,376.44 ZM 449.63 523.93 C451.08,525.07 452.82,526.00 453.50,526.00 C454.18,526.00 455.92,525.07 457.37,523.93 C460.59,521.39 460.88,516.88 458.00,514.00 C455.44,511.44 452.95,511.47 449.63,514.07 C446.09,516.86 446.09,521.14 449.63,523.93 ZM 475.00 562.00 C476.11,563.11 478.33,564.00 480.00,564.00 C483.46,564.00 487.00,560.94 487.00,557.95 C487.00,555.29 482.68,551.00 480.00,551.00 C477.32,551.00 473.00,555.29 473.00,557.95 C473.00,559.08 473.90,560.90 475.00,562.00 ZM 911.00 472.00 L 911.00 483.00 L 899.00 483.00 L 899.00 472.00 ZM 897.00 499.00 L 897.00 510.00 L 885.00 510.00 L 885.00 499.00 L 897.00 499.00 ZM 763.00 616.00 L 763.00 628.00 L 774.00 628.00 L 774.00 616.00 ZM 764.39 566.23 C763.63,572.43 763.20,573.54 761.46,573.79 C760.34,573.95 759.10,573.77 758.71,573.38 C757.70,572.37 757.86,554.78 758.89,553.15 C759.36,552.41 760.57,551.96 761.58,552.16 C764.38,552.70 765.41,557.90 764.39,566.23 ZM 533.00 236.00 C534.10,237.10 536.12,238.00 537.50,238.00 C540.68,238.00 544.00,234.72 544.00,231.57 C544.00,229.14 539.91,225.00 537.50,225.00 C536.82,225.00 535.08,225.93 533.63,227.07 C530.47,229.56 530.21,233.21 533.00,236.00 ZM 730.78 574.40 C730.52,583.70 730.34,584.52 728.46,584.79 C727.34,584.95 726.10,584.77 725.71,584.38 C725.32,583.99 725.00,579.30 725.00,573.96 C725.00,566.54 725.36,563.95 726.50,563.00 C727.70,562.01 728.31,562.01 729.53,563.03 C730.76,564.05 731.01,566.30 730.78,574.40 ZM 734.71 631.38 C735.10,631.77 737.47,631.96 739.96,631.80 L 744.50 631.50 L 745.10 621.00 L 734.00 621.00 L 734.00 625.83 C734.00,628.49 734.32,630.99 734.71,631.38 ZM 879.00 411.00 L 879.00 422.00 L 889.00 422.00 L 889.00 411.00 ZM 844.00 440.89 L 844.00 451.00 L 854.11 451.00 L 853.80 446.25 L 853.50 441.50 L 848.75 441.20 ZM 877.00 391.00 L 877.00 400.00 L 886.00 400.00 L 886.00 391.00 ZM 860.73 493.92 L 860.89 493.92 L 860.73 493.91 Z" fill="rgb(18,18,18)"/>
<path d="M 0.00 418.00 L 0.00 0.00 L 627.00 0.00 L 1254.00 0.00 L 1254.00 418.00 L 1254.00 836.00 L 627.00 836.00 L 0.00 836.00 L 0.00 418.00 ZM 562.67 655.93 C581.44,653.84 599.12,646.85 610.50,637.02 C613.80,634.17 617.29,630.93 618.25,629.81 C619.91,627.89 620.00,615.21 620.00,394.00 L 620.00 160.22 L 615.69 154.36 C606.30,141.61 590.45,130.79 577.20,128.08 C569.73,126.56 555.49,126.76 549.01,128.49 C535.99,131.95 523.61,140.85 516.05,152.16 L 511.96 158.29 L 504.19 158.09 C486.43,157.62 471.25,163.61 458.99,175.92 C448.21,186.75 443.18,197.47 441.48,213.22 C440.87,218.89 440.84,218.94 437.18,219.50 C422.38,221.78 412.25,226.72 402.39,236.47 C390.12,248.59 385.00,261.66 385.00,280.81 L 385.00 291.83 L 381.04 294.97 C378.86,296.70 374.34,301.51 370.99,305.68 C350.69,330.91 345.42,364.91 357.25,394.37 L 360.71 402.98 L 357.95 408.79 C345.27,435.41 344.75,467.09 356.55,494.38 C362.86,508.97 371.89,520.42 383.11,528.07 C388.69,531.86 388.73,531.94 389.42,538.03 C392.83,568.16 416.13,594.51 445.80,601.80 C452.54,603.45 452.72,603.58 457.07,609.99 C473.11,633.63 502.48,650.98 534.00,655.45 C546.13,657.17 550.87,657.25 562.67,655.93 ZM 725.00 654.38 C750.47,649.18 773.19,636.19 788.25,618.21 C792.65,612.96 794.27,610.10 792.09,611.44 C791.59,611.75 790.46,611.73 789.59,611.40 C788.35,610.92 788.00,609.27 788.00,603.89 L 788.00 597.00 L 795.00 597.00 L 802.00 597.00 L 802.00 600.50 L 802.00 604.00 L 808.50 604.00 L 815.00 604.00 L 815.00 597.50 L 815.00 591.00 L 810.00 591.00 C807.25,591.00 805.01,590.66 805.01,590.25 C805.02,589.84 806.60,586.80 808.53,583.50 C810.46,580.20 813.19,575.12 814.61,572.21 C816.02,569.31 818.22,566.25 819.49,565.41 C820.77,564.58 822.10,562.74 822.45,561.33 C823.07,558.89 823.37,558.78 828.55,559.21 L 834.00 559.66 L 834.10 555.08 C834.27,547.10 835.06,545.74 840.79,543.53 L 846.00 541.51 L 846.00 536.76 L 846.00 532.00 L 853.50 532.00 L 861.00 532.00 L 861.00 522.50 L 861.00 513.00 L 853.46 513.00 L 845.92 513.00 L 846.21 503.75 L 846.50 494.50 L 853.76 494.21 L 861.02 493.91 L 864.00 488.00 C865.64,484.75 868.10,477.91 869.45,472.80 C873.89,456.10 873.10,457.56 878.07,457.00 C882.44,456.51 882.50,456.44 882.75,452.50 C883.42,441.87 883.99,440.00 886.56,440.00 C888.94,440.00 889.00,439.81 889.00,432.00 C889.00,424.67 889.17,424.00 891.00,424.00 C892.73,424.00 893.00,423.33 893.00,419.00 L 893.00 414.00 L 898.00 414.00 L 903.00 414.00 L 903.00 408.50 L 903.00 403.00 L 898.39 403.00 C894.39,403.00 893.88,402.77 894.53,401.25 C904.93,376.89 905.72,352.14 896.83,328.86 C892.83,318.39 885.78,307.94 876.46,298.69 L 869.00 291.27 L 869.00 280.35 C869.00,263.76 865.39,252.79 855.79,240.26 C848.46,230.69 835.24,223.07 821.16,220.29 L 813.23 218.73 L 812.58 212.12 C811.19,198.16 803.63,183.32 793.09,173.86 C780.92,162.94 769.94,158.77 752.91,158.61 L 741.31 158.50 L 738.47 153.79 C732.10,143.21 718.52,132.79 706.14,128.96 C698.88,126.72 685.31,126.33 676.80,128.11 C670.22,129.49 659.00,134.66 652.87,139.13 C647.79,142.83 640.84,150.27 636.67,156.48 L 634.00 160.46 L 634.00 394.25 L 634.00 628.04 L 639.25 633.11 C656.72,649.96 679.08,657.65 707.00,656.38 C712.78,656.12 720.88,655.22 725.00,654.38 ZM 837.00 581.00 L 837.00 573.00 L 829.00 573.00 L 821.00 573.00 L 821.00 581.00 L 821.00 589.00 L 829.00 589.00 L 837.00 589.00 L 837.00 581.00 ZM 860.00 557.00 L 860.00 549.00 L 852.00 549.00 L 844.00 549.00 L 844.00 557.00 L 844.00 565.00 L 852.00 565.00 L 860.00 565.00 L 860.00 557.00 ZM 329.00 541.00 L 329.00 531.00 L 307.50 531.00 L 286.00 531.00 L 286.00 400.50 L 286.00 270.00 L 307.50 270.00 L 329.00 270.00 L 329.00 260.00 L 329.00 250.00 L 295.50 250.00 L 262.00 250.00 L 262.00 400.50 L 262.00 551.00 L 295.50 551.00 L 329.00 551.00 L 329.00 541.00 ZM 992.00 400.50 L 992.00 250.00 L 958.50 250.00 L 925.00 250.00 L 925.00 260.00 L 925.00 270.00 L 946.50 270.00 L 968.00 270.00 L 968.00 400.50 L 968.00 531.00 L 946.50 531.00 L 925.00 531.00 L 925.00 541.00 L 925.00 551.00 L 958.50 551.00 L 992.00 551.00 L 992.00 400.50 ZM 878.50 534.50 L 878.50 528.50 L 872.75 528.20 L 867.00 527.90 L 867.00 534.50 L 867.00 541.10 L 872.75 540.80 L 878.50 540.50 L 878.50 534.50 ZM 897.00 504.50 L 897.00 499.00 L 891.00 499.00 L 885.00 499.00 L 885.00 504.50 L 885.00 510.00 L 891.00 510.00 L 897.00 510.00 L 897.00 504.50 ZM 876.79 501.75 L 876.50 494.50 L 868.62 494.21 L 860.73 493.91 L 861.37 497.08 C861.71,498.82 862.00,502.22 862.00,504.62 L 862.00 509.00 L 869.54 509.00 L 877.09 509.00 L 876.79 501.75 ZM 911.00 477.50 L 911.00 472.00 L 905.00 472.00 L 899.00 472.00 L 899.00 477.50 L 899.00 483.00 L 905.00 483.00 L 911.00 483.00 L 911.00 477.50 ZM 890.00 476.64 C890.00,474.79 890.29,471.17 890.64,468.59 L 891.28 463.91 L 883.39 464.21 L 875.50 464.50 L 875.20 470.89 C875.03,474.41 875.13,477.90 875.42,478.64 C875.79,479.61 877.97,480.00 882.97,480.00 L 890.00 480.00 L 890.00 476.64 ZM 905.00 450.50 L 905.00 443.00 L 897.50 443.00 L 890.00 443.00 L 890.00 450.50 L 890.00 458.00 L 897.50 458.00 L 905.00 458.00 L 905.00 450.50 ZM 910.80 429.75 L 911.10 424.00 L 905.05 424.00 L 899.00 424.00 L 899.00 430.05 L 899.00 436.10 L 904.75 435.80 L 910.50 435.50 L 910.80 429.75 ZM 521.50 634.03 C510.63,631.68 495.14,624.27 486.53,617.30 C480.73,612.60 469.00,599.57 469.00,597.83 C469.00,597.35 478.09,597.08 489.21,597.23 L 509.42 597.50 L 510.10 600.84 C510.84,604.46 515.88,610.32 520.20,612.59 C523.38,614.25 532.68,614.45 536.68,612.93 C548.23,608.56 551.83,591.80 543.19,582.66 C534.77,573.76 522.24,573.99 514.50,583.18 L 511.75 586.45 L 484.13 586.47 C460.11,586.50 455.72,586.26 450.56,584.67 C439.76,581.33 431.82,576.80 424.51,569.78 L 417.50 563.06 L 441.50 563.04 L 465.50 563.02 L 467.69 566.41 C470.37,570.55 477.35,573.53 482.21,572.62 C490.15,571.12 495.32,565.12 495.33,557.39 C495.34,547.55 485.93,540.56 476.20,543.19 C472.22,544.26 467.38,548.22 466.44,551.18 C465.90,552.88 464.11,553.00 438.47,553.00 L 411.08 553.00 L 408.96 546.25 C407.79,542.54 406.59,536.01 406.28,531.75 L 405.71 524.00 L 422.17 524.00 L 438.62 524.00 L 440.89 527.06 C447.63,536.18 460.31,536.33 466.40,527.36 C473.17,517.40 466.17,503.77 454.28,503.77 C448.10,503.77 443.45,506.12 440.83,510.56 L 438.80 514.00 L 417.30 514.00 C392.38,514.00 391.78,513.84 382.93,505.04 C377.70,499.84 369.00,485.06 369.00,481.38 C369.00,480.24 373.15,480.00 392.50,480.00 L 415.99 480.00 L 420.75 484.91 C424.65,488.95 426.33,489.94 430.14,490.51 C445.86,492.83 455.31,473.50 443.51,463.15 C435.43,456.05 424.10,457.62 418.82,466.57 L 416.80 470.00 L 391.37 470.00 C368.09,470.00 365.88,469.85 365.22,468.25 C363.94,465.15 364.61,438.83 366.10,433.50 L 367.50 428.50 L 394.54 428.23 L 421.57 427.97 L 425.04 433.23 C430.56,441.63 439.84,445.21 449.56,442.71 C452.50,441.95 453.06,442.40 464.56,454.77 C471.13,461.84 482.05,473.77 488.84,481.28 L 501.18 494.93 L 511.34 495.22 L 521.50 495.50 L 521.78 509.72 L 522.05 523.93 L 518.28 525.87 C503.24,533.58 503.37,554.13 518.50,561.11 C525.78,564.47 534.29,562.95 540.34,557.20 C544.59,553.16 546.00,549.72 546.00,543.39 C546.00,535.81 542.80,530.23 536.56,526.92 L 532.00 524.50 L 532.00 509.75 L 532.00 495.00 L 542.75 495.03 L 553.50 495.06 L 556.21 499.53 C557.83,502.20 560.34,504.67 562.46,505.68 L 566.00 507.37 L 566.00 544.00 L 566.00 580.62 L 583.00 597.41 C592.35,606.65 600.00,614.60 600.00,615.09 C600.00,618.23 577.81,629.81 565.50,633.09 C553.79,636.21 533.55,636.64 521.50,634.03 ZM 522.92 601.08 C518.07,596.22 519.47,589.70 525.96,587.02 C535.52,583.06 542.14,597.77 532.94,602.53 C528.73,604.71 526.18,604.34 522.92,601.08 ZM 589.58 589.89 L 576.00 576.78 L 576.00 542.34 L 576.00 507.90 L 579.25 506.53 C585.81,503.77 590.00,497.33 590.00,490.00 C590.00,482.48 586.51,477.13 579.50,473.89 C570.32,469.65 561.00,473.16 554.50,483.29 C553.66,484.59 549.68,484.96 530.00,485.53 L 506.50 486.21 L 486.28 463.71 C475.16,451.34 464.85,439.78 463.37,438.03 L 460.68 434.84 L 462.59 430.93 L 464.50 427.02 L 483.00 443.97 C495.32,455.25 502.67,461.26 505.00,461.96 C507.07,462.58 527.96,463.27 556.25,463.67 L 604.00 464.33 L 604.00 533.66 C604.00,571.80 603.81,603.00 603.58,603.00 C603.34,603.00 597.04,597.10 589.58,589.89 ZM 475.00 562.00 C473.90,560.90 473.00,559.08 473.00,557.95 C473.00,555.29 477.32,551.00 480.00,551.00 C482.68,551.00 487.00,555.29 487.00,557.95 C487.00,560.94 483.46,564.00 480.00,564.00 C478.33,564.00 476.11,563.11 475.00,562.00 ZM 521.79 551.45 C520.07,550.52 518.65,548.56 517.93,546.15 C515.07,536.62 526.08,529.92 533.08,536.92 C535.24,539.09 536.00,540.79 536.00,543.50 C536.00,546.21 535.24,547.91 533.08,550.08 C529.80,553.35 526.12,553.80 521.79,551.45 ZM 449.63 523.93 C446.09,521.14 446.09,516.86 449.63,514.07 C452.95,511.47 455.44,511.44 458.00,514.00 C460.88,516.88 460.59,521.39 457.37,523.93 C455.92,525.07 454.18,526.00 453.50,526.00 C452.82,526.00 451.08,525.07 449.63,523.93 ZM 567.03 495.18 C563.36,491.51 563.19,488.71 566.45,485.45 C571.27,480.64 579.00,483.85 579.00,490.66 C579.00,494.08 576.79,496.52 572.78,497.52 C570.57,498.07 569.47,497.63 567.03,495.18 ZM 429.32 480.81 C428.12,480.23 426.61,478.47 425.95,476.88 C424.97,474.51 425.04,473.58 426.39,471.52 C429.34,467.03 435.05,466.84 438.25,471.13 C440.49,474.14 440.01,476.98 436.73,480.03 C434.40,482.21 432.60,482.39 429.32,480.81 ZM 510.71 453.11 C507.47,452.59 502.98,448.87 480.35,428.00 C465.74,414.52 452.82,402.98 451.64,402.35 C448.41,400.61 436.94,401.83 432.34,404.40 C429.91,405.76 427.40,408.45 425.50,411.74 L 422.50 416.93 L 397.75 416.97 C384.14,416.98 373.00,416.62 373.00,416.16 C373.00,415.69 374.80,412.52 377.01,409.11 L 381.01 402.91 L 377.01 396.28 C373.01,389.65 369.00,380.22 369.00,377.46 C369.00,376.24 371.72,376.00 385.75,376.01 L 402.50 376.01 L 404.15 378.92 C409.30,387.96 422.74,388.06 428.73,379.10 C434.64,370.26 427.74,357.02 417.21,357.00 C412.53,357.00 406.20,360.54 403.89,364.46 L 401.91 367.82 L 384.33 367.84 L 366.74 367.87 L 367.27 357.68 C367.56,352.08 368.54,345.11 369.45,342.20 L 371.11 336.89 L 409.01 337.20 C432.52,337.38 447.28,337.88 447.90,338.50 C448.44,339.05 450.39,345.01 452.23,351.73 L 455.57 363.97 L 467.03 374.11 C473.34,379.69 483.43,388.59 489.45,393.88 C495.48,399.17 504.55,407.21 509.61,411.75 L 518.83 420.00 L 540.28 420.00 L 561.73 420.00 L 564.30 423.88 C571.26,434.39 587.01,434.30 593.92,423.71 C596.01,420.50 596.85,420.00 600.17,420.00 L 604.00 420.00 L 604.00 437.00 L 604.00 454.00 L 559.25 453.86 C534.64,453.78 512.79,453.44 510.71,453.11 ZM 436.92 429.08 C434.76,426.91 434.00,425.21 434.00,422.50 C434.00,418.06 438.46,413.00 442.38,413.00 C447.81,413.00 453.00,417.60 453.00,422.40 C453.00,425.32 450.58,429.17 447.85,430.57 C443.57,432.79 440.17,432.33 436.92,429.08 ZM 576.47 422.05 C571.02,419.84 569.93,413.17 574.39,409.34 C577.89,406.33 581.46,406.37 584.55,409.45 C588.49,413.40 587.73,419.05 582.93,421.54 C579.76,423.18 579.33,423.21 576.47,422.05 ZM 504.48 393.41 C494.04,384.28 481.16,373.02 475.86,368.39 C470.55,363.75 465.68,359.32 465.03,358.53 C463.87,357.14 459.00,340.76 459.00,338.26 C459.00,337.38 460.92,337.00 465.38,337.00 C471.54,337.00 471.80,337.11 473.01,340.03 C475.79,346.74 485.97,349.94 492.98,346.31 C503.33,340.94 503.77,326.10 493.76,319.99 C487.32,316.07 476.72,318.77 473.41,325.17 L 471.79 328.31 L 448.64 327.66 C435.91,327.30 414.37,327.00 400.76,327.00 L 376.03 327.00 L 377.85 324.00 C383.58,314.59 388.92,309.17 395.67,305.91 C399.43,304.10 402.57,302.59 402.65,302.56 C402.73,302.53 401.91,299.12 400.83,295.00 C398.25,285.18 398.73,271.16 401.94,262.76 C406.50,250.83 418.50,239.07 429.50,235.76 C434.10,234.37 448.67,234.11 454.38,235.32 L 458.26 236.14 L 457.53 233.32 C455.82,226.69 455.79,212.22 457.48,206.33 C465.16,179.59 493.89,165.94 520.25,176.51 C521.49,177.01 522.00,176.74 522.00,175.58 C522.00,172.19 528.42,161.41 533.78,155.79 C540.18,149.09 548.52,144.55 557.50,142.89 C569.97,140.59 586.17,146.22 595.60,156.14 C604.83,165.83 604.00,158.73 604.00,227.72 C604.00,261.43 603.74,289.00 603.43,289.00 C603.12,289.00 596.37,283.12 588.43,275.94 L 574.00 262.87 L 574.00 230.96 L 574.00 199.05 L 576.88 197.56 C589.70,190.93 590.10,171.83 577.58,164.49 C572.92,161.77 565.40,161.14 560.32,163.06 C556.77,164.40 552.29,168.60 550.25,172.50 C548.16,176.49 548.22,185.62 550.37,189.77 C552.13,193.15 559.27,199.00 561.65,199.00 C562.76,199.00 563.00,205.09 563.00,232.76 L 563.00 266.52 L 573.68 276.01 C592.44,292.67 601.08,301.24 603.09,305.18 C604.95,308.82 605.05,311.26 605.00,353.26 C604.97,377.59 604.67,400.31 604.33,403.75 L 603.72 410.00 L 599.86 410.00 C597.74,410.00 596.00,409.55 596.00,409.00 C596.00,407.21 589.05,400.26 585.98,398.99 C578.33,395.82 566.92,399.95 564.03,406.94 L 562.76 410.00 L 543.11 410.00 L 523.47 410.00 L 504.48 393.41 ZM 543.17 394.11 C550.20,391.04 558.00,381.79 558.00,376.51 C558.00,372.54 551.87,363.44 547.42,360.82 L 544.00 358.80 L 544.00 339.38 L 544.00 319.95 L 529.59 304.72 C521.66,296.35 511.54,286.35 507.09,282.50 L 499.00 275.50 L 499.00 252.87 L 499.00 230.24 L 502.00 229.00 C503.66,228.31 506.31,226.27 507.90,224.46 C518.87,211.97 510.55,193.00 494.10,193.00 C488.01,193.00 484.37,194.30 480.66,197.81 C476.45,201.79 474.86,205.55 474.86,211.49 C474.86,218.04 477.92,224.50 482.14,226.83 C488.20,230.19 487.99,229.62 488.62,244.35 C488.95,251.97 488.90,261.53 488.52,265.60 L 487.83 273.00 L 472.04 273.00 L 456.24 273.00 L 455.05 270.13 C453.55,266.49 448.34,261.44 444.68,260.06 C443.14,259.48 439.51,259.00 436.63,259.00 C426.19,259.00 418.00,267.30 418.00,277.90 C418.00,284.21 419.31,287.66 423.28,291.78 C428.84,297.54 438.77,299.12 446.10,295.42 C449.22,293.84 454.57,287.94 455.48,285.07 C456.11,283.08 456.82,283.00 474.47,283.00 L 492.81 283.00 L 502.66 291.84 C508.07,296.71 517.34,305.93 523.25,312.34 L 534.00 323.99 L 534.00 340.49 C534.00,358.45 534.21,357.73 527.70,362.22 C526.33,363.16 523.56,366.89 521.54,370.50 L 517.87 377.06 L 520.17 380.78 C523.93,386.88 529.24,392.19 533.50,394.13 C538.44,396.38 537.95,396.39 543.17,394.11 ZM 577.76 346.26 L 577.50 304.51 L 560.25 291.56 L 543.00 278.60 L 543.00 261.92 L 543.00 245.24 L 546.92 241.32 C553.80,234.43 553.04,225.55 545.10,220.26 C537.04,214.89 525.23,219.93 523.43,229.50 C522.56,234.16 525.92,241.39 529.91,243.45 L 533.00 245.05 L 533.00 263.09 C533.00,273.01 533.43,281.93 533.95,282.91 C534.47,283.88 542.34,290.27 551.44,297.09 L 567.98 309.50 L 567.99 348.75 L 568.00 388.00 L 573.01 388.00 L 578.02 388.00 L 577.76 346.26 ZM 412.22 376.44 C407.72,373.29 410.74,365.00 416.39,365.00 C419.86,365.00 423.25,368.14 423.25,371.34 C423.25,377.04 417.12,379.88 412.22,376.44 ZM 481.00 338.00 C476.71,333.71 480.34,326.00 486.63,326.00 C489.91,326.00 493.00,329.40 493.00,333.00 C493.00,334.67 492.11,336.89 491.00,338.00 C489.89,339.11 487.67,340.00 486.00,340.00 C484.33,340.00 482.11,339.11 481.00,338.00 ZM 565.00 189.31 C558.56,186.87 557.05,179.80 561.92,174.92 C565.18,171.67 567.73,171.29 571.93,173.46 C575.15,175.13 576.00,176.79 576.00,181.41 C576.00,186.49 569.62,191.07 565.00,189.31 ZM 734.71 631.38 C734.32,630.99 734.00,628.49 734.00,625.83 L 734.00 621.00 L 739.55 621.00 L 745.10 621.00 L 744.80 626.25 L 744.50 631.50 L 739.96 631.80 C737.47,631.96 735.10,631.77 734.71,631.38 ZM 763.00 622.00 L 763.00 616.00 L 768.50 616.00 L 774.00 616.00 L 774.00 622.00 L 774.00 628.00 L 768.50 628.00 L 763.00 628.00 L 763.00 622.00 ZM 658.42 621.63 C653.17,619.26 651.25,615.79 650.43,607.22 C649.39,596.25 651.03,587.51 654.85,583.69 C660.98,577.56 672.27,579.63 675.56,587.49 C677.50,592.14 677.52,610.82 675.58,615.45 C673.03,621.58 664.82,624.53 658.42,621.63 ZM 666.96 613.07 C667.53,612.00 668.00,606.80 668.00,601.50 C668.00,591.33 667.06,588.00 664.16,588.00 C660.64,588.00 660.00,590.08 660.00,601.50 C660.00,608.80 660.41,613.01 661.20,613.80 C663.00,615.60 665.80,615.25 666.96,613.07 ZM 696.67 621.33 C696.30,620.97 696.00,614.17 696.00,606.23 C696.00,592.86 695.87,591.84 694.25,592.52 C693.29,592.93 691.49,593.48 690.25,593.75 C688.26,594.18 688.01,593.85 688.06,590.87 C688.11,587.94 688.78,587.07 693.17,584.25 C696.66,582.01 699.43,581.00 702.11,581.00 L 706.00 581.00 L 706.00 601.50 L 706.00 622.00 L 701.67 622.00 C699.28,622.00 697.03,621.70 696.67,621.33 ZM 716.00 615.00 L 716.00 608.00 L 723.00 608.00 L 730.00 608.00 L 730.00 615.00 L 730.00 622.00 L 723.00 622.00 L 716.00 622.00 L 716.00 615.00 ZM 744.00 602.50 L 744.00 595.00 L 751.50 595.00 L 759.00 595.00 L 759.00 602.50 L 759.00 610.00 L 751.50 610.00 L 744.00 610.00 L 744.00 602.50 ZM 768.00 592.50 L 768.00 585.00 L 775.50 585.00 L 783.00 585.00 L 783.00 592.50 L 783.00 600.00 L 775.50 600.00 L 768.00 600.00 L 768.00 592.50 ZM 721.75 589.92 C718.28,587.90 717.00,583.50 717.00,573.60 C717.00,568.36 717.54,562.92 718.19,561.47 C720.50,556.42 728.18,554.49 734.01,557.51 C737.99,559.56 739.29,564.52 738.86,575.91 C738.51,584.91 738.41,585.25 735.23,588.08 C732.70,590.35 731.03,590.99 727.73,590.97 C725.41,590.95 722.71,590.48 721.75,589.92 ZM 730.78 574.40 C731.01,566.30 730.76,564.05 729.53,563.03 C728.31,562.01 727.70,562.01 726.50,563.00 C725.36,563.95 725.00,566.54 725.00,573.96 C725.00,579.30 725.32,583.99 725.71,584.38 C726.10,584.77 727.34,584.95 728.46,584.79 C730.34,584.52 730.52,583.70 730.78,574.40 ZM 788.00 574.00 L 788.00 567.00 L 795.00 567.00 L 802.00 567.00 L 802.00 574.00 L 802.00 581.00 L 795.00 581.00 L 788.00 581.00 L 788.00 574.00 ZM 754.26 578.47 C748.14,574.19 748.74,550.35 755.05,546.97 C757.44,545.69 764.62,545.73 767.06,547.03 C770.64,548.95 772.00,553.35 772.00,563.00 C772.00,572.65 770.64,577.05 767.06,578.97 C764.19,580.50 756.75,580.21 754.26,578.47 ZM 764.39 566.23 C765.41,557.90 764.38,552.70 761.58,552.16 C760.57,551.96 759.36,552.41 758.89,553.15 C757.86,554.78 757.70,572.37 758.71,573.38 C759.10,573.77 760.34,573.95 761.46,573.79 C763.20,573.54 763.63,572.43 764.39,566.23 ZM 656.38 571.09 C652.18,568.53 651.00,564.53 651.00,552.82 C651.00,541.23 652.41,536.94 657.19,534.03 C661.12,531.63 664.78,531.47 669.56,533.46 C674.72,535.62 676.95,541.20 676.97,552.00 C676.99,562.69 675.75,567.19 671.89,570.44 C668.08,573.65 661.06,573.94 656.38,571.09 ZM 667.02 563.43 C667.56,562.02 668.00,556.66 668.00,551.51 C668.00,544.33 667.63,541.78 666.43,540.57 C665.56,539.71 664.47,539.00 664.00,539.00 C663.53,539.00 662.44,539.71 661.57,540.57 C660.35,541.79 660.00,544.38 660.00,552.14 C660.00,557.63 660.47,563.00 661.04,564.07 C662.53,566.86 665.86,566.51 667.02,563.43 ZM 697.00 555.00 C697.00,546.75 696.83,540.00 696.61,540.00 C696.40,540.00 694.94,540.67 693.36,541.49 C689.05,543.75 687.99,543.40 688.06,539.75 C688.10,536.91 688.84,536.03 693.94,532.75 C697.49,530.47 700.99,529.00 702.89,529.00 L 706.00 529.00 L 706.00 549.50 L 706.00 570.00 L 701.50 570.00 L 697.00 570.00 L 697.00 555.00 ZM 784.00 548.50 L 784.00 541.00 L 791.00 541.00 L 798.00 541.00 L 798.00 548.50 L 798.00 556.00 L 791.00 556.00 L 784.00 556.00 L 784.00 548.50 ZM 806.00 547.75 L 806.00 539.50 L 814.00 539.83 L 822.00 540.15 L 822.00 548.08 L 822.00 556.00 L 814.00 556.00 L 806.00 556.00 L 806.00 547.75 ZM 730.99 536.25 C730.97,522.35 730.58,520.83 727.33,522.06 C723.59,523.49 722.99,523.24 723.06,520.25 C723.15,516.51 730.57,511.00 735.52,511.00 L 739.00 511.00 L 739.00 529.00 L 739.00 547.00 L 735.00 547.00 L 731.00 547.00 L 730.99 536.25 ZM 761.75 537.92 C754.86,533.91 754.07,509.23 760.67,504.05 C764.28,501.20 769.01,500.56 773.27,502.34 C778.73,504.62 780.00,508.05 780.00,520.52 C780.00,531.49 779.27,534.28 775.63,537.23 C773.23,539.17 764.63,539.60 761.75,537.92 ZM 771.00 531.00 C771.62,529.85 771.95,524.88 771.79,519.35 C771.56,511.65 771.16,509.50 769.83,508.66 C768.63,507.90 767.73,507.98 766.58,508.93 C765.33,509.97 765.00,512.36 765.00,520.42 C765.00,530.49 765.73,533.00 768.66,533.00 C769.36,533.00 770.41,532.10 771.00,531.00 ZM 826.00 525.50 L 826.00 517.00 L 834.00 517.00 L 842.00 517.00 L 842.00 525.50 L 842.00 534.00 L 834.00 534.00 L 826.00 534.00 L 826.00 525.50 ZM 799.63 524.75 C799.30,523.51 799.02,517.41 799.01,511.18 C799.00,498.77 799.41,499.43 793.25,501.74 C792.40,502.06 792.02,501.14 792.05,498.86 C792.10,495.96 792.79,495.05 797.13,492.19 C800.38,490.05 803.09,488.99 804.83,489.19 L 807.50 489.50 L 807.77 508.25 L 808.04 527.00 L 804.14 527.00 C800.93,527.00 800.13,526.60 799.63,524.75 ZM 659.45 521.74 C659.19,521.04 659.07,518.45 659.20,515.99 C659.33,513.52 659.33,507.36 659.22,502.29 L 659.00 493.09 L 655.09 494.47 C650.62,496.04 650.00,495.73 650.00,491.93 C650.00,489.76 650.90,488.67 654.33,486.65 C656.71,485.26 659.24,483.41 659.95,482.56 C660.72,481.64 662.83,481.00 665.12,481.00 L 669.00 481.00 L 669.00 502.00 L 669.00 523.00 L 664.47 523.00 C661.74,523.00 659.74,522.50 659.45,521.74 ZM 692.50 517.52 C684.68,514.70 682.57,509.00 683.20,492.42 C683.52,483.75 684.04,480.60 685.59,477.92 C689.48,471.18 699.55,468.90 706.10,473.26 C711.64,476.95 712.99,480.98 713.23,494.59 C713.41,504.72 713.15,507.09 711.47,510.44 C707.91,517.55 700.38,520.36 692.50,517.52 ZM 701.96 508.07 C703.69,504.84 703.28,483.85 701.44,481.22 C699.61,478.61 697.74,478.40 695.57,480.57 C694.32,481.83 694.00,484.57 694.00,494.14 C694.00,507.22 694.79,510.00 698.50,510.00 C699.88,510.00 701.38,509.16 701.96,508.07 ZM 823.00 496.00 L 823.00 489.00 L 829.50 489.00 L 836.00 489.00 L 836.00 496.00 L 836.00 503.00 L 829.50 503.00 L 823.00 503.00 L 823.00 496.00 ZM 734.19 499.97 C728.95,496.78 727.63,492.41 727.56,478.00 C727.51,467.41 727.81,464.89 729.50,461.53 C734.69,451.22 751.14,450.91 756.25,461.03 C757.65,463.81 758.00,467.13 758.00,477.79 C758.00,492.79 756.51,497.65 751.04,500.48 C746.76,502.69 738.22,502.43 734.19,499.97 ZM 746.71 491.00 C748.66,487.13 748.43,467.06 746.40,464.17 C744.37,461.26 740.99,461.66 739.25,465.00 C737.42,468.50 737.94,490.03 739.91,492.40 C741.84,494.72 745.18,494.03 746.71,491.00 ZM 778.00 474.39 C778.00,460.86 777.87,459.84 776.25,460.53 C775.29,460.95 773.26,461.50 771.75,461.75 C769.27,462.18 769.00,461.94 769.00,459.33 C769.00,456.91 769.94,455.81 774.64,452.71 C778.33,450.28 781.44,449.00 783.64,449.00 L 787.00 449.00 L 787.00 469.00 L 787.00 489.00 L 782.50 489.00 L 778.00 489.00 L 778.00 474.39 ZM 842.48 476.73 C842.14,474.93 842.01,471.44 842.18,468.98 L 842.50 464.50 L 850.25 464.21 L 858.00 463.92 L 858.00 471.96 L 858.00 480.00 L 850.55 480.00 L 843.09 480.00 L 842.48 476.73 ZM 811.26 477.03 C806.57,475.03 805.01,470.45 805.00,458.72 C805.00,442.96 807.99,437.73 817.00,437.73 C826.90,437.73 830.16,441.93 830.80,455.50 C831.53,471.27 828.38,477.07 818.76,477.66 C815.87,477.84 812.49,477.55 811.26,477.03 ZM 821.02 468.43 C821.56,467.02 822.00,462.33 822.00,458.00 C822.00,448.25 820.91,445.00 817.63,445.00 C816.30,445.00 814.94,445.71 814.61,446.58 C813.46,449.58 813.94,468.54 815.20,469.80 C817.22,471.82 819.99,471.17 821.02,468.43 ZM 661.69 471.04 C657.83,469.81 656.18,468.28 653.93,463.86 C652.31,460.69 652.00,457.94 652.00,446.75 C652.00,434.90 652.25,432.94 654.25,429.04 C657.26,423.16 661.78,420.75 668.79,421.27 C674.81,421.73 678.49,423.99 681.50,429.10 C683.24,432.06 683.50,434.30 683.50,446.50 C683.50,461.73 682.56,465.01 676.99,469.16 C674.08,471.33 665.78,472.35 661.69,471.04 ZM 671.13 461.35 C672.08,460.20 672.61,455.90 672.85,447.33 C673.25,433.52 672.16,430.00 667.51,430.00 C663.77,430.00 663.00,432.77 663.00,446.21 C663.00,455.76 663.35,459.06 664.56,460.78 C666.40,463.41 669.21,463.65 671.13,461.35 ZM 705.00 449.00 C705.00,440.75 704.83,434.00 704.62,434.00 C704.41,434.00 702.63,434.67 700.65,435.50 C695.93,437.48 696.00,437.50 696.00,433.71 C696.00,430.83 696.68,429.98 701.64,426.71 C705.33,424.28 708.44,423.00 710.64,423.00 L 714.00 423.00 L 714.00 443.50 L 714.00 464.00 L 709.50 464.00 L 705.00 464.00 L 705.00 449.00 ZM 844.00 445.95 L 844.00 440.89 L 848.75 441.20 L 853.50 441.50 L 853.80 446.25 L 854.11 451.00 L 849.05 451.00 L 844.00 451.00 L 844.00 445.95 ZM 863.00 437.95 L 863.00 430.91 L 869.75 431.20 L 876.50 431.50 L 876.80 438.25 L 877.09 445.00 L 870.05 445.00 L 863.00 445.00 L 863.00 437.95 ZM 740.00 425.97 L 740.00 408.95 L 737.25 410.35 C735.74,411.12 733.49,412.06 732.25,412.44 C730.18,413.08 730.00,412.82 730.00,409.16 C730.00,405.53 730.38,404.97 734.33,402.65 C736.71,401.26 739.24,399.41 739.95,398.56 C740.76,397.59 742.87,397.00 745.55,397.00 L 749.85 397.00 L 750.17 416.75 C750.35,427.61 750.34,437.96 750.14,439.75 C749.79,442.92 749.67,443.00 744.89,443.00 L 740.00 443.00 L 740.00 425.97 ZM 777.17 442.04 C772.79,440.96 768.23,436.48 766.86,431.92 C766.20,429.72 765.92,422.88 766.15,414.80 C766.59,399.92 767.40,397.56 773.30,393.96 C777.64,391.31 786.36,391.31 790.70,393.96 C796.51,397.50 797.50,400.77 797.50,416.50 C797.50,428.51 797.22,431.06 795.50,434.47 C792.35,440.74 784.71,443.89 777.17,442.04 ZM 785.75 430.00 C786.67,428.25 786.97,423.82 786.78,415.17 C786.53,404.30 786.27,402.67 784.56,401.42 C782.01,399.56 781.38,399.62 779.00,402.00 C777.21,403.79 777.00,405.33 777.00,416.57 C777.00,423.56 777.47,430.02 778.07,431.13 C779.56,433.92 784.06,433.26 785.75,430.00 ZM 816.00 411.38 L 816.00 396.77 L 813.75 397.46 C807.27,399.47 807.00,399.42 807.00,396.15 C807.00,393.97 807.66,392.72 809.25,391.89 C810.49,391.24 812.77,389.64 814.33,388.35 C816.24,386.76 818.43,386.00 821.08,386.00 L 825.00 386.00 L 825.00 406.00 L 825.00 426.00 L 820.50 426.00 L 816.00 426.00 L 816.00 411.38 ZM 844.00 424.30 C838.70,421.58 837.00,417.21 837.00,406.27 C837.00,395.34 838.83,389.65 843.07,387.46 C846.76,385.56 852.33,385.60 856.13,387.57 C860.53,389.84 862.00,394.34 862.00,405.50 C862.00,419.37 859.40,424.31 851.47,425.50 C848.67,425.92 846.47,425.56 844.00,424.30 ZM 852.00 417.50 C853.67,415.49 854.50,399.28 853.12,395.75 C851.91,392.64 847.65,391.88 846.61,394.58 C845.46,397.58 845.94,416.54 847.20,417.80 C848.82,419.42 850.50,419.31 852.00,417.50 ZM 879.00 416.50 L 879.00 411.00 L 884.00 411.00 L 889.00 411.00 L 889.00 416.50 L 889.00 422.00 L 884.00 422.00 L 879.00 422.00 L 879.00 416.50 ZM 699.17 411.01 C694.79,409.97 690.42,405.68 688.42,400.43 C685.97,394.02 686.70,369.07 689.50,363.56 C692.54,357.59 695.92,355.62 703.78,355.24 C709.35,354.98 711.17,355.31 714.41,357.21 C720.96,361.04 722.44,365.25 722.84,381.05 C723.24,396.88 722.19,402.01 717.61,406.59 C712.94,411.26 706.63,412.77 699.17,411.01 ZM 708.60 399.90 C710.24,398.08 710.54,395.92 710.79,384.15 C711.11,368.47 710.32,365.68 705.39,365.20 C700.49,364.72 699.66,366.71 699.18,380.04 C698.95,386.56 699.05,393.48 699.42,395.41 C700.61,401.78 704.96,403.91 708.60,399.90 ZM 659.00 389.55 L 659.00 371.10 L 654.75 373.03 C648.57,375.83 648.00,375.63 648.00,370.66 C648.00,366.92 648.37,366.15 650.69,365.10 C652.16,364.42 655.04,362.55 657.08,360.94 C660.09,358.56 661.75,358.00 665.89,358.00 L 671.00 358.00 L 671.00 383.00 L 671.00 408.00 L 665.00 408.00 L 659.00 408.00 L 659.00 389.55 ZM 877.00 395.50 L 877.00 391.00 L 881.50 391.00 L 886.00 391.00 L 886.00 395.50 L 886.00 400.00 L 881.50 400.00 L 877.00 400.00 L 877.00 395.50 ZM 744.42 384.58 C736.91,381.31 734.55,373.62 735.16,354.41 C735.67,338.60 737.15,334.71 744.00,331.19 C747.57,329.35 749.69,328.95 754.26,329.25 C761.15,329.70 764.48,331.85 767.96,338.09 C770.11,341.94 770.48,344.04 770.83,354.60 C771.58,377.17 766.32,386.08 752.28,385.96 C749.65,385.94 746.11,385.32 744.42,384.58 ZM 756.44 373.78 C757.67,372.02 758.00,368.60 758.00,357.50 C758.00,342.08 757.08,339.00 752.47,339.00 C747.96,339.00 746.81,343.36 747.18,358.94 C747.52,373.68 748.26,376.00 752.57,376.00 C753.84,376.00 755.59,375.00 756.44,373.78 ZM 793.78 369.25 C793.67,362.79 793.55,355.81 793.53,353.75 C793.50,349.49 793.49,349.48 788.75,351.46 C786.83,352.26 784.97,352.64 784.63,352.29 C783.66,351.33 783.89,345.00 784.89,345.00 C785.38,345.00 788.10,343.40 790.95,341.44 C795.00,338.65 796.91,337.95 799.81,338.19 L 803.50 338.50 L 803.77 359.75 L 804.04 381.00 L 799.02 381.00 L 794.00 381.00 L 793.78 369.25 ZM 865.67 377.33 C865.30,376.97 865.00,369.54 865.00,360.83 C865.00,352.12 864.83,345.00 864.62,345.00 C864.41,345.00 862.63,345.67 860.65,346.50 C858.68,347.33 856.82,348.00 856.53,348.00 C856.24,348.00 856.00,346.20 856.00,344.00 C856.00,341.80 856.42,340.00 856.92,340.00 C857.43,340.00 859.91,338.42 862.43,336.50 C865.90,333.85 867.99,333.00 871.01,333.00 L 875.00 333.00 L 875.00 355.50 L 875.00 378.00 L 870.67 378.00 C868.28,378.00 866.03,377.70 865.67,377.33 ZM 826.00 371.73 C820.62,369.84 819.00,365.62 819.00,353.50 C819.00,340.98 820.58,337.13 826.50,335.19 C831.88,333.43 836.34,334.42 839.40,338.06 C842.60,341.86 843.29,345.66 842.85,356.93 C842.52,365.43 842.32,366.14 839.50,368.91 C835.96,372.40 830.91,373.45 826.00,371.73 ZM 834.11 363.00 C835.17,359.15 835.12,346.44 834.02,343.57 C832.86,340.49 829.53,340.14 828.04,342.93 C826.67,345.48 826.70,361.57 828.07,364.13 C829.54,366.89 833.22,366.20 834.11,363.00 ZM 663.00 324.96 C663.00,303.06 662.99,302.94 660.95,304.03 C659.82,304.63 657.12,305.75 654.95,306.52 L 651.00 307.91 L 651.01 302.71 C651.02,297.68 651.16,297.42 655.01,295.22 C657.20,293.97 660.52,291.61 662.38,289.97 C665.27,287.43 666.58,287.00 671.38,287.00 L 677.00 287.00 L 677.00 317.00 L 677.00 347.00 L 670.00 347.00 L 663.00 347.00 L 663.00 324.96 ZM 701.66 336.89 C695.85,333.82 693.05,326.89 692.32,313.79 C690.91,288.49 696.59,278.06 711.80,278.02 C718.93,278.00 722.55,279.49 726.35,284.01 C730.38,288.79 731.20,293.74 730.83,310.92 C730.53,325.14 730.29,326.86 728.13,330.63 C724.79,336.46 719.81,339.01 711.86,338.96 C707.47,338.93 704.31,338.28 701.66,336.89 ZM 715.14 327.09 C717.40,325.27 717.51,324.53 717.83,310.46 C718.18,294.67 717.87,292.01 715.43,289.57 C713.22,287.37 711.30,287.61 708.45,290.45 C706.06,292.85 706.00,293.28 706.00,308.50 C706.00,323.72 706.06,324.15 708.45,326.55 C711.41,329.50 712.09,329.56 715.14,327.09 ZM 781.50 323.19 C773.52,318.12 772.10,313.79 772.04,294.38 C771.98,273.45 774.08,268.05 783.66,264.39 C788.83,262.41 797.41,262.95 801.76,265.52 C809.00,269.80 811.40,278.22 810.84,297.39 C810.50,308.89 810.15,311.11 807.98,315.45 C804.35,322.70 801.42,324.43 792.18,324.80 C785.98,325.04 783.92,324.73 781.50,323.19 ZM 795.96 312.07 C796.55,310.97 797.00,303.30 797.00,294.29 C797.00,277.01 796.19,274.00 791.51,274.00 C788.38,274.00 786.22,276.29 785.44,280.47 C784.29,286.62 785.36,310.53 786.87,312.35 C788.83,314.70 794.65,314.52 795.96,312.07 ZM 835.31 322.54 C830.18,320.30 829.00,316.74 829.00,303.50 C829.00,287.07 831.51,283.00 841.65,283.00 C848.77,283.00 852.42,286.06 854.07,293.43 C855.64,300.42 854.85,313.52 852.60,317.83 C849.72,323.36 842.02,325.45 835.31,322.54 ZM 845.03 313.95 C846.30,311.57 846.28,295.87 845.00,292.50 C844.20,290.40 843.44,289.93 841.25,290.18 L 838.50 290.50 L 838.22 302.49 C837.98,312.64 838.18,314.66 839.56,315.67 C841.53,317.11 843.71,316.42 845.03,313.95 ZM 751.00 302.89 C751.00,291.31 750.81,289.86 749.41,290.40 C748.53,290.73 746.73,291.28 745.41,291.61 C743.25,292.15 743.00,291.89 743.00,289.13 C743.00,286.76 743.65,285.71 745.82,284.59 C747.38,283.79 749.23,282.43 749.95,281.57 C750.72,280.64 752.82,280.00 755.12,280.00 L 759.00 280.00 L 759.00 298.00 L 759.00 316.00 L 755.00 316.00 L 751.00 316.00 L 751.00 302.89 ZM 658.30 273.04 C652.40,269.45 651.50,266.32 651.50,249.50 C651.50,231.71 652.47,229.03 660.28,225.14 C665.77,222.40 671.35,222.71 676.84,226.05 C682.26,229.35 683.44,233.51 683.47,249.50 C683.50,265.55 682.14,269.85 675.97,273.16 C671.27,275.67 662.52,275.62 658.30,273.04 ZM 671.06 264.43 C672.53,262.66 673.06,240.49 671.75,235.82 C670.17,230.21 664.58,231.18 662.89,237.35 C661.54,242.28 662.49,262.68 664.15,264.68 C665.65,266.48 669.47,266.34 671.06,264.43 ZM 824.00 263.45 C824.00,252.73 823.86,251.84 822.25,252.51 C817.51,254.46 817.00,254.33 817.00,251.18 C817.00,249.08 817.58,247.95 818.87,247.54 C819.90,247.22 821.54,246.06 822.52,244.97 C823.72,243.66 825.60,243.00 828.18,243.00 L 832.05 243.00 L 831.78 258.75 L 831.50 274.50 L 827.75 274.81 L 824.00 275.12 L 824.00 263.45 ZM 706.64 262.25 C706.30,260.19 706.02,253.01 706.01,246.30 L 706.00 234.10 L 702.53 235.55 C697.59,237.62 697.00,237.41 697.00,233.60 C697.00,230.64 697.57,229.86 701.33,227.65 C703.71,226.26 706.24,224.41 706.95,223.56 C707.76,222.58 709.88,222.00 712.62,222.00 L 717.00 222.00 L 717.00 244.00 L 717.00 266.00 L 712.13 266.00 C707.28,266.00 707.26,265.99 706.64,262.25 ZM 749.00 245.50 C749.00,234.23 748.76,225.00 748.46,225.00 C748.16,225.00 746.16,225.90 744.00,227.00 C737.98,230.07 737.00,229.73 737.00,224.54 C737.00,220.92 737.43,219.85 739.25,218.91 C740.49,218.27 743.84,216.01 746.71,213.88 C751.14,210.58 752.66,210.00 756.96,210.00 L 762.00 210.00 L 762.00 238.00 L 762.00 266.00 L 755.50 266.00 L 749.00 266.00 L 749.00 245.50 ZM 787.00 234.50 C787.00,225.98 786.83,219.00 786.62,219.00 C786.41,219.00 784.63,219.68 782.65,220.50 C777.89,222.49 777.99,222.54 778.06,218.25 C778.11,214.80 778.57,214.20 783.94,210.75 C787.93,208.18 790.92,207.00 793.39,207.00 L 797.00 207.00 L 797.00 228.50 L 797.00 250.00 L 792.00 250.00 L 787.00 250.00 L 787.00 234.50 ZM 673.00 189.00 C673.00,173.75 672.65,166.00 671.96,166.00 C671.39,166.00 669.16,166.90 667.00,168.00 C660.86,171.13 660.00,170.77 660.00,165.05 C660.00,160.19 660.08,160.05 665.33,156.57 C668.26,154.62 671.48,152.12 672.49,151.01 C673.95,149.40 675.57,149.00 680.65,149.00 L 687.00 149.00 L 687.00 180.50 L 687.00 212.00 L 680.00 212.00 L 673.00 212.00 L 673.00 189.00 ZM 711.07 210.25 C704.27,206.78 703.50,204.58 703.50,188.67 C703.50,172.72 704.52,169.34 710.19,166.40 C714.60,164.12 722.54,164.27 725.86,166.71 C730.91,170.41 732.00,174.24 732.00,188.36 C732.00,199.70 731.74,201.68 729.84,205.08 C726.17,211.61 718.09,213.83 711.07,210.25 ZM 720.80 201.80 C721.61,200.99 722.00,196.47 722.00,188.00 C722.00,175.04 721.44,173.00 717.86,173.00 C714.28,173.00 713.00,176.85 713.00,187.66 C713.00,199.60 713.95,203.00 717.28,203.00 C718.55,203.00 720.14,202.46 720.80,201.80 ZM 756.00 192.64 L 756.00 184.28 L 753.50 184.76 C751.66,185.11 751.00,184.80 751.00,183.60 C751.00,181.08 757.12,176.06 760.25,176.03 L 763.00 176.00 L 763.00 188.50 L 763.00 201.00 L 759.50 201.00 L 756.00 201.00 L 756.00 192.64 ZM 533.45 381.55 C530.45,378.55 530.32,375.13 533.07,371.63 C537.32,366.24 546.00,369.67 546.00,376.74 C546.00,378.91 545.20,380.48 543.37,381.93 C539.87,384.68 536.45,384.55 533.45,381.55 ZM 430.92 284.08 C426.50,279.66 427.43,273.38 432.91,270.55 C437.11,268.37 439.38,268.61 442.92,271.59 C445.40,273.68 446.00,274.94 446.00,278.13 C446.00,286.52 436.94,290.09 430.92,284.08 ZM 490.36 220.03 C484.59,217.65 483.36,210.49 487.92,205.92 C492.71,201.13 498.99,202.33 501.58,208.53 C504.48,215.47 497.25,222.88 490.36,220.03 ZM 533.00 236.00 C530.21,233.21 530.47,229.56 533.63,227.07 C535.08,225.93 536.82,225.00 537.50,225.00 C539.91,225.00 544.00,229.14 544.00,231.57 C544.00,234.72 540.68,238.00 537.50,238.00 C536.12,238.00 534.10,237.10 533.00,236.00 Z" fill="rgb(253,253,253)"/>
</g>
</svg>