<svg xmlns="http://www.w3.org/2000/svg" viewBox="0 0 1200 630">
  <defs>
    <linearGradient id="bg" x1="0%" y1="0%" x2="100%" y2="100%">
      <stop offset="0%" style="stop-color:#4c1d95"/>
      <stop offset="50%" style="stop-color:#6b21a8"/>
      <stop offset="100%" style="stop-color:#86198f"/>
    </linearGradient>
    <linearGradient id="card" x1="0%" y1="0%" x2="0%" y2="100%">
      <stop offset="0%" style="stop-color:#ffffff"/>
      <stop offset="100%" style="stop-color:#f8f8f8"/>
    </linearGradient>
  </defs>

  <!-- Background -->
  <rect width="1200" height="630" fill="url(#bg)"/>

  <!-- Decorative shapes (matching site style) -->
  <circle cx="100" cy="100" r="200" fill="#7c3aed" opacity="0.3"/>
  <circle cx="1100" cy="530" r="250" fill="#a855f7" opacity="0.2"/>
  <ellipse cx="600" cy="650" rx="400" ry="150" fill="#c084fc" opacity="0.15"/>

  <!-- Grid pattern -->
  <g stroke="#a78bfa" stroke-width="0.5" opacity="0.1">
    <line x1="0" y1="100" x2="1200" y2="100"/>
    <line x1="0" y1="200" x2="1200" y2="200"/>
    <line x1="0" y1="300" x2="1200" y2="300"/>
    <line x1="0" y1="400" x2="1200" y2="400"/>
    <line x1="0" y1="500" x2="1200" y2="500"/>
    <line x1="200" y1="0" x2="200" y2="630"/>
    <line x1="400" y1="0" x2="400" y2="630"/>
    <line x1="600" y1="0" x2="600" y2="630"/>
    <line x1="800" y1="0" x2="800" y2="630"/>
    <line x1="1000" y1="0" x2="1000" y2="630"/>
  </g>

  <!-- Browser window mockup -->
  <g transform="translate(100, 80)">
    <!-- Browser frame -->
    <rect x="0" y="0" width="650" height="420" rx="8" fill="#1f2937" stroke="#374151" stroke-width="2"/>

    <!-- Title bar -->
    <rect x="0" y="0" width="650" height="35" rx="8" fill="#374151"/>
    <rect x="0" y="25" width="650" height="10" fill="#374151"/>
    <!-- Window controls -->
    <circle cx="20" cy="17" r="6" fill="#ef4444"/>
    <circle cx="40" cy="17" r="6" fill="#fbbf24"/>
    <circle cx="60" cy="17" r="6" fill="#22c55e"/>
    <!-- URL bar -->
    <rect x="90" y="8" width="400" height="18" rx="4" fill="#1f2937"/>
    <text x="100" y="21" fill="#9ca3af" font-family="monospace" font-size="10">ellishopefoundation.org</text>

    <!-- Website content -->
    <rect x="0" y="35" width="650" height="385" fill="#ffffff"/>

    <!-- Nav bar -->
    <rect x="0" y="35" width="650" height="50" fill="#ffffff"/>
    <text x="20" y="65" fill="#7c3aed" font-family="system-ui" font-size="14" font-weight="bold">Ellis Hope Foundation</text>
    <g fill="#6b7280" font-family="system-ui" font-size="11">
      <text x="400" y="65">About</text>
      <text x="450" y="65">Programs</text>
      <text x="520" y="65">Get Involved</text>
    </g>
    <rect x="590" y="52" width="50" height="24" rx="4" fill="#7c3aed"/>
    <text x="600" y="68" fill="#ffffff" font-family="system-ui" font-size="10">Donate</text>

    <!-- Hero section -->
    <rect x="0" y="85" width="650" height="180" fill="url(#bg)"/>
    <text x="30" y="140" fill="#ffffff" font-family="system-ui" font-size="24" font-weight="bold">Transforming Lives</text>
    <text x="30" y="165" fill="#ffffff" font-family="system-ui" font-size="24" font-weight="bold">Through Hope</text>
    <text x="30" y="195" fill="#e9d5ff" font-family="system-ui" font-size="12">Fitness • Education • Community Support</text>
    <rect x="30" y="215" width="100" height="30" rx="4" fill="#ffffff"/>
    <text x="50" y="235" fill="#7c3aed" font-family="system-ui" font-size="11" font-weight="500">Learn More</text>

    <!-- Content cards -->
    <g transform="translate(20, 280)">
      <rect width="190" height="100" rx="6" fill="#f9fafb" stroke="#e5e7eb" stroke-width="1"/>
      <circle cx="25" cy="25" r="12" fill="#ddd6fe"/>
      <text x="25" y="29" text-anchor="middle" fill="#7c3aed" font-size="12">🏋️</text>
      <text x="50" y="28" fill="#1f2937" font-family="system-ui" font-size="11" font-weight="600">Fitness Programs</text>
      <text x="15" y="55" fill="#6b7280" font-family="system-ui" font-size="9">Personalized training</text>
      <text x="15" y="70" fill="#6b7280" font-family="system-ui" font-size="9">and gym sponsorships</text>
    </g>
    <g transform="translate(225, 280)">
      <rect width="190" height="100" rx="6" fill="#f9fafb" stroke="#e5e7eb" stroke-width="1"/>
      <circle cx="25" cy="25" r="12" fill="#ddd6fe"/>
      <text x="25" y="29" text-anchor="middle" fill="#7c3aed" font-size="12">📚</text>
      <text x="50" y="28" fill="#1f2937" font-family="system-ui" font-size="11" font-weight="600">Health Education</text>
      <text x="15" y="55" fill="#6b7280" font-family="system-ui" font-size="9">Wellness workshops</text>
      <text x="15" y="70" fill="#6b7280" font-family="system-ui" font-size="9">and nutrition guidance</text>
    </g>
    <g transform="translate(430, 280)">
      <rect width="190" height="100" rx="6" fill="#f9fafb" stroke="#e5e7eb" stroke-width="1"/>
      <circle cx="25" cy="25" r="12" fill="#ddd6fe"/>
      <text x="25" y="29" text-anchor="middle" fill="#7c3aed" font-size="12">🤝</text>
      <text x="50" y="28" fill="#1f2937" font-family="system-ui" font-size="11" font-weight="600">Community</text>
      <text x="15" y="55" fill="#6b7280" font-family="system-ui" font-size="9">Peer-led programs</text>
      <text x="15" y="70" fill="#6b7280" font-family="system-ui" font-size="9">and support networks</text>
    </g>
  </g>

  <!-- Admin Dashboard mockup -->
  <g transform="translate(780, 120)">
    <rect x="0" y="0" width="340" height="380" rx="8" fill="#1f2937" stroke="#374151" stroke-width="2"/>

    <!-- Title bar -->
    <rect x="0" y="0" width="340" height="30" rx="8" fill="#374151"/>
    <rect x="0" y="20" width="340" height="10" fill="#374151"/>
    <circle cx="15" cy="15" r="5" fill="#ef4444"/>
    <circle cx="32" cy="15" r="5" fill="#fbbf24"/>
    <circle cx="49" cy="15" r="5" fill="#22c55e"/>
    <text x="170" y="19" text-anchor="middle" fill="#9ca3af" font-family="system-ui" font-size="10">Admin Portal</text>

    <!-- Dashboard content -->
    <rect x="0" y="30" width="340" height="350" fill="#111827"/>

    <!-- Sidebar -->
    <rect x="0" y="30" width="80" height="350" fill="#1f2937"/>
    <g fill="#9ca3af" font-family="system-ui" font-size="9">
      <rect x="10" y="45" width="60" height="20" rx="3" fill="#7c3aed"/>
      <text x="20" y="59" fill="#ffffff">Dashboard</text>
      <text x="20" y="85">Applications</text>
      <text x="20" y="105">Users</text>
      <text x="20" y="125">Blog</text>
      <text x="20" y="145">Events</text>
      <text x="20" y="165">Media</text>
    </g>

    <!-- Dashboard stats -->
    <g transform="translate(90, 45)">
      <text fill="#ffffff" font-family="system-ui" font-size="12" font-weight="600">Board Member Dashboard</text>

      <!-- Stat cards -->
      <g transform="translate(0, 25)">
        <rect width="110" height="55" rx="4" fill="#1f2937"/>
        <text x="10" y="20" fill="#9ca3af" font-family="system-ui" font-size="9">Pending Reviews</text>
        <text x="10" y="42" fill="#fbbf24" font-family="system-ui" font-size="20" font-weight="bold">7</text>
      </g>
      <g transform="translate(120, 25)">
        <rect width="110" height="55" rx="4" fill="#1f2937"/>
        <text x="10" y="20" fill="#9ca3af" font-family="system-ui" font-size="9">Your Votes</text>
        <text x="10" y="42" fill="#22c55e" font-family="system-ui" font-size="20" font-weight="bold">23</text>
      </g>

      <!-- Application list -->
      <text y="105" fill="#9ca3af" font-family="system-ui" font-size="9">APPLICATIONS AWAITING REVIEW</text>

      <g transform="translate(0, 115)">
        <rect width="230" height="40" rx="4" fill="#1f2937"/>
        <circle cx="20" cy="20" r="12" fill="#374151"/>
        <text x="20" y="24" text-anchor="middle" fill="#9ca3af" font-size="10">JD</text>
        <text x="40" y="17" fill="#ffffff" font-family="system-ui" font-size="10">Jane Doe</text>
        <text x="40" y="30" fill="#6b7280" font-family="system-ui" font-size="8">Submitted 2 days ago</text>
        <rect x="180" y="12" width="40" height="16" rx="3" fill="#7c3aed"/>
        <text x="190" y="23" fill="#ffffff" font-family="system-ui" font-size="8">Vote</text>
      </g>

      <g transform="translate(0, 165)">
        <rect width="230" height="40" rx="4" fill="#1f2937"/>
        <circle cx="20" cy="20" r="12" fill="#374151"/>
        <text x="20" y="24" text-anchor="middle" fill="#9ca3af" font-size="10">MS</text>
        <text x="40" y="17" fill="#ffffff" font-family="system-ui" font-size="10">Mike Smith</text>
        <text x="40" y="30" fill="#6b7280" font-family="system-ui" font-size="8">Submitted 5 days ago</text>
        <rect x="180" y="12" width="40" height="16" rx="3" fill="#7c3aed"/>
        <text x="190" y="23" fill="#ffffff" font-family="system-ui" font-size="8">Vote</text>
      </g>

      <g transform="translate(0, 215)">
        <rect width="230" height="40" rx="4" fill="#1f2937"/>
        <circle cx="20" cy="20" r="12" fill="#374151"/>
        <text x="20" y="24" text-anchor="middle" fill="#9ca3af" font-size="10">AL</text>
        <text x="40" y="17" fill="#ffffff" font-family="system-ui" font-size="10">Amy Lee</text>
        <text x="40" y="30" fill="#6b7280" font-family="system-ui" font-size="8">Submitted 1 week ago</text>
        <rect x="180" y="12" width="40" height="16" rx="3" fill="#7c3aed"/>
        <text x="190" y="23" fill="#ffffff" font-family="system-ui" font-size="8">Vote</text>
      </g>
    </g>
  </g>

  <!-- Connection arrow -->
  <g>
    <path d="M750 290 Q765 290 770 270 Q775 250 790 250" stroke="#a78bfa" stroke-width="2" fill="none" stroke-dasharray="6,4"/>
  </g>

  <!-- Tech stack badges -->
  <g transform="translate(100, 520)">
    <rect width="90" height="28" rx="4" fill="#1f2937" stroke="#374151" stroke-width="1"/>
    <text x="45" y="18" text-anchor="middle" fill="#60a5fa" font-family="system-ui" font-size="11">.NET 10</text>
  </g>
  <g transform="translate(200, 520)">
    <rect width="90" height="28" rx="4" fill="#1f2937" stroke="#374151" stroke-width="1"/>
    <text x="45" y="18" text-anchor="middle" fill="#f472b6" font-family="system-ui" font-size="11">EF Core</text>
  </g>
  <g transform="translate(300, 520)">
    <rect width="110" height="28" rx="4" fill="#1f2937" stroke="#374151" stroke-width="1"/>
    <text x="55" y="18" text-anchor="middle" fill="#a78bfa" font-family="system-ui" font-size="11">Role-Based Auth</text>
  </g>
  <g transform="translate(420, 520)">
    <rect width="90" height="28" rx="4" fill="#1f2937" stroke="#374151" stroke-width="1"/>
    <text x="45" y="18" text-anchor="middle" fill="#4ade80" font-family="system-ui" font-size="11">QuestPDF</text>
  </g>

  <!-- Text -->
  <text x="600" y="585" text-anchor="middle" fill="#e9d5ff" font-family="system-ui, sans-serif" font-size="16">
    Nonprofit Management System • Public Site + Admin Portal + Board Member Dashboards
  </text>
</svg>
