<svg xmlns="http://www.w3.org/2000/svg" viewBox="0 0 1200 630">
  <defs>
    <linearGradient id="bg" x1="0%" y1="0%" x2="100%" y2="100%">
      <stop offset="0%" style="stop-color:#1e3a5f"/>
      <stop offset="50%" style="stop-color:#2d4a6f"/>
      <stop offset="100%" style="stop-color:#1e3a5f"/>
    </linearGradient>
    <linearGradient id="coral" x1="0%" y1="0%" x2="100%" y2="100%">
      <stop offset="0%" style="stop-color:#e07a5f"/>
      <stop offset="100%" style="stop-color:#d4644a"/>
    </linearGradient>
    <linearGradient id="gold" x1="0%" y1="0%" x2="0%" y2="100%">
      <stop offset="0%" style="stop-color:#d4a574"/>
      <stop offset="100%" style="stop-color:#c49a6c"/>
    </linearGradient>
  </defs>

  <!-- Background -->
  <rect width="1200" height="630" fill="url(#bg)"/>

  <!-- Decorative shapes -->
  <circle cx="100" cy="100" r="200" fill="#e07a5f" opacity="0.15"/>
  <circle cx="1100" cy="530" r="250" fill="#d4a574" opacity="0.1"/>
  <ellipse cx="600" cy="650" rx="400" ry="150" fill="#e07a5f" opacity="0.1"/>

  <!-- Grid pattern -->
  <g stroke="#4a6a8f" stroke-width="0.5" opacity="0.15">
    <line x1="0" y1="100" x2="1200" y2="100"/>
    <line x1="0" y1="200" x2="1200" y2="200"/>
    <line x1="0" y1="300" x2="1200" y2="300"/>
    <line x1="0" y1="400" x2="1200" y2="400"/>
    <line x1="0" y1="500" x2="1200" y2="500"/>
    <line x1="200" y1="0" x2="200" y2="630"/>
    <line x1="400" y1="0" x2="400" y2="630"/>
    <line x1="600" y1="0" x2="600" y2="630"/>
    <line x1="800" y1="0" x2="800" y2="630"/>
    <line x1="1000" y1="0" x2="1000" y2="630"/>
  </g>

  <!-- Browser window mockup -->
  <g transform="translate(100, 80)">
    <!-- Browser frame -->
    <rect x="0" y="0" width="650" height="420" rx="8" fill="#1f2937" stroke="#374151" stroke-width="2"/>

    <!-- Title bar -->
    <rect x="0" y="0" width="650" height="35" rx="8" fill="#374151"/>
    <rect x="0" y="25" width="650" height="10" fill="#374151"/>
    <!-- Window controls -->
    <circle cx="20" cy="17" r="6" fill="#ef4444"/>
    <circle cx="40" cy="17" r="6" fill="#fbbf24"/>
    <circle cx="60" cy="17" r="6" fill="#22c55e"/>
    <!-- URL bar -->
    <rect x="90" y="8" width="400" height="18" rx="4" fill="#1f2937"/>
    <text x="100" y="21" fill="#9ca3af" font-family="monospace" font-size="10">lakecountryspanish.com</text>

    <!-- Website content -->
    <rect x="0" y="35" width="650" height="385" fill="#ffffff"/>

    <!-- Nav bar -->
    <rect x="0" y="35" width="650" height="50" fill="#1e3a5f"/>
    <text x="20" y="65" fill="#ffffff" font-family="Georgia, serif" font-size="14" font-weight="bold">Lake Country Spanish</text>
    <g fill="#94a3b8" font-family="system-ui" font-size="11">
      <text x="380" y="65">About</text>
      <text x="430" y="65">Pricing</text>
      <text x="490" y="65">Rewards</text>
    </g>
    <rect x="560" y="50" width="75" height="26" rx="4" fill="url(#coral)"/>
    <text x="575" y="68" fill="#ffffff" font-family="system-ui" font-size="10">Book Now</text>

    <!-- Hero section -->
    <rect x="0" y="85" width="650" height="160" fill="#f8f5f2"/>
    <text x="30" y="130" fill="#1e3a5f" font-family="Georgia, serif" font-size="22" font-weight="bold">Spanish Lessons That</text>
    <text x="30" y="158" fill="#1e3a5f" font-family="Georgia, serif" font-size="22" font-weight="bold">Feel Like Fun!</text>
    <text x="30" y="185" fill="#6b7280" font-family="system-ui" font-size="11">Personalized online instruction with Karen</text>
    <rect x="30" y="200" width="110" height="30" rx="4" fill="url(#coral)"/>
    <text x="50" y="220" fill="#ffffff" font-family="system-ui" font-size="11">Start Learning</text>

    <!-- Teacher avatar -->
    <circle cx="550" cy="165" r="55" fill="#e07a5f" opacity="0.2"/>
    <circle cx="550" cy="165" r="45" fill="#374151"/>
    <text x="550" y="175" text-anchor="middle" fill="#ffffff" font-family="system-ui" font-size="28">K</text>

    <!-- Pricing cards -->
    <g transform="translate(20, 260)">
      <rect width="145" height="100" rx="6" fill="#ffffff" stroke="#e5e7eb" stroke-width="1"/>
      <text x="15" y="25" fill="#1e3a5f" font-family="system-ui" font-size="11" font-weight="600">Trial Class</text>
      <text x="15" y="50" fill="#e07a5f" font-family="Georgia, serif" font-size="22" font-weight="bold">$30</text>
      <text x="15" y="70" fill="#6b7280" font-family="system-ui" font-size="9">Perfect to start</text>
      <rect x="15" y="78" width="60" height="16" rx="3" fill="url(#coral)"/>
      <text x="25" y="89" fill="#ffffff" font-family="system-ui" font-size="8">Book</text>
    </g>
    <g transform="translate(175, 260)">
      <rect width="145" height="100" rx="6" fill="#1e3a5f" stroke="#1e3a5f" stroke-width="1"/>
      <text x="15" y="25" fill="#ffffff" font-family="system-ui" font-size="11" font-weight="600">Weekly</text>
      <text x="15" y="50" fill="#d4a574" font-family="Georgia, serif" font-size="22" font-weight="bold">$25</text>
      <text x="60" y="50" fill="#94a3b8" font-family="system-ui" font-size="10">/class</text>
      <text x="15" y="70" fill="#94a3b8" font-family="system-ui" font-size="9">Most popular</text>
      <rect x="15" y="78" width="60" height="16" rx="3" fill="url(#gold)"/>
      <text x="25" y="89" fill="#1e3a5f" font-family="system-ui" font-size="8">Book</text>
    </g>
    <g transform="translate(330, 260)">
      <rect width="145" height="100" rx="6" fill="#ffffff" stroke="#e5e7eb" stroke-width="1"/>
      <text x="15" y="25" fill="#1e3a5f" font-family="system-ui" font-size="11" font-weight="600">Twice Weekly</text>
      <text x="15" y="50" fill="#e07a5f" font-family="Georgia, serif" font-size="22" font-weight="bold">$22</text>
      <text x="60" y="50" fill="#6b7280" font-family="system-ui" font-size="10">/class</text>
      <text x="15" y="70" fill="#6b7280" font-family="system-ui" font-size="9">Better value</text>
      <rect x="15" y="78" width="60" height="16" rx="3" fill="url(#coral)"/>
      <text x="25" y="89" fill="#ffffff" font-family="system-ui" font-size="8">Book</text>
    </g>
    <g transform="translate(485, 260)">
      <rect width="145" height="100" rx="6" fill="#ffffff" stroke="#e5e7eb" stroke-width="1"/>
      <text x="15" y="25" fill="#1e3a5f" font-family="system-ui" font-size="11" font-weight="600">Intensive</text>
      <text x="15" y="50" fill="#e07a5f" font-family="Georgia, serif" font-size="22" font-weight="bold">$20</text>
      <text x="55" y="50" fill="#6b7280" font-family="system-ui" font-size="10">/class</text>
      <text x="15" y="70" fill="#6b7280" font-family="system-ui" font-size="9">Best value</text>
      <rect x="15" y="78" width="60" height="16" rx="3" fill="url(#coral)"/>
      <text x="25" y="89" fill="#ffffff" font-family="system-ui" font-size="8">Book</text>
    </g>

    <!-- Word of the day hint -->
    <g transform="translate(20, 375)">
      <rect width="200" height="30" rx="4" fill="#f8f5f2"/>
      <text x="10" y="20" fill="#6b7280" font-family="system-ui" font-size="9">Word of the Day:</text>
      <text x="95" y="20" fill="#1e3a5f" font-family="Georgia, serif" font-size="10" font-weight="bold">Aprender</text>
      <text x="150" y="20" fill="#e07a5f" font-family="system-ui" font-size="9">(to learn)</text>
    </g>
  </g>

  <!-- Student Dashboard mockup -->
  <g transform="translate(780, 120)">
    <rect x="0" y="0" width="340" height="380" rx="8" fill="#1f2937" stroke="#374151" stroke-width="2"/>

    <!-- Title bar -->
    <rect x="0" y="0" width="340" height="30" rx="8" fill="#374151"/>
    <rect x="0" y="20" width="340" height="10" fill="#374151"/>
    <circle cx="15" cy="15" r="5" fill="#ef4444"/>
    <circle cx="32" cy="15" r="5" fill="#fbbf24"/>
    <circle cx="49" cy="15" r="5" fill="#22c55e"/>
    <text x="170" y="19" text-anchor="middle" fill="#9ca3af" font-family="system-ui" font-size="10">Student Portal</text>

    <!-- Dashboard content -->
    <rect x="0" y="30" width="340" height="350" fill="#111827"/>

    <!-- Sidebar -->
    <rect x="0" y="30" width="70" height="350" fill="#1f2937"/>
    <g fill="#9ca3af" font-family="system-ui" font-size="8">
      <rect x="8" y="45" width="54" height="18" rx="3" fill="#e07a5f"/>
      <text x="15" y="57" fill="#ffffff">Dashboard</text>
      <text x="15" y="80">Schedule</text>
      <text x="15" y="100">Rewards</text>
      <text x="15" y="120">Progress</text>
      <text x="15" y="140">Resources</text>
    </g>

    <!-- Dashboard content -->
    <g transform="translate(80, 45)">
      <text fill="#ffffff" font-family="system-ui" font-size="12" font-weight="600">Welcome back, Sarah!</text>

      <!-- Next class card -->
      <g transform="translate(0, 25)">
        <rect width="240" height="65" rx="4" fill="#1f2937"/>
        <text x="10" y="18" fill="#9ca3af" font-family="system-ui" font-size="9">NEXT CLASS</text>
        <text x="10" y="38" fill="#ffffff" font-family="system-ui" font-size="12" font-weight="600">Tomorrow at 3:00 PM</text>
        <text x="10" y="55" fill="#e07a5f" font-family="system-ui" font-size="10">Conversational Practice</text>
        <rect x="180" y="35" width="50" height="20" rx="3" fill="#22c55e"/>
        <text x="190" y="49" fill="#ffffff" font-family="system-ui" font-size="9">Join</text>
      </g>

      <!-- Rewards progress -->
      <g transform="translate(0, 105)">
        <rect width="240" height="80" rx="4" fill="#1f2937"/>
        <text x="10" y="18" fill="#9ca3af" font-family="system-ui" font-size="9">REWARDS PROGRESS</text>
        <text x="10" y="40" fill="#d4a574" font-family="system-ui" font-size="18" font-weight="bold">275</text>
        <text x="55" y="40" fill="#6b7280" font-family="system-ui" font-size="10">points</text>
        <!-- Progress bar -->
        <rect x="10" y="50" width="220" height="8" rx="4" fill="#374151"/>
        <rect x="10" y="50" width="165" height="8" rx="4" fill="url(#gold)"/>
        <text x="10" y="70" fill="#6b7280" font-family="system-ui" font-size="9">75 more to free class!</text>
      </g>

      <!-- Badges -->
      <g transform="translate(0, 200)">
        <text fill="#9ca3af" font-family="system-ui" font-size="9">BADGES EARNED</text>
        <g transform="translate(0, 15)">
          <circle cx="20" cy="20" r="18" fill="#d4a574"/>
          <text x="20" y="25" text-anchor="middle" fill="#1e3a5f" font-size="16">7</text>
        </g>
        <g transform="translate(50, 15)">
          <circle cx="20" cy="20" r="18" fill="#e07a5f"/>
          <text x="20" y="25" text-anchor="middle" fill="#ffffff" font-size="14">🎯</text>
        </g>
        <g transform="translate(100, 15)">
          <circle cx="20" cy="20" r="18" fill="#22c55e"/>
          <text x="20" y="25" text-anchor="middle" fill="#ffffff" font-size="14">🔥</text>
        </g>
        <g transform="translate(150, 15)">
          <circle cx="20" cy="20" r="18" fill="#374151" stroke="#4a6a8f" stroke-width="2" stroke-dasharray="4,2"/>
          <text x="20" y="25" text-anchor="middle" fill="#6b7280" font-size="14">?</text>
        </g>
      </g>

      <!-- Recent activity -->
      <g transform="translate(0, 265)">
        <text fill="#9ca3af" font-family="system-ui" font-size="9">RECENT ACTIVITY</text>
        <g transform="translate(0, 15)">
          <rect width="240" height="25" rx="3" fill="#1f2937"/>
          <text x="10" y="17" fill="#22c55e" font-family="system-ui" font-size="9">+15 pts</text>
          <text x="55" y="17" fill="#9ca3af" font-family="system-ui" font-size="9">Completed vocabulary quiz</text>
        </g>
        <g transform="translate(0, 45)">
          <rect width="240" height="25" rx="3" fill="#1f2937"/>
          <text x="10" y="17" fill="#22c55e" font-family="system-ui" font-size="9">+25 pts</text>
          <text x="55" y="17" fill="#9ca3af" font-family="system-ui" font-size="9">Attended class session</text>
        </g>
      </g>
    </g>
  </g>

  <!-- Connection arrow -->
  <g>
    <path d="M750 290 Q765 290 770 270 Q775 250 790 250" stroke="#e07a5f" stroke-width="2" fill="none" stroke-dasharray="6,4"/>
  </g>

  <!-- Tech stack badges -->
  <g transform="translate(100, 520)">
    <rect width="90" height="28" rx="4" fill="#1f2937" stroke="#374151" stroke-width="1"/>
    <text x="45" y="18" text-anchor="middle" fill="#60a5fa" font-family="system-ui" font-size="11">.NET 9</text>
  </g>
  <g transform="translate(200, 520)">
    <rect width="90" height="28" rx="4" fill="#1f2937" stroke="#374151" stroke-width="1"/>
    <text x="45" y="18" text-anchor="middle" fill="#f472b6" font-family="system-ui" font-size="11">EF Core</text>
  </g>
  <g transform="translate(300, 520)">
    <rect width="90" height="28" rx="4" fill="#1f2937" stroke="#374151" stroke-width="1"/>
    <text x="45" y="18" text-anchor="middle" fill="#a78bfa" font-family="system-ui" font-size="11">Stripe</text>
  </g>
  <g transform="translate(400, 520)">
    <rect width="100" height="28" rx="4" fill="#1f2937" stroke="#374151" stroke-width="1"/>
    <text x="50" y="18" text-anchor="middle" fill="#4ade80" font-family="system-ui" font-size="11">Localization</text>
  </g>

  <!-- Text -->
  <text x="600" y="585" text-anchor="middle" fill="#94a3b8" font-family="system-ui, sans-serif" font-size="16">
    Spanish Tutoring Platform • Public Site + Student Portal + Payment Processing + Rewards System
  </text>
</svg>
