<svg viewBox="0 0 800 450" xmlns="http://www.w3.org/2000/svg">
  <rect width="800" height="450" fill="#1a1a2e"/>
  <defs>
    <pattern id="grid12" width="40" height="40" patternUnits="userSpaceOnUse">
      <path d="M 40 0 L 0 0 0 40" fill="none" stroke="#2a2a3e" stroke-width="0.5"/>
    </pattern>
  </defs>
  <rect width="800" height="450" fill="url(#grid12)" opacity="0.3"/>

  <!-- Generator classes -->
  <text x="400" y="30" font-family="'Segoe UI', sans-serif" font-size="12" fill="#6272a4" text-anchor="middle">TYPED CHALLENGE GENERATORS</text>

  <!-- BaseChallengeGenerator -->
  <rect x="250" y="42" width="300" height="46" fill="#282a36" rx="6" stroke="#bd93f9" stroke-width="2"/>
  <text x="400" y="62" font-family="monospace" font-size="11" fill="#bd93f9" text-anchor="middle" font-weight="bold">BaseChallengeGenerator</text>
  <text x="400" y="80" font-family="monospace" font-size="8" fill="#6272a4" text-anchor="middle">Generate(player) + CheckProgress(challenge, battle)</text>

  <!-- Concrete generators -->
  <line x1="300" y1="88" x2="120" y2="110" stroke="#44475a" stroke-width="1"/>
  <line x1="400" y1="88" x2="400" y2="110" stroke="#44475a" stroke-width="1"/>
  <line x1="500" y1="88" x2="680" y2="110" stroke="#44475a" stroke-width="1"/>

  <rect x="40" y="110" width="160" height="56" fill="#282a36" rx="6" stroke="#ff6b6b" stroke-width="1"/>
  <text x="120" y="132" font-family="monospace" font-size="9" fill="#ff6b6b" text-anchor="middle">WinStreakChallenge</text>
  <text x="120" y="148" font-family="monospace" font-size="8" fill="#f8f8f2" text-anchor="middle">Win 3 battles in a row</text>
  <text x="120" y="160" font-family="monospace" font-size="7" fill="#f1fa8c" text-anchor="middle">Weight: 3</text>

  <rect x="240" y="110" width="160" height="56" fill="#282a36" rx="6" stroke="#50fa7b" stroke-width="1"/>
  <text x="320" y="132" font-family="monospace" font-size="9" fill="#50fa7b" text-anchor="middle">UnitTypeChallenge</text>
  <text x="320" y="148" font-family="monospace" font-size="8" fill="#f8f8f2" text-anchor="middle">Win with 2+ mages</text>
  <text x="320" y="160" font-family="monospace" font-size="7" fill="#f1fa8c" text-anchor="middle">Weight: 5</text>

  <rect x="440" y="110" width="160" height="56" fill="#282a36" rx="6" stroke="#8be9fd" stroke-width="1"/>
  <text x="520" y="132" font-family="monospace" font-size="9" fill="#8be9fd" text-anchor="middle">RatingChallenge</text>
  <text x="520" y="148" font-family="monospace" font-size="8" fill="#f8f8f2" text-anchor="middle">Beat someone 100+ above</text>
  <text x="520" y="160" font-family="monospace" font-size="7" fill="#f1fa8c" text-anchor="middle">Weight: 2</text>

  <rect x="620" y="110" width="160" height="56" fill="#282a36" rx="6" stroke="#f1fa8c" stroke-width="1"/>
  <text x="700" y="132" font-family="monospace" font-size="9" fill="#f1fa8c" text-anchor="middle">NoDuplicateChallenge</text>
  <text x="700" y="148" font-family="monospace" font-size="8" fill="#f8f8f2" text-anchor="middle">Win with all unique units</text>
  <text x="700" y="160" font-family="monospace" font-size="7" fill="#f1fa8c" text-anchor="middle">Weight: 4</text>

  <!-- Midnight generation flow -->
  <rect x="60" y="195" width="680" height="36" fill="#282a36" rx="6" stroke="#f1fa8c" stroke-width="1"/>
  <text x="400" y="218" font-family="monospace" font-size="11" fill="#f1fa8c" text-anchor="middle">Midnight UTC → Pick 3 generators (weighted random) → Generate per player</text>

  <!-- Daily challenge cards -->
  <text x="400" y="260" font-family="'Segoe UI', sans-serif" font-size="12" fill="#f8f8f2" text-anchor="middle" font-weight="bold">Today's Challenges for Player #4821</text>

  <rect x="60" y="272" width="200" height="90" fill="#282a36" rx="6" stroke="#ff6b6b" stroke-width="1.5"/>
  <text x="160" y="294" font-family="monospace" font-size="10" fill="#ff6b6b" text-anchor="middle" font-weight="bold">Win Streak</text>
  <text x="160" y="314" font-family="monospace" font-size="9" fill="#f8f8f2" text-anchor="middle">Win 3 battles in a row</text>
  <rect x="80" y="326" width="100" height="8" fill="#44475a" rx="2"/>
  <rect x="80" y="326" width="33" height="8" fill="#ff6b6b" rx="2"/>
  <text x="200" y="334" font-family="monospace" font-size="8" fill="#6272a4">1/3</text>
  <text x="160" y="354" font-family="monospace" font-size="8" fill="#f1fa8c" text-anchor="middle">+50 gold</text>

  <rect x="300" y="272" width="200" height="90" fill="#282a36" rx="6" stroke="#50fa7b" stroke-width="1.5"/>
  <text x="400" y="294" font-family="monospace" font-size="10" fill="#50fa7b" text-anchor="middle" font-weight="bold">Mage Mastery</text>
  <text x="400" y="314" font-family="monospace" font-size="9" fill="#f8f8f2" text-anchor="middle">Win with 2+ mages</text>
  <rect x="320" y="326" width="100" height="8" fill="#44475a" rx="2"/>
  <rect x="320" y="326" width="0" height="8" fill="#50fa7b" rx="2"/>
  <text x="440" y="334" font-family="monospace" font-size="8" fill="#6272a4">0/1</text>
  <text x="400" y="354" font-family="monospace" font-size="8" fill="#f1fa8c" text-anchor="middle">+30 gold</text>

  <rect x="540" y="272" width="200" height="90" fill="#282a36" rx="6" stroke="#8be9fd" stroke-width="1.5"/>
  <text x="640" y="294" font-family="monospace" font-size="10" fill="#8be9fd" text-anchor="middle" font-weight="bold">Giant Slayer</text>
  <text x="640" y="314" font-family="monospace" font-size="9" fill="#f8f8f2" text-anchor="middle">Beat a higher-rated foe</text>
  <rect x="560" y="326" width="100" height="8" fill="#44475a" rx="2"/>
  <rect x="560" y="326" width="100" height="8" fill="#8be9fd" rx="2"/>
  <text x="680" y="334" font-family="monospace" font-size="8" fill="#50fa7b">DONE</text>
  <text x="640" y="354" font-family="monospace" font-size="8" fill="#f1fa8c" text-anchor="middle">+75 gold</text>

  <!-- Title -->
  <text x="400" y="400" font-family="'Segoe UI', Arial, sans-serif" font-size="22" fill="#f8f8f2" text-anchor="middle" font-weight="bold">Daily Challenge Generation</text>
  <text x="400" y="424" font-family="'Segoe UI', Arial, sans-serif" font-size="14" fill="#6272a4" text-anchor="middle">Procedural content from typed C# generators</text>
</svg>