<svg xmlns="http://www.w3.org/2000/svg" viewBox="0 0 800 400">
  <defs>
    <!-- Dark side background gradient -->
    <linearGradient id="dmt_darkBg" x1="0%" y1="0%" x2="50%" y2="100%">
      <stop offset="0%" style="stop-color:#0a0e27"/>
      <stop offset="100%" style="stop-color:#111b3d"/>
    </linearGradient>

    <!-- Light side background gradient -->
    <linearGradient id="dmt_lightBg" x1="50%" y1="0%" x2="100%" y2="100%">
      <stop offset="0%" style="stop-color:#e0f2fe"/>
      <stop offset="100%" style="stop-color:#f0f9ff"/>
    </linearGradient>

    <!-- Moon gradient -->
    <radialGradient id="dmt_moon" cx="40%" cy="35%" r="50%">
      <stop offset="0%" style="stop-color:#fef9c3"/>
      <stop offset="100%" style="stop-color:#fde68a"/>
    </radialGradient>

    <!-- Sun gradient -->
    <radialGradient id="dmt_sun" cx="50%" cy="50%" r="50%">
      <stop offset="0%" style="stop-color:#fcd34d"/>
      <stop offset="80%" style="stop-color:#f59e0b"/>
      <stop offset="100%" style="stop-color:#d97706"/>
    </radialGradient>

    <!-- Sun glow -->
    <radialGradient id="dmt_sunGlow" cx="50%" cy="50%" r="50%">
      <stop offset="0%" style="stop-color:#fbbf24;stop-opacity:0.3"/>
      <stop offset="100%" style="stop-color:#fbbf24;stop-opacity:0"/>
    </radialGradient>

    <!-- Moon glow -->
    <radialGradient id="dmt_moonGlow" cx="50%" cy="50%" r="50%">
      <stop offset="0%" style="stop-color:#fef9c3;stop-opacity:0.2"/>
      <stop offset="100%" style="stop-color:#fef9c3;stop-opacity:0"/>
    </radialGradient>

    <!-- Toggle track gradient -->
    <linearGradient id="dmt_trackGrad" x1="0%" y1="0%" x2="100%" y2="0%">
      <stop offset="0%" style="stop-color:#1e293b"/>
      <stop offset="50%" style="stop-color:#334155"/>
      <stop offset="100%" style="stop-color:#94a3b8"/>
    </linearGradient>

    <!-- Toggle knob gradient -->
    <radialGradient id="dmt_knob" cx="40%" cy="35%" r="60%">
      <stop offset="0%" style="stop-color:#ffffff"/>
      <stop offset="100%" style="stop-color:#e2e8f0"/>
    </radialGradient>

    <!-- Dark browser header -->
    <linearGradient id="dmt_darkHeader" x1="0%" y1="0%" x2="0%" y2="100%">
      <stop offset="0%" style="stop-color:#1e293b"/>
      <stop offset="100%" style="stop-color:#0f172a"/>
    </linearGradient>

    <!-- Light browser header -->
    <linearGradient id="dmt_lightHeader" x1="0%" y1="0%" x2="0%" y2="100%">
      <stop offset="0%" style="stop-color:#f1f5f9"/>
      <stop offset="100%" style="stop-color:#e2e8f0"/>
    </linearGradient>

    <!-- Glow filter -->
    <filter id="dmt_glow" x="-50%" y="-50%" width="200%" height="200%">
      <feGaussianBlur stdDeviation="4" result="blur"/>
      <feMerge>
        <feMergeNode in="blur"/>
        <feMergeNode in="SourceGraphic"/>
      </feMerge>
    </filter>

    <!-- Shadow filter -->
    <filter id="dmt_shadow" x="-20%" y="-20%" width="140%" height="140%">
      <feDropShadow dx="0" dy="3" stdDeviation="6" flood-opacity="0.25"/>
    </filter>

    <!-- Soft shadow for light side -->
    <filter id="dmt_lightShadow" x="-20%" y="-20%" width="140%" height="140%">
      <feDropShadow dx="0" dy="2" stdDeviation="4" flood-color="#94a3b8" flood-opacity="0.3"/>
    </filter>

    <!-- Star twinkle filter -->
    <filter id="dmt_twinkle" x="-100%" y="-100%" width="300%" height="300%">
      <feGaussianBlur stdDeviation="1.5" result="blur"/>
      <feMerge>
        <feMergeNode in="blur"/>
        <feMergeNode in="SourceGraphic"/>
      </feMerge>
    </filter>

    <!-- Clip for left half (dark) -->
    <clipPath id="dmt_clipLeft">
      <rect x="0" y="0" width="400" height="400"/>
    </clipPath>

    <!-- Clip for right half (light) -->
    <clipPath id="dmt_clipRight">
      <rect x="400" y="0" width="400" height="400"/>
    </clipPath>

    <!-- Tailwind gradient for accents -->
    <linearGradient id="dmt_tailwind" x1="0%" y1="0%" x2="100%" y2="100%">
      <stop offset="0%" style="stop-color:#38bdf8"/>
      <stop offset="100%" style="stop-color:#0ea5e9"/>
    </linearGradient>

    <!-- localStorage gradient for accents -->
    <linearGradient id="dmt_storage" x1="0%" y1="0%" x2="100%" y2="100%">
      <stop offset="0%" style="stop-color:#a78bfa"/>
      <stop offset="100%" style="stop-color:#7c3aed"/>
    </linearGradient>
  </defs>

  <!-- ==================== DARK SIDE (LEFT) ==================== -->
  <g clip-path="url(#dmt_clipLeft)">
    <!-- Dark background -->
    <rect x="0" y="0" width="400" height="400" fill="url(#dmt_darkBg)"/>

    <!-- Subtle grid on dark side -->
    <g stroke="#1e3a5f" stroke-width="0.3" opacity="0.15">
      <line x1="0" y1="80" x2="400" y2="80"/>
      <line x1="0" y1="160" x2="400" y2="160"/>
      <line x1="0" y1="240" x2="400" y2="240"/>
      <line x1="0" y1="320" x2="400" y2="320"/>
      <line x1="100" y1="0" x2="100" y2="400"/>
      <line x1="200" y1="0" x2="200" y2="400"/>
      <line x1="300" y1="0" x2="300" y2="400"/>
    </g>

    <!-- Stars -->
    <g filter="url(#dmt_twinkle)">
      <circle cx="50" cy="40" r="1.5" fill="#fef9c3" opacity="0.9"/>
      <circle cx="120" cy="70" r="1" fill="#e0f2fe" opacity="0.7"/>
      <circle cx="85" cy="120" r="1.5" fill="#fef9c3" opacity="0.6"/>
      <circle cx="200" cy="30" r="1" fill="#e0f2fe" opacity="0.8"/>
      <circle cx="160" cy="90" r="2" fill="#fef9c3" opacity="0.5"/>
      <circle cx="300" cy="50" r="1" fill="#e0f2fe" opacity="0.6"/>
      <circle cx="340" cy="80" r="1.5" fill="#fef9c3" opacity="0.7"/>
      <circle cx="250" cy="60" r="1" fill="#fef9c3" opacity="0.4"/>
      <circle cx="40" cy="160" r="1" fill="#e0f2fe" opacity="0.5"/>
      <circle cx="180" cy="140" r="1.5" fill="#fef9c3" opacity="0.6"/>
      <circle cx="310" cy="120" r="1" fill="#e0f2fe" opacity="0.4"/>
      <circle cx="70" cy="220" r="1" fill="#fef9c3" opacity="0.3"/>
      <circle cx="30" cy="280" r="1.5" fill="#e0f2fe" opacity="0.4"/>
      <circle cx="140" cy="310" r="1" fill="#fef9c3" opacity="0.3"/>
    </g>

    <!-- Pixel star patterns (4-point) -->
    <g fill="#fef9c3" opacity="0.6">
      <g transform="translate(90, 50)">
        <rect x="-1" y="-4" width="2" height="8"/>
        <rect x="-4" y="-1" width="8" height="2"/>
      </g>
      <g transform="translate(270, 40)">
        <rect x="-1" y="-3" width="2" height="6"/>
        <rect x="-3" y="-1" width="6" height="2"/>
      </g>
      <g transform="translate(350, 110)">
        <rect x="-1" y="-3" width="2" height="6"/>
        <rect x="-3" y="-1" width="6" height="2"/>
      </g>
    </g>

    <!-- Moon glow -->
    <circle cx="110" cy="90" r="60" fill="url(#dmt_moonGlow)"/>

    <!-- Moon -->
    <circle cx="110" cy="90" r="30" fill="url(#dmt_moon)" filter="url(#dmt_glow)"/>
    <!-- Moon craters -->
    <circle cx="100" cy="80" r="5" fill="#fde68a" opacity="0.5"/>
    <circle cx="118" cy="95" r="3" fill="#fde68a" opacity="0.4"/>
    <circle cx="105" cy="100" r="4" fill="#fde68a" opacity="0.3"/>

    <!-- ===== DARK BROWSER WINDOW ===== -->
    <g transform="translate(45, 175)" filter="url(#dmt_shadow)">
      <!-- Browser frame -->
      <rect x="0" y="0" width="280" height="180" rx="8" fill="#0f172a" stroke="#334155" stroke-width="1.5"/>
      <!-- Browser header bar -->
      <rect x="0" y="0" width="280" height="28" rx="8" fill="url(#dmt_darkHeader)"/>
      <rect x="0" y="20" width="280" height="8" fill="url(#dmt_darkHeader)"/>

      <!-- Traffic lights -->
      <circle cx="16" cy="14" r="4.5" fill="#ef4444"/>
      <circle cx="30" cy="14" r="4.5" fill="#f59e0b"/>
      <circle cx="44" cy="14" r="4.5" fill="#22c55e"/>

      <!-- URL bar -->
      <rect x="62" y="6" width="155" height="16" rx="4" fill="#1e293b"/>
      <!-- Small lock icon in URL bar -->
      <rect x="68" y="11" width="4" height="4" rx="1" fill="#64748b"/>
      <path d="M69,11 L69,9 Q70,7 71,9 L71,11" fill="none" stroke="#64748b" stroke-width="0.8"/>

      <!-- Dark content area -->
      <rect x="10" y="36" width="260" height="132" rx="4" fill="#1e293b"/>

      <!-- Dark side nav bar -->
      <rect x="15" y="42" width="250" height="10" rx="2" fill="#334155"/>
      <!-- Nav items (small rectangles as placeholder) -->
      <rect x="20" y="44" width="25" height="6" rx="1" fill="#64748b"/>
      <rect x="50" y="44" width="20" height="6" rx="1" fill="#64748b"/>
      <rect x="75" y="44" width="30" height="6" rx="1" fill="#38bdf8" opacity="0.7"/>
      <rect x="110" y="44" width="22" height="6" rx="1" fill="#64748b"/>

      <!-- Dark theme content blocks -->
      <!-- Hero section -->
      <rect x="15" y="58" width="250" height="30" rx="3" fill="#0f172a"/>
      <!-- Headline bar -->
      <rect x="25" y="64" width="120" height="6" rx="1" fill="#e2e8f0" opacity="0.8"/>
      <!-- Sub-headline -->
      <rect x="25" y="74" width="80" height="4" rx="1" fill="#64748b"/>

      <!-- Card row -->
      <rect x="15" y="94" width="78" height="60" rx="3" fill="#0f172a"/>
      <rect x="100" y="94" width="78" height="60" rx="3" fill="#0f172a"/>
      <rect x="185" y="94" width="80" height="60" rx="3" fill="#0f172a"/>

      <!-- Card inner content (image placeholder + text lines) -->
      <!-- Card 1 -->
      <rect x="19" y="98" width="70" height="24" rx="2" fill="#334155"/>
      <rect x="19" y="126" width="50" height="4" rx="1" fill="#94a3b8"/>
      <rect x="19" y="134" width="65" height="3" rx="1" fill="#475569"/>
      <rect x="19" y="140" width="45" height="3" rx="1" fill="#475569"/>

      <!-- Card 2 -->
      <rect x="104" y="98" width="70" height="24" rx="2" fill="#334155"/>
      <rect x="104" y="126" width="55" height="4" rx="1" fill="#94a3b8"/>
      <rect x="104" y="134" width="60" height="3" rx="1" fill="#475569"/>
      <rect x="104" y="140" width="40" height="3" rx="1" fill="#475569"/>

      <!-- Card 3 -->
      <rect x="189" y="98" width="72" height="24" rx="2" fill="#334155"/>
      <rect x="189" y="126" width="48" height="4" rx="1" fill="#94a3b8"/>
      <rect x="189" y="134" width="66" height="3" rx="1" fill="#475569"/>
      <rect x="189" y="140" width="52" height="3" rx="1" fill="#475569"/>

      <!-- Moon/dark icon indicator in corner of browser -->
      <g transform="translate(248, 8)">
        <circle cx="0" cy="6" r="5" fill="#fde68a" opacity="0.8"/>
        <circle cx="2" cy="4" r="4.5" fill="url(#dmt_darkHeader)"/>
      </g>
    </g>

    <!-- "dark:" class indicator as a code badge - using shapes only -->
    <g transform="translate(60, 367)">
      <rect x="0" y="0" width="90" height="22" rx="4" fill="#1e293b" stroke="#38bdf8" stroke-width="1"/>
      <!-- "dark:" prefix represented as small Tailwind-colored blocks -->
      <rect x="5" y="5" width="8" height="3" rx="1" fill="#38bdf8"/>
      <rect x="15" y="5" width="4" height="3" rx="1" fill="#38bdf8"/>
      <rect x="21" y="5" width="6" height="3" rx="1" fill="#38bdf8"/>
      <rect x="29" y="5" width="4" height="3" rx="1" fill="#38bdf8"/>
      <rect x="35" y="5" width="2" height="3" rx="1" fill="#f59e0b"/>
      <!-- bg-neutral-900 as class blocks -->
      <rect x="5" y="12" width="12" height="3" rx="1" fill="#94a3b8"/>
      <rect x="19" y="12" width="18" height="3" rx="1" fill="#64748b"/>
      <rect x="39" y="12" width="10" height="3" rx="1" fill="#64748b"/>
    </g>
  </g>

  <!-- ==================== LIGHT SIDE (RIGHT) ==================== -->
  <g clip-path="url(#dmt_clipRight)">
    <!-- Light background -->
    <rect x="400" y="0" width="400" height="400" fill="url(#dmt_lightBg)"/>

    <!-- Soft decorative dots on light side -->
    <g fill="#bae6fd" opacity="0.3">
      <circle cx="450" cy="60" r="3"/>
      <circle cx="520" cy="40" r="2"/>
      <circle cx="600" cy="70" r="3"/>
      <circle cx="680" cy="50" r="2"/>
      <circle cx="750" cy="80" r="2.5"/>
      <circle cx="470" cy="120" r="2"/>
      <circle cx="560" cy="100" r="2.5"/>
      <circle cx="720" cy="130" r="2"/>
    </g>

    <!-- Sun glow -->
    <circle cx="670" cy="90" r="80" fill="url(#dmt_sunGlow)"/>

    <!-- Sun -->
    <circle cx="670" cy="90" r="32" fill="url(#dmt_sun)" filter="url(#dmt_glow)"/>
    <!-- Sun rays -->
    <g stroke="#f59e0b" stroke-width="2.5" stroke-linecap="round" opacity="0.7">
      <line x1="670" y1="48" x2="670" y2="38"/>
      <line x1="670" y1="132" x2="670" y2="142"/>
      <line x1="628" y1="90" x2="618" y2="90"/>
      <line x1="712" y1="90" x2="722" y2="90"/>
      <line x1="640" y1="60" x2="633" y2="53"/>
      <line x1="700" y1="60" x2="707" y2="53"/>
      <line x1="640" y1="120" x2="633" y2="127"/>
      <line x1="700" y1="120" x2="707" y2="127"/>
    </g>

    <!-- Clouds -->
    <!-- Cloud 1 -->
    <g opacity="0.5">
      <circle cx="500" cy="50" r="14" fill="white"/>
      <circle cx="518" cy="48" r="18" fill="white"/>
      <circle cx="538" cy="50" r="12" fill="white"/>
      <rect x="498" y="50" width="42" height="12" rx="2" fill="white"/>
    </g>
    <!-- Cloud 2 -->
    <g opacity="0.35">
      <circle cx="730" cy="140" r="10" fill="white"/>
      <circle cx="745" cy="138" r="14" fill="white"/>
      <circle cx="760" cy="140" r="9" fill="white"/>
      <rect x="728" y="140" width="34" height="9" rx="2" fill="white"/>
    </g>

    <!-- ===== LIGHT BROWSER WINDOW ===== -->
    <g transform="translate(458, 175)" filter="url(#dmt_lightShadow)">
      <!-- Browser frame -->
      <rect x="0" y="0" width="280" height="180" rx="8" fill="#ffffff" stroke="#cbd5e1" stroke-width="1.5"/>
      <!-- Browser header bar -->
      <rect x="0" y="0" width="280" height="28" rx="8" fill="url(#dmt_lightHeader)"/>
      <rect x="0" y="20" width="280" height="8" fill="url(#dmt_lightHeader)"/>

      <!-- Traffic lights -->
      <circle cx="16" cy="14" r="4.5" fill="#ef4444"/>
      <circle cx="30" cy="14" r="4.5" fill="#f59e0b"/>
      <circle cx="44" cy="14" r="4.5" fill="#22c55e"/>

      <!-- URL bar -->
      <rect x="62" y="6" width="155" height="16" rx="4" fill="#ffffff" stroke="#e2e8f0" stroke-width="0.8"/>
      <!-- Small lock icon in URL bar -->
      <rect x="68" y="11" width="4" height="4" rx="1" fill="#94a3b8"/>
      <path d="M69,11 L69,9 Q70,7 71,9 L71,11" fill="none" stroke="#94a3b8" stroke-width="0.8"/>

      <!-- Light content area -->
      <rect x="10" y="36" width="260" height="132" rx="4" fill="#f8fafc"/>

      <!-- Light side nav bar -->
      <rect x="15" y="42" width="250" height="10" rx="2" fill="#e2e8f0"/>
      <!-- Nav items -->
      <rect x="20" y="44" width="25" height="6" rx="1" fill="#94a3b8"/>
      <rect x="50" y="44" width="20" height="6" rx="1" fill="#94a3b8"/>
      <rect x="75" y="44" width="30" height="6" rx="1" fill="#0ea5e9" opacity="0.7"/>
      <rect x="110" y="44" width="22" height="6" rx="1" fill="#94a3b8"/>

      <!-- Light theme content blocks -->
      <!-- Hero section -->
      <rect x="15" y="58" width="250" height="30" rx="3" fill="#ffffff"/>
      <!-- Headline bar -->
      <rect x="25" y="64" width="120" height="6" rx="1" fill="#1e293b" opacity="0.8"/>
      <!-- Sub-headline -->
      <rect x="25" y="74" width="80" height="4" rx="1" fill="#94a3b8"/>

      <!-- Card row -->
      <rect x="15" y="94" width="78" height="60" rx="3" fill="#ffffff" stroke="#e2e8f0" stroke-width="0.5"/>
      <rect x="100" y="94" width="78" height="60" rx="3" fill="#ffffff" stroke="#e2e8f0" stroke-width="0.5"/>
      <rect x="185" y="94" width="80" height="60" rx="3" fill="#ffffff" stroke="#e2e8f0" stroke-width="0.5"/>

      <!-- Card inner content -->
      <!-- Card 1 -->
      <rect x="19" y="98" width="70" height="24" rx="2" fill="#e0f2fe"/>
      <rect x="19" y="126" width="50" height="4" rx="1" fill="#1e293b" opacity="0.7"/>
      <rect x="19" y="134" width="65" height="3" rx="1" fill="#94a3b8"/>
      <rect x="19" y="140" width="45" height="3" rx="1" fill="#94a3b8"/>

      <!-- Card 2 -->
      <rect x="104" y="98" width="70" height="24" rx="2" fill="#e0f2fe"/>
      <rect x="104" y="126" width="55" height="4" rx="1" fill="#1e293b" opacity="0.7"/>
      <rect x="104" y="134" width="60" height="3" rx="1" fill="#94a3b8"/>
      <rect x="104" y="140" width="40" height="3" rx="1" fill="#94a3b8"/>

      <!-- Card 3 -->
      <rect x="189" y="98" width="72" height="24" rx="2" fill="#e0f2fe"/>
      <rect x="189" y="126" width="48" height="4" rx="1" fill="#1e293b" opacity="0.7"/>
      <rect x="189" y="134" width="66" height="3" rx="1" fill="#94a3b8"/>
      <rect x="189" y="140" width="52" height="3" rx="1" fill="#94a3b8"/>

      <!-- Sun/light icon indicator in corner of browser -->
      <g transform="translate(248, 8)">
        <circle cx="0" cy="6" r="5" fill="#f59e0b" opacity="0.8"/>
        <!-- Tiny rays -->
        <g stroke="#f59e0b" stroke-width="1" stroke-linecap="round" opacity="0.6">
          <line x1="0" y1="-1" x2="0" y2="-3"/>
          <line x1="0" y1="13" x2="0" y2="15"/>
          <line x1="-7" y1="6" x2="-9" y2="6"/>
          <line x1="7" y1="6" x2="9" y2="6"/>
        </g>
      </g>
    </g>

    <!-- "bg-white" class indicator as a code badge -->
    <g transform="translate(640, 367)">
      <rect x="0" y="0" width="90" height="22" rx="4" fill="#ffffff" stroke="#0ea5e9" stroke-width="1"/>
      <!-- "bg-white" represented as small blocks -->
      <rect x="5" y="5" width="6" height="3" rx="1" fill="#0ea5e9"/>
      <rect x="13" y="5" width="3" height="3" rx="1" fill="#0ea5e9"/>
      <rect x="18" y="5" width="10" height="3" rx="1" fill="#0ea5e9"/>
      <!-- text-slate-900 as class blocks -->
      <rect x="5" y="12" width="8" height="3" rx="1" fill="#64748b"/>
      <rect x="15" y="12" width="20" height="3" rx="1" fill="#475569"/>
      <rect x="37" y="12" width="10" height="3" rx="1" fill="#475569"/>
    </g>
  </g>

  <!-- ==================== CENTER DIVIDER ==================== -->
  <!-- Gradient transition strip in the center -->
  <defs>
    <linearGradient id="dmt_divider" x1="0%" y1="0%" x2="100%" y2="0%">
      <stop offset="0%" style="stop-color:#111b3d;stop-opacity:0.8"/>
      <stop offset="50%" style="stop-color:#334155;stop-opacity:0.6"/>
      <stop offset="100%" style="stop-color:#e0f2fe;stop-opacity:0.8"/>
    </linearGradient>
  </defs>
  <rect x="395" y="0" width="10" height="400" fill="url(#dmt_divider)" opacity="0.5"/>

  <!-- ==================== TOGGLE SWITCH (center) ==================== -->
  <g transform="translate(400, 200)">
    <!-- Toggle outer glow -->
    <ellipse cx="0" cy="0" rx="60" ry="30" fill="#334155" opacity="0.3" filter="url(#dmt_glow)"/>

    <!-- Toggle track -->
    <rect x="-42" y="-18" width="84" height="36" rx="18" fill="url(#dmt_trackGrad)" stroke="#475569" stroke-width="2"/>

    <!-- Track inner shadow -->
    <rect x="-39" y="-15" width="78" height="30" rx="15" fill="#0f172a" opacity="0.3"/>

    <!-- Left side icon in track (moon crescent) -->
    <g transform="translate(-22, 0)">
      <circle cx="0" cy="0" r="7" fill="#fde68a" opacity="0.7"/>
      <circle cx="3" cy="-2" r="6" fill="#334155"/>
    </g>

    <!-- Right side icon in track (sun) -->
    <g transform="translate(22, 0)">
      <circle cx="0" cy="0" r="6" fill="#f59e0b" opacity="0.7"/>
      <g stroke="#f59e0b" stroke-width="1" stroke-linecap="round" opacity="0.5">
        <line x1="0" y1="-9" x2="0" y2="-11"/>
        <line x1="0" y1="9" x2="0" y2="11"/>
        <line x1="-9" y1="0" x2="-11" y2="0"/>
        <line x1="9" y1="0" x2="11" y2="0"/>
      </g>
    </g>

    <!-- Toggle knob (positioned slightly toward the dark side, suggesting transition) -->
    <circle cx="-5" cy="0" r="14" fill="url(#dmt_knob)" stroke="#cbd5e1" stroke-width="1.5" filter="url(#dmt_shadow)"/>
    <!-- Knob inner detail (small circle) -->
    <circle cx="-5" cy="0" r="3" fill="none" stroke="#cbd5e1" stroke-width="1" opacity="0.5"/>

    <!-- Motion lines suggesting the toggle can slide -->
    <g stroke="#64748b" stroke-width="0.8" stroke-linecap="round" opacity="0.4">
      <line x1="14" y1="-4" x2="18" y2="-4"/>
      <line x1="14" y1="0" x2="20" y2="0"/>
      <line x1="14" y1="4" x2="18" y2="4"/>
    </g>
  </g>

  <!-- ==================== TAILWIND LOGO / BADGE (top center) ==================== -->
  <g transform="translate(400, 30)">
    <!-- Tailwind-colored pill badge -->
    <rect x="-55" y="-14" width="110" height="28" rx="14" fill="url(#dmt_tailwind)" opacity="0.9"/>
    <!-- Tailwind wave shape inside -->
    <path d="M-30,0 Q-22,-8 -14,0 Q-6,8 2,0 Q10,-8 18,0 Q26,8 34,0" fill="none" stroke="white" stroke-width="2" stroke-linecap="round" opacity="0.8"/>
  </g>

  <!-- ==================== localStorage ICON (bottom center) ==================== -->
  <g transform="translate(400, 380)">
    <!-- Storage pill badge -->
    <rect x="-50" y="-12" width="100" height="24" rx="12" fill="url(#dmt_storage)" opacity="0.8"/>
    <!-- Storage/database icon inside (simple layered rectangles) -->
    <ellipse cx="-15" cy="-2" rx="8" ry="3" fill="white" opacity="0.6"/>
    <rect x="-23" y="-2" width="16" height="8" rx="0" fill="white" opacity="0.4"/>
    <ellipse cx="-15" cy="6" rx="8" ry="3" fill="white" opacity="0.5"/>
    <!-- Key icon -->
    <circle cx="10" cy="0" r="5" fill="none" stroke="white" stroke-width="1.5" opacity="0.7"/>
    <rect x="14" y="-1" width="12" height="2" rx="1" fill="white" opacity="0.7"/>
    <rect x="22" y="-1" width="2" height="5" rx="0.5" fill="white" opacity="0.7"/>
    <rect x="18" y="-1" width="2" height="4" rx="0.5" fill="white" opacity="0.7"/>
  </g>

  <!-- ==================== CONNECTING ARROWS (toggle to browsers) ==================== -->
  <!-- Arrow from toggle to dark browser -->
  <g opacity="0.3">
    <path d="M360,200 Q320,200 325,210" fill="none" stroke="#94a3b8" stroke-width="1.5" stroke-dasharray="4,3"/>
  </g>
  <!-- Arrow from toggle to light browser -->
  <g opacity="0.3">
    <path d="M440,200 Q480,200 478,210" fill="none" stroke="#94a3b8" stroke-width="1.5" stroke-dasharray="4,3"/>
  </g>

  <!-- ==================== DECORATIVE CODE SNIPPETS (as abstract blocks) ==================== -->

  <!-- html.dark indicator on dark side -->
  <g transform="translate(25, 367)">
    <!-- Angle bracket < -->
    <polygon points="0,5 6,0 6,3 3,5 6,7 6,10" fill="#38bdf8" opacity="0.6"/>
    <!-- "html" tag blocks -->
    <rect x="8" y="3" width="4" height="4" rx="0.5" fill="#f8fafc" opacity="0.5"/>
    <rect x="14" y="3" width="4" height="4" rx="0.5" fill="#f8fafc" opacity="0.5"/>
    <rect x="20" y="3" width="4" height="4" rx="0.5" fill="#f8fafc" opacity="0.5"/>
  </g>

  <!-- html (no dark) indicator on light side -->
  <g transform="translate(755, 367)">
    <!-- Angle bracket < -->
    <polygon points="0,5 6,0 6,3 3,5 6,7 6,10" fill="#0ea5e9" opacity="0.6"/>
    <!-- "html" tag blocks -->
    <rect x="8" y="3" width="4" height="4" rx="0.5" fill="#334155" opacity="0.5"/>
    <rect x="14" y="3" width="4" height="4" rx="0.5" fill="#334155" opacity="0.5"/>
    <rect x="20" y="3" width="4" height="4" rx="0.5" fill="#334155" opacity="0.5"/>
  </g>

  <!-- Vignette overlay -->
  <defs>
    <radialGradient id="dmt_vignette" cx="50%" cy="50%" r="65%">
      <stop offset="0%" style="stop-color:transparent;stop-opacity:0"/>
      <stop offset="100%" style="stop-color:#050816;stop-opacity:0.35"/>
    </radialGradient>
  </defs>
  <rect width="800" height="400" fill="url(#dmt_vignette)"/>
</svg>