<svg xmlns="http://www.w3.org/2000/svg" viewBox="0 0 1200 630">
  <defs>
    <linearGradient id="bg" x1="0%" y1="0%" x2="100%" y2="100%">
      <stop offset="0%" style="stop-color:#0f172a"/>
      <stop offset="50%" style="stop-color:#1e293b"/>
      <stop offset="100%" style="stop-color:#0f172a"/>
    </linearGradient>
    <linearGradient id="card-bg" x1="0%" y1="0%" x2="0%" y2="100%">
      <stop offset="0%" style="stop-color:#1f2937"/>
      <stop offset="100%" style="stop-color:#111827"/>
    </linearGradient>
    <linearGradient id="cookie-grad" x1="0%" y1="0%" x2="100%" y2="100%">
      <stop offset="0%" style="stop-color:#d97706"/>
      <stop offset="100%" style="stop-color:#b45309"/>
    </linearGradient>
    <linearGradient id="globe-grad" x1="0%" y1="0%" x2="100%" y2="100%">
      <stop offset="0%" style="stop-color:#3b82f6"/>
      <stop offset="50%" style="stop-color:#2563eb"/>
      <stop offset="100%" style="stop-color:#1d4ed8"/>
    </linearGradient>
    <linearGradient id="success-grad" x1="0%" y1="0%" x2="100%" y2="100%">
      <stop offset="0%" style="stop-color:#22c55e"/>
      <stop offset="100%" style="stop-color:#16a34a"/>
    </linearGradient>
  </defs>

  <!-- Background -->
  <rect width="1200" height="630" fill="url(#bg)"/>

  <!-- Subtle grid -->
  <g stroke="#334155" stroke-width="0.5" opacity="0.3">
    <line x1="0" y1="157" x2="1200" y2="157"/>
    <line x1="0" y1="315" x2="1200" y2="315"/>
    <line x1="0" y1="473" x2="1200" y2="473"/>
    <line x1="300" y1="0" x2="300" y2="630"/>
    <line x1="600" y1="0" x2="600" y2="630"/>
    <line x1="900" y1="0" x2="900" y2="630"/>
  </g>

  <!-- Left: Globe with language options -->
  <g transform="translate(200, 200)">
    <!-- Globe -->
    <circle cx="0" cy="0" r="90" fill="url(#globe-grad)" opacity="0.9"/>
    <!-- Globe lines -->
    <ellipse cx="0" cy="0" rx="90" ry="35" fill="none" stroke="#60a5fa" stroke-width="1.5" opacity="0.5"/>
    <ellipse cx="0" cy="0" rx="35" ry="90" fill="none" stroke="#60a5fa" stroke-width="1.5" opacity="0.5"/>
    <line x1="-90" y1="0" x2="90" y2="0" stroke="#60a5fa" stroke-width="1.5" opacity="0.5"/>
    <line x1="0" y1="-90" x2="0" y2="90" stroke="#60a5fa" stroke-width="1.5" opacity="0.5"/>

    <!-- Language flags orbiting -->
    <g transform="translate(110, -50)">
      <rect x="-22" y="-15" width="44" height="30" rx="4" fill="#1f2937" stroke="#374151" stroke-width="1.5"/>
      <text x="0" y="6" text-anchor="middle" font-size="18">🇺🇸</text>
    </g>
    <g transform="translate(110, 50)">
      <rect x="-22" y="-15" width="44" height="30" rx="4" fill="#1f2937" stroke="#22c55e" stroke-width="2"/>
      <text x="0" y="6" text-anchor="middle" font-size="18">🇪🇸</text>
    </g>
    <g transform="translate(-110, 0)">
      <rect x="-22" y="-15" width="44" height="30" rx="4" fill="#1f2937" stroke="#374151" stroke-width="1.5"/>
      <text x="0" y="6" text-anchor="middle" font-size="18">🇫🇷</text>
    </g>

    <!-- Selected indicator -->
    <text x="135" y="55" fill="#22c55e" font-family="sans-serif" font-size="10" font-weight="bold">SELECTED</text>
  </g>

  <!-- Center: The flow diagram -->
  <g transform="translate(420, 120)">
    <!-- Step 1: User clicks -->
    <rect x="0" y="0" width="160" height="70" rx="8" fill="url(#card-bg)" stroke="#374151" stroke-width="2"/>
    <text x="80" y="25" text-anchor="middle" fill="#60a5fa" font-family="sans-serif" font-size="11" font-weight="bold">1. USER CLICKS</text>
    <text x="80" y="50" text-anchor="middle" fill="#e2e8f0" font-family="sans-serif" font-size="20">🇪🇸 Español</text>

    <!-- Arrow down -->
    <line x1="80" y1="75" x2="80" y2="105" stroke="#22c55e" stroke-width="2"/>
    <polygon points="72,100 80,115 88,100" fill="#22c55e"/>

    <!-- Step 2: Cookie set -->
    <rect x="0" y="120" width="160" height="70" rx="8" fill="url(#card-bg)" stroke="#374151" stroke-width="2"/>
    <text x="80" y="145" text-anchor="middle" fill="#d97706" font-family="sans-serif" font-size="11" font-weight="bold">2. COOKIE SET</text>
    <text x="80" y="168" text-anchor="middle" fill="#fbbf24" font-family="monospace" font-size="10">c=es-ES|uic=es-ES</text>

    <!-- Cookie icon -->
    <g transform="translate(130, 150)">
      <circle cx="0" cy="0" r="12" fill="url(#cookie-grad)"/>
      <circle cx="-4" cy="-3" r="2" fill="#92400e"/>
      <circle cx="3" cy="2" r="2" fill="#92400e"/>
      <circle cx="-2" cy="5" r="1.5" fill="#92400e"/>
    </g>

    <!-- Arrow down -->
    <line x1="80" y1="195" x2="80" y2="225" stroke="#22c55e" stroke-width="2"/>
    <polygon points="72,220 80,235 88,220" fill="#22c55e"/>

    <!-- Step 3: Redirect -->
    <rect x="0" y="240" width="160" height="70" rx="8" fill="url(#card-bg)" stroke="#374151" stroke-width="2"/>
    <text x="80" y="265" text-anchor="middle" fill="#c084fc" font-family="sans-serif" font-size="11" font-weight="bold">3. REDIRECT</text>
    <text x="80" y="288" text-anchor="middle" fill="#e2e8f0" font-family="monospace" font-size="10">LocalRedirect(url)</text>

    <!-- Arrow down -->
    <line x1="80" y1="315" x2="80" y2="345" stroke="#22c55e" stroke-width="2"/>
    <polygon points="72,340 80,355 88,340" fill="#22c55e"/>

    <!-- Step 4: Page loads in Spanish -->
    <rect x="0" y="360" width="160" height="70" rx="8" fill="url(#card-bg)" stroke="#22c55e" stroke-width="2"/>
    <text x="80" y="385" text-anchor="middle" fill="#22c55e" font-family="sans-serif" font-size="11" font-weight="bold">4. PAGE LOADS</text>
    <text x="80" y="410" text-anchor="middle" fill="#e2e8f0" font-family="sans-serif" font-size="14">¡Bienvenido!</text>
  </g>

  <!-- Right: Browser with language dropdown -->
  <g transform="translate(700, 130)">
    <!-- Browser window -->
    <rect x="0" y="0" width="360" height="340" rx="8" fill="url(#card-bg)" stroke="#374151" stroke-width="2"/>
    <rect x="0" y="0" width="360" height="40" rx="8" fill="#374151"/>
    <rect x="0" y="32" width="360" height="8" fill="#374151"/>

    <!-- Browser controls -->
    <circle cx="20" cy="20" r="7" fill="#ef4444"/>
    <circle cx="44" cy="20" r="7" fill="#f59e0b"/>
    <circle cx="68" cy="20" r="7" fill="#22c55e"/>

    <!-- URL bar -->
    <rect x="95" y="10" width="200" height="20" rx="4" fill="#1f2937"/>
    <text x="105" y="24" fill="#6b7280" font-family="monospace" font-size="10">myapp.com/home</text>

    <!-- Navigation bar -->
    <rect x="10" y="50" width="340" height="35" rx="4" fill="#111827"/>
    <text x="25" y="73" fill="#e2e8f0" font-family="sans-serif" font-size="12" font-weight="bold">MyApp</text>
    <text x="100" y="73" fill="#9ca3af" font-family="sans-serif" font-size="11">Inicio</text>
    <text x="160" y="73" fill="#9ca3af" font-family="sans-serif" font-size="11">Acerca de</text>
    <text x="240" y="73" fill="#9ca3af" font-family="sans-serif" font-size="11">Contacto</text>

    <!-- Language dropdown (open) -->
    <g transform="translate(300, 55)">
      <rect x="0" y="0" width="45" height="25" rx="4" fill="#22c55e"/>
      <text x="22" y="17" text-anchor="middle" fill="white" font-size="12">🇪🇸</text>

      <!-- Dropdown menu -->
      <rect x="-30" y="30" width="75" height="90" rx="4" fill="#1f2937" stroke="#374151"/>
      <g transform="translate(0, 45)">
        <rect x="-25" y="-8" width="65" height="24" rx="2" fill="#374151"/>
        <text x="8" y="8" text-anchor="middle" fill="#e2e8f0" font-size="11">🇺🇸 EN</text>
      </g>
      <g transform="translate(0, 70)">
        <text x="8" y="8" text-anchor="middle" fill="#9ca3af" font-size="11">🇪🇸 ES</text>
        <circle cx="45" cy="5" r="6" fill="#22c55e"/>
        <path d="M42 5 L44 7 L48 3" stroke="white" stroke-width="1.5" fill="none"/>
      </g>
      <g transform="translate(0, 95)">
        <text x="8" y="8" text-anchor="middle" fill="#9ca3af" font-size="11">🇫🇷 FR</text>
      </g>
    </g>

    <!-- Page content in Spanish -->
    <text x="30" y="130" fill="#e2e8f0" font-family="sans-serif" font-size="24" font-weight="bold">¡Bienvenido!</text>
    <text x="30" y="160" fill="#9ca3af" font-family="sans-serif" font-size="13">Esta es nuestra página de inicio.</text>

    <rect x="30" y="180" width="300" height="80" rx="4" fill="#111827" stroke="#374151"/>
    <text x="45" y="210" fill="#9ca3af" font-family="sans-serif" font-size="11">Último artículo:</text>
    <text x="45" y="235" fill="#60a5fa" font-family="sans-serif" font-size="13">Guía de localización en .NET</text>

    <!-- Cookie indicator -->
    <g transform="translate(30, 290)">
      <rect x="0" y="0" width="140" height="30" rx="4" fill="#1f2937" stroke="#d97706" stroke-width="1.5"/>
      <circle cx="20" cy="15" r="10" fill="url(#cookie-grad)"/>
      <circle cx="17" cy="13" r="2" fill="#92400e"/>
      <circle cx="23" cy="17" r="1.5" fill="#92400e"/>
      <text x="40" y="20" fill="#fbbf24" font-family="monospace" font-size="9">es-ES saved</text>
    </g>

    <!-- Sticky badge -->
    <g transform="translate(190, 290)">
      <rect x="0" y="0" width="80" height="30" rx="4" fill="url(#success-grad)"/>
      <text x="40" y="20" text-anchor="middle" fill="white" font-family="sans-serif" font-size="11" font-weight="bold">✓ Sticky!</text>
    </g>
  </g>

  <!-- Title -->
  <text x="600" y="540" text-anchor="middle" fill="#e2e8f0" font-family="sans-serif" font-size="28" font-weight="bold">Building a Language Switcher That Remembers</text>
  <text x="600" y="575" text-anchor="middle" fill="#9ca3af" font-family="sans-serif" font-size="16">.NET Localization Part 2: Cookies, Dropdowns, and Persistence</text>
</svg>
