<svg xmlns="http://www.w3.org/2000/svg" viewBox="0 0 800 450">
  <defs>
    <linearGradient id="bgGrad" x1="0%" y1="0%" x2="100%" y2="100%">
      <stop offset="0%" style="stop-color:#1a1a2e"/>
      <stop offset="100%" style="stop-color:#16213e"/>
    </linearGradient>
    <filter id="eli5_shadow" x="-10%" y="-10%" width="130%" height="130%">
      <feDropShadow dx="2" dy="2" stdDeviation="3" flood-color="#000" flood-opacity="0.3"/>
    </filter>
  </defs>

  <!-- Background -->
  <rect width="800" height="450" fill="url(#bgGrad)"/>

  <!-- Title -->
  <text x="400" y="40" font-family="Arial, sans-serif" font-size="22" fill="#fff" text-anchor="middle" font-weight="bold">
    How Google Finds Websites
  </text>
  <text x="400" y="62" font-family="Arial, sans-serif" font-size="14" fill="#94a3b8" text-anchor="middle">
    Search Engines Explained
  </text>

  <!-- Step 1: Crawling -->
  <g transform="translate(50, 85)">
    <rect x="0" y="0" width="210" height="200" rx="12" fill="#2a2a4a" stroke="#8b5cf6" stroke-width="2"/>
    <text x="105" y="28" font-family="Arial, sans-serif" font-size="14" fill="#8b5cf6" text-anchor="middle" font-weight="bold">1. Crawling</text>

    <!-- Spider -->
    <g transform="translate(105, 80)">
      <ellipse cx="0" cy="0" rx="14" ry="10" fill="#8b5cf6"/>
      <circle cx="0" cy="-10" r="9" fill="#8b5cf6"/>
      <circle cx="-4" cy="-12" r="2.5" fill="#fff"/>
      <circle cx="4" cy="-12" r="2.5" fill="#fff"/>
      <circle cx="-4" cy="-12" r="1.2" fill="#1a1a2e"/>
      <circle cx="4" cy="-12" r="1.2" fill="#1a1a2e"/>
      <g stroke="#8b5cf6" stroke-width="2" fill="none" stroke-linecap="round">
        <path d="M-11,-5 L-28,-18"/>
        <path d="M-13,0 L-30,5"/>
        <path d="M-11,5 L-26,18"/>
        <path d="M11,-5 L28,-18"/>
        <path d="M13,0 L30,5"/>
        <path d="M11,5 L26,18"/>
      </g>
    </g>

    <!-- Web pages connected by links -->
    <g transform="translate(20, 120)">
      <rect x="0" y="0" width="40" height="28" rx="3" fill="#1e293b" stroke="#4a4a6a"/>
      <line x1="6" y1="8" x2="34" y2="8" stroke="#4a4a6a" stroke-width="1"/>
      <line x1="6" y1="14" x2="28" y2="14" stroke="#4a4a6a" stroke-width="1"/>
      <line x1="6" y1="20" x2="22" y2="20" stroke="#4a4a6a" stroke-width="1"/>

      <rect x="70" y="-10" width="40" height="28" rx="3" fill="#1e293b" stroke="#4a4a6a"/>
      <line x1="76" y1="-2" x2="104" y2="-2" stroke="#4a4a6a" stroke-width="1"/>
      <line x1="76" y1="4" x2="98" y2="4" stroke="#4a4a6a" stroke-width="1"/>
      <line x1="76" y1="10" x2="92" y2="10" stroke="#4a4a6a" stroke-width="1"/>

      <rect x="130" y="8" width="40" height="28" rx="3" fill="#1e293b" stroke="#4a4a6a"/>
      <line x1="136" y1="16" x2="164" y2="16" stroke="#4a4a6a" stroke-width="1"/>
      <line x1="136" y1="22" x2="158" y2="22" stroke="#4a4a6a" stroke-width="1"/>
      <line x1="136" y1="28" x2="152" y2="28" stroke="#4a4a6a" stroke-width="1"/>

      <!-- Links between pages -->
      <path d="M40,10 L70,2" stroke="#8b5cf6" stroke-width="1.5" stroke-dasharray="3,2"/>
      <polygon points="68,-1 66,5 72,4" fill="#8b5cf6"/>
      <path d="M110,2 L130,16" stroke="#8b5cf6" stroke-width="1.5" stroke-dasharray="3,2"/>
      <polygon points="128,13 126,19 132,18" fill="#8b5cf6"/>
    </g>

    <text x="105" y="185" font-family="Arial, sans-serif" font-size="10" fill="#94a3b8" text-anchor="middle">Robot spiders follow links</text>
  </g>

  <!-- Arrow 1 to 2 -->
  <g transform="translate(265, 180)">
    <path d="M0,0 L30,0" stroke="#f59e0b" stroke-width="2.5"/>
    <polygon points="35,-5 35,5 47,0" fill="#f59e0b"/>
  </g>

  <!-- Step 2: Indexing -->
  <g transform="translate(295, 85)">
    <rect x="0" y="0" width="210" height="200" rx="12" fill="#2a2a4a" stroke="#f59e0b" stroke-width="2"/>
    <text x="105" y="28" font-family="Arial, sans-serif" font-size="14" fill="#f59e0b" text-anchor="middle" font-weight="bold">2. Indexing</text>

    <!-- Filing cabinet -->
    <g transform="translate(55, 42)">
      <rect x="0" y="0" width="100" height="105" rx="4" fill="#1e293b" stroke="#4a4a6a" stroke-width="1.5"/>

      <!-- Drawer 1 -->
      <rect x="8" y="8" width="84" height="26" rx="2" fill="#2a3a5a" stroke="#4a5a7a"/>
      <rect x="38" y="17" width="24" height="7" rx="2" fill="#f59e0b" opacity="0.5"/>

      <!-- Drawer 2 -->
      <rect x="8" y="40" width="84" height="26" rx="2" fill="#2a3a5a" stroke="#4a5a7a"/>
      <rect x="38" y="49" width="24" height="7" rx="2" fill="#f59e0b" opacity="0.5"/>

      <!-- Drawer 3 -->
      <rect x="8" y="72" width="84" height="26" rx="2" fill="#2a3a5a" stroke="#4a5a7a"/>
      <rect x="38" y="81" width="24" height="7" rx="2" fill="#f59e0b" opacity="0.5"/>

      <!-- Index card popping out -->
      <g transform="translate(12, -18) rotate(-6)">
        <rect x="0" y="0" width="55" height="35" rx="2" fill="#FFF9F0" stroke="#DDD"/>
        <line x1="5" y1="10" x2="50" y2="10" stroke="#ddd" stroke-width="0.8"/>
        <line x1="5" y1="18" x2="40" y2="18" stroke="#ddd" stroke-width="0.8"/>
        <line x1="5" y1="26" x2="45" y2="26" stroke="#ddd" stroke-width="0.8"/>
      </g>
    </g>

    <text x="105" y="178" font-family="Arial, sans-serif" font-size="10" fill="#94a3b8" text-anchor="middle">Read and catalog every page</text>
    <text x="105" y="192" font-family="Arial, sans-serif" font-size="10" fill="#94a3b8" text-anchor="middle">in a massive database</text>
  </g>

  <!-- Arrow 2 to 3 -->
  <g transform="translate(510, 180)">
    <path d="M0,0 L30,0" stroke="#10b981" stroke-width="2.5"/>
    <polygon points="35,-5 35,5 47,0" fill="#10b981"/>
  </g>

  <!-- Step 3: Ranking -->
  <g transform="translate(540, 85)">
    <rect x="0" y="0" width="210" height="200" rx="12" fill="#2a2a4a" stroke="#10b981" stroke-width="2"/>
    <text x="105" y="28" font-family="Arial, sans-serif" font-size="14" fill="#10b981" text-anchor="middle" font-weight="bold">3. Ranking</text>

    <!-- Search bar -->
    <g transform="translate(20, 40)">
      <rect x="0" y="0" width="170" height="28" rx="14" fill="#1e293b" stroke="#4a4a6a"/>
      <circle cx="20" cy="14" r="7" stroke="#94a3b8" stroke-width="1.5" fill="none"/>
      <line x1="25" y1="19" x2="30" y2="24" stroke="#94a3b8" stroke-width="1.5" stroke-linecap="round"/>
      <text x="38" y="18" font-family="Arial, sans-serif" font-size="10" fill="#94a3b8">growing tomatoes</text>
    </g>

    <!-- Search results -->
    <g transform="translate(20, 80)">
      <!-- Result 1 (top ranked) -->
      <rect x="0" y="0" width="170" height="28" rx="4" fill="#1e293b" stroke="#10b981" stroke-width="1"/>
      <text x="10" y="12" font-family="Arial, sans-serif" font-size="9" fill="#10b981" font-weight="bold">#1</text>
      <text x="30" y="12" font-family="Arial, sans-serif" font-size="9" fill="#3b82f6">Best Tomato Growing Guide</text>
      <text x="30" y="23" font-family="Arial, sans-serif" font-size="8" fill="#94a3b8">100+ sites link here</text>

      <!-- Result 2 -->
      <rect x="0" y="34" width="170" height="24" rx="4" fill="#1e293b" stroke="#4a4a6a"/>
      <text x="10" y="48" font-family="Arial, sans-serif" font-size="9" fill="#94a3b8">#2</text>
      <text x="30" y="48" font-family="Arial, sans-serif" font-size="9" fill="#3b82f6">Garden Tips Blog</text>

      <!-- Result 3 -->
      <rect x="0" y="64" width="170" height="24" rx="4" fill="#1e293b" stroke="#4a4a6a"/>
      <text x="10" y="78" font-family="Arial, sans-serif" font-size="9" fill="#94a3b8">#3</text>
      <text x="30" y="78" font-family="Arial, sans-serif" font-size="9" fill="#3b82f6">Tomato Growing 101</text>
    </g>

    <text x="105" y="185" font-family="Arial, sans-serif" font-size="10" fill="#94a3b8" text-anchor="middle">Best results sorted first</text>
  </g>

  <!-- Bottom insight -->
  <g transform="translate(50, 310)">
    <rect x="0" y="0" width="620" height="90" rx="10" fill="#2a2a4a" stroke="#3b82f6" stroke-width="1.5"/>
    <text x="310" y="25" font-family="Arial, sans-serif" font-size="13" fill="#3b82f6" text-anchor="middle" font-weight="bold">The Librarian Analogy</text>

    <g transform="translate(25, 40)">
      <circle cx="10" cy="10" r="9" fill="#8b5cf6" opacity="0.2"/>
      <text x="10" y="14" font-family="Arial, sans-serif" font-size="10" fill="#8b5cf6" text-anchor="middle" font-weight="bold">1</text>
      <text x="28" y="14" font-family="Arial, sans-serif" font-size="11" fill="#fff">Find every book</text>
    </g>

    <g transform="translate(205, 40)">
      <circle cx="10" cy="10" r="9" fill="#f59e0b" opacity="0.2"/>
      <text x="10" y="14" font-family="Arial, sans-serif" font-size="10" fill="#f59e0b" text-anchor="middle" font-weight="bold">2</text>
      <text x="28" y="14" font-family="Arial, sans-serif" font-size="11" fill="#fff">Read and catalog</text>
    </g>

    <g transform="translate(395, 40)">
      <circle cx="10" cy="10" r="9" fill="#10b981" opacity="0.2"/>
      <text x="10" y="14" font-family="Arial, sans-serif" font-size="10" fill="#10b981" text-anchor="middle" font-weight="bold">3</text>
      <text x="28" y="14" font-family="Arial, sans-serif" font-size="11" fill="#fff">Recommend the best</text>
    </g>

    <text x="310" y="75" font-family="Arial, sans-serif" font-size="11" fill="#94a3b8" text-anchor="middle">
      Google doesn't search the internet. It searches its catalog OF the internet.
    </text>
  </g>

  <!-- ELI5 Badge - lower right -->
  <g transform="translate(695, 355)">
    <g filter="url(#eli5_shadow)">
      <g transform="rotate(-5, 50, 45)">
        <rect x="2" y="4" width="88" height="82" rx="4" fill="#FFF9F0" stroke="#DDD" stroke-width="1" opacity="0.95"/>
        <line x1="8" y1="24" x2="84" y2="24" stroke="#89B4D6" stroke-width="0.5" opacity="0.2"/>
        <line x1="8" y1="38" x2="84" y2="38" stroke="#89B4D6" stroke-width="0.5" opacity="0.2"/>
        <line x1="8" y1="52" x2="84" y2="52" stroke="#89B4D6" stroke-width="0.5" opacity="0.2"/>
        <line x1="8" y1="66" x2="84" y2="66" stroke="#89B4D6" stroke-width="0.5" opacity="0.2"/>
      </g>
      <g transform="translate(46, 30)">
        <g stroke="#E24444" fill="none" stroke-width="2.5" stroke-linecap="round">
          <polyline points="-22,-12 -26,-12 -26,12 -22,12"/>
        </g>
        <g stroke="#E24444" fill="none" stroke-width="2.5" stroke-linecap="round">
          <polyline points="22,-12 26,-12 26,12 22,12"/>
        </g>
        <path d="M 0,-13 C -8,-14 -16,-12 -19,-6 C -20,0 -19,6 -18,10 C -16,14 -8,15 0,14" fill="#D4E8FC" stroke="#3B82F6" stroke-width="2" stroke-linecap="round"/>
        <path d="M 0,-13 C 8,-14 16,-12 19,-6 C 20,0 19,6 18,10 C 16,14 8,15 0,14" fill="#D4F8D4" stroke="#22C55E" stroke-width="2" stroke-linecap="round"/>
        <line x1="0" y1="-12" x2="0" y2="13" stroke="#999" stroke-width="1" opacity="0.3"/>
        <circle cx="-10" cy="-3" r="2" fill="#F59E0B" stroke="#E24444" stroke-width="1"/>
        <circle cx="-8" cy="6" r="2" fill="#F59E0B" stroke="#E24444" stroke-width="1"/>
        <line x1="-10" y1="-3" x2="-8" y2="6" stroke="#3B82F6" stroke-width="1" stroke-linecap="round"/>
      </g>
    </g>
    <g stroke-width="3.5" stroke-linecap="round" stroke-linejoin="round" fill="none">
      <path d="M22,54 V68 M22,54 H32 M22,61 H30 M22,68 H32" stroke="#E24444"/>
      <path d="M37,54 V68 H47" stroke="#3B82F6"/>
      <path d="M50,54 H56 M53,54 V68 M50,68 H56" stroke="#22C55E"/>
      <path d="M68,54 H60 V60 H65 Q70,60 70,64 Q70,68 65,68 H60" stroke="#F59E0B"/>
    </g>
  </g>
</svg>
