<svg xmlns="http://www.w3.org/2000/svg" viewBox="0 0 800 400">
  <defs>
    <!-- Background gradient: deep navy -->
    <linearGradient id="re2BgGrad" x1="0%" y1="0%" x2="100%" y2="100%">
      <stop offset="0%" style="stop-color:#0d1117"/>
      <stop offset="50%" style="stop-color:#161b33"/>
      <stop offset="100%" style="stop-color:#0d1b2a"/>
    </linearGradient>

    <!-- Teal data stream gradient -->
    <linearGradient id="re2TealStream" x1="0%" y1="0%" x2="100%" y2="0%">
      <stop offset="0%" style="stop-color:#06b6d4;stop-opacity:0.1"/>
      <stop offset="50%" style="stop-color:#06b6d4;stop-opacity:0.8"/>
      <stop offset="100%" style="stop-color:#06b6d4;stop-opacity:0.1"/>
    </linearGradient>

    <!-- Orange/gold highlight gradient -->
    <linearGradient id="re2GoldGrad" x1="0%" y1="0%" x2="0%" y2="100%">
      <stop offset="0%" style="stop-color:#f59e0b"/>
      <stop offset="100%" style="stop-color:#d97706"/>
    </linearGradient>

    <!-- Magnifying glass glow -->
    <radialGradient id="re2MagGlow" cx="50%" cy="50%" r="50%">
      <stop offset="0%" style="stop-color:#06b6d4;stop-opacity:0.3"/>
      <stop offset="70%" style="stop-color:#06b6d4;stop-opacity:0.1"/>
      <stop offset="100%" style="stop-color:#06b6d4;stop-opacity:0"/>
    </radialGradient>

    <!-- Phone screen gradient -->
    <linearGradient id="re2ScreenGrad" x1="0%" y1="0%" x2="0%" y2="100%">
      <stop offset="0%" style="stop-color:#1e293b"/>
      <stop offset="100%" style="stop-color:#0f172a"/>
    </linearGradient>

    <!-- Server gradient -->
    <linearGradient id="re2ServerGrad" x1="0%" y1="0%" x2="0%" y2="100%">
      <stop offset="0%" style="stop-color:#334155"/>
      <stop offset="100%" style="stop-color:#1e293b"/>
    </linearGradient>

    <!-- Badge gradient -->
    <linearGradient id="re2BadgeGrad" x1="0%" y1="0%" x2="0%" y2="100%">
      <stop offset="0%" style="stop-color:#f59e0b"/>
      <stop offset="100%" style="stop-color:#b45309"/>
    </linearGradient>

    <!-- Padlock glow -->
    <filter id="re2PadlockGlow">
      <feGaussianBlur stdDeviation="3" result="blur"/>
      <feMerge>
        <feMergeNode in="blur"/>
        <feMergeNode in="SourceGraphic"/>
      </feMerge>
    </filter>

    <!-- Magnifying glass outer glow filter -->
    <filter id="re2MagFilter">
      <feGaussianBlur stdDeviation="6" result="blur"/>
      <feMerge>
        <feMergeNode in="blur"/>
        <feMergeNode in="SourceGraphic"/>
      </feMerge>
    </filter>

    <!-- Subtle ambient glow -->
    <filter id="re2Ambient">
      <feGaussianBlur stdDeviation="15" result="blur"/>
      <feMerge>
        <feMergeNode in="blur"/>
        <feMergeNode in="SourceGraphic"/>
      </feMerge>
    </filter>
  </defs>

  <!-- Background -->
  <rect width="800" height="400" fill="url(#re2BgGrad)"/>

  <!-- Subtle grid lines -->
  <g opacity="0.03" stroke="#06b6d4" stroke-width="0.5">
    <line x1="0" y1="50" x2="800" y2="50"/>
    <line x1="0" y1="100" x2="800" y2="100"/>
    <line x1="0" y1="150" x2="800" y2="150"/>
    <line x1="0" y1="200" x2="800" y2="200"/>
    <line x1="0" y1="250" x2="800" y2="250"/>
    <line x1="0" y1="300" x2="800" y2="300"/>
    <line x1="0" y1="350" x2="800" y2="350"/>
    <line x1="100" y1="0" x2="100" y2="400"/>
    <line x1="200" y1="0" x2="200" y2="400"/>
    <line x1="300" y1="0" x2="300" y2="400"/>
    <line x1="400" y1="0" x2="400" y2="400"/>
    <line x1="500" y1="0" x2="500" y2="400"/>
    <line x1="600" y1="0" x2="600" y2="400"/>
    <line x1="700" y1="0" x2="700" y2="400"/>
  </g>

  <!-- Ambient glow behind phone -->
  <circle cx="135" cy="200" r="90" fill="#8b5cf6" opacity="0.04"/>

  <!-- Ambient glow behind server -->
  <circle cx="665" cy="200" r="90" fill="#22c55e" opacity="0.04"/>

  <!-- ====== LEFT: PHONE ====== -->
  <g transform="translate(65, 70)">
    <!-- Phone body -->
    <rect x="0" y="0" width="140" height="250" rx="16" fill="#0f172a" stroke="#475569" stroke-width="2"/>
    <!-- Camera notch -->
    <rect x="45" y="4" width="50" height="8" rx="4" fill="#1e293b"/>
    <circle cx="70" cy="8" r="2.5" fill="#334155"/>
    <!-- Screen -->
    <rect x="8" y="18" width="124" height="208" rx="6" fill="url(#re2ScreenGrad)"/>

    <!-- Game UI on screen: hero grid -->
    <g transform="translate(14, 28)">
      <!-- Row of hero tiles -->
      <rect x="0" y="0" width="32" height="32" rx="4" fill="#8b5cf6" opacity="0.5"/>
      <rect x="37" y="0" width="32" height="32" rx="4" fill="#ef4444" opacity="0.5"/>
      <rect x="74" y="0" width="32" height="32" rx="4" fill="#22c55e" opacity="0.5"/>
      <!-- Row 2 -->
      <rect x="0" y="37" width="32" height="32" rx="4" fill="#f59e0b" opacity="0.5"/>
      <rect x="37" y="37" width="32" height="32" rx="4" fill="#3b82f6" opacity="0.5"/>
      <rect x="74" y="37" width="32" height="32" rx="4" fill="#ec4899" opacity="0.5"/>

      <!-- Small sword icon in first tile -->
      <path d="M16 6 L16 22 M12 10 L20 10" stroke="white" stroke-width="1.5" stroke-linecap="round" opacity="0.7"/>
      <!-- Shield icon in second tile -->
      <path d="M53 6 C53 6 45 10 45 18 C45 22 53 26 53 26 C53 26 61 22 61 18 C61 10 53 6 53 6Z" stroke="white" stroke-width="1" fill="none" opacity="0.7"/>
      <!-- Star/potion in third tile -->
      <circle cx="90" cy="16" r="8" stroke="white" stroke-width="1" fill="none" opacity="0.7"/>
      <circle cx="90" cy="16" r="3" fill="white" opacity="0.5"/>

      <!-- Status bar at bottom of screen -->
      <rect x="0" y="82" width="106" height="24" rx="3" fill="#334155" opacity="0.7"/>
      <!-- Fake loading bar -->
      <rect x="4" y="90" width="60" height="4" rx="2" fill="#22c55e" opacity="0.4"/>
      <rect x="4" y="90" width="35" height="4" rx="2" fill="#22c55e" opacity="0.7"/>

      <!-- Chat bubble style data -->
      <rect x="0" y="114" width="80" height="18" rx="4" fill="#1e3a5f" opacity="0.8"/>
      <!-- Arrow from chat -->
      <path d="M80 123 L90 123" stroke="#06b6d4" stroke-width="1" opacity="0.6"/>

      <rect x="0" y="138" width="60" height="14" rx="3" fill="#1e3a5f" opacity="0.5"/>
      <rect x="0" y="158" width="90" height="14" rx="3" fill="#1e3a5f" opacity="0.5"/>
    </g>

    <!-- Small wifi signal icon on phone top -->
    <g transform="translate(116, 24)" opacity="0.5">
      <path d="M0 8 Q4 0 8 8" stroke="#06b6d4" stroke-width="1" fill="none"/>
      <path d="M-3 11 Q4 -2 11 11" stroke="#06b6d4" stroke-width="1" fill="none"/>
    </g>

    <!-- Home button -->
    <circle cx="70" cy="238" r="5" fill="none" stroke="#475569" stroke-width="1"/>
  </g>

  <!-- ====== DATA STREAMS: Phone to Server ====== -->
  <!-- Upper stream (outgoing requests) -->
  <g opacity="0.6">
    <!-- Stream path -->
    <path d="M210 150 C280 150, 290 130, 370 130" stroke="#06b6d4" stroke-width="1.5" fill="none" stroke-dasharray="6,4" opacity="0.4"/>
    <path d="M430 130 C510 130, 520 150, 590 150" stroke="#06b6d4" stroke-width="1.5" fill="none" stroke-dasharray="6,4" opacity="0.4"/>

    <!-- Packet: Tiny sword made of binary -->
    <g transform="translate(250, 136)">
      <rect x="-12" y="-10" width="24" height="20" rx="3" fill="#0e7490" opacity="0.3"/>
      <path d="M0 -6 L0 6 M-3 -2 L3 -2" stroke="#06b6d4" stroke-width="1.5" stroke-linecap="round"/>
      <!-- Binary around it -->
      <g fill="#06b6d4" font-size="4" opacity="0.5">
        <path d="M-10 -8 L-10 -4 M-8 -8 L-8 -4 L-6 -4" stroke="#06b6d4" stroke-width="0.5" fill="none"/>
      </g>
    </g>

    <!-- Packet: Tiny potion/coin -->
    <g transform="translate(300, 144)">
      <circle cx="0" cy="0" r="8" fill="#0e7490" opacity="0.3"/>
      <circle cx="0" cy="0" r="4" stroke="#f59e0b" stroke-width="1" fill="none"/>
      <circle cx="0" cy="0" r="1.5" fill="#f59e0b" opacity="0.7"/>
    </g>

    <!-- Packet: Binary envelope -->
    <g transform="translate(520, 140)">
      <rect x="-10" y="-7" width="20" height="14" rx="2" fill="#0e7490" opacity="0.3" stroke="#06b6d4" stroke-width="0.5"/>
      <path d="M-10 -7 L0 0 L10 -7" stroke="#06b6d4" stroke-width="0.7" fill="none"/>
      <!-- 01 binary bits -->
      <rect x="-6" y="1" width="2" height="2" fill="#06b6d4" opacity="0.5"/>
      <rect x="-2" y="1" width="2" height="2" fill="#06b6d4" opacity="0.5"/>
      <rect x="2" y="1" width="2" height="2" fill="#06b6d4" opacity="0.3"/>
      <rect x="6" y="1" width="2" height="2" fill="#06b6d4" opacity="0.5"/>
    </g>
  </g>

  <!-- Lower stream (server responses) -->
  <g opacity="0.6">
    <path d="M590 240 C520 240, 510 260, 430 260" stroke="#22c55e" stroke-width="1.5" fill="none" stroke-dasharray="6,4" opacity="0.4"/>
    <path d="M370 260 C290 260, 280 240, 210 240" stroke="#22c55e" stroke-width="1.5" fill="none" stroke-dasharray="6,4" opacity="0.4"/>

    <!-- Response packet: JSON-like -->
    <g transform="translate(540, 248)">
      <rect x="-14" y="-9" width="28" height="18" rx="3" fill="#166534" opacity="0.3" stroke="#22c55e" stroke-width="0.5"/>
      <!-- Curly braces approximation -->
      <path d="M-8 -5 C-10 -5 -10 0 -8 0 C-10 0 -10 5 -8 5" stroke="#22c55e" stroke-width="0.8" fill="none"/>
      <path d="M8 -5 C10 -5 10 0 8 0 C10 0 10 5 8 5" stroke="#22c55e" stroke-width="0.8" fill="none"/>
      <line x1="-4" y1="-2" x2="4" y2="-2" stroke="#22c55e" stroke-width="0.5" opacity="0.6"/>
      <line x1="-4" y1="2" x2="2" y2="2" stroke="#22c55e" stroke-width="0.5" opacity="0.6"/>
    </g>

    <!-- Response packet: Data block -->
    <g transform="translate(270, 252)">
      <rect x="-10" y="-8" width="20" height="16" rx="2" fill="#166534" opacity="0.3" stroke="#22c55e" stroke-width="0.5"/>
      <line x1="-6" y1="-4" x2="6" y2="-4" stroke="#22c55e" stroke-width="0.5" opacity="0.6"/>
      <line x1="-6" y1="0" x2="4" y2="0" stroke="#22c55e" stroke-width="0.5" opacity="0.6"/>
      <line x1="-6" y1="4" x2="6" y2="4" stroke="#22c55e" stroke-width="0.5" opacity="0.6"/>
    </g>

    <!-- Game-themed packet: tiny shield -->
    <g transform="translate(490, 256)">
      <path d="M0 -7 C0 -7 -8 -3 -8 3 C-8 6 0 10 0 10 C0 10 8 6 8 3 C8 -3 0 -7 0 -7Z" stroke="#22c55e" stroke-width="0.8" fill="#166534" opacity="0.5"/>
    </g>
  </g>

  <!-- ====== CENTER: MAGNIFYING GLASS / DETECTIVE INTERCEPT ====== -->
  <!-- Big ambient glow -->
  <circle cx="400" cy="195" r="80" fill="url(#re2MagGlow)" filter="url(#re2Ambient)"/>

  <!-- Magnifying glass -->
  <g transform="translate(400, 195)" filter="url(#re2MagFilter)">
    <!-- Glass lens -->
    <circle cx="0" cy="-10" r="52" fill="none" stroke="#06b6d4" stroke-width="3" opacity="0.8"/>
    <circle cx="0" cy="-10" r="48" fill="#06b6d4" opacity="0.06"/>

    <!-- Inner lens reflection arc -->
    <path d="M-30 -35 C-20 -45 20 -45 30 -35" stroke="white" stroke-width="1" fill="none" opacity="0.1"/>

    <!-- Handle -->
    <line x1="36" y1="28" x2="60" y2="55" stroke="#94a3b8" stroke-width="6" stroke-linecap="round"/>
    <line x1="36" y1="28" x2="60" y2="55" stroke="#64748b" stroke-width="3" stroke-linecap="round"/>

    <!-- Inside the lens: intercepted data visualization -->
    <!-- Small teal lines representing captured packets -->
    <g opacity="0.7">
      <line x1="-30" y1="-25" x2="-10" y2="-25" stroke="#06b6d4" stroke-width="1"/>
      <line x1="-30" y1="-18" x2="-5" y2="-18" stroke="#22c55e" stroke-width="1"/>
      <line x1="-30" y1="-11" x2="-12" y2="-11" stroke="#06b6d4" stroke-width="1"/>
      <line x1="-30" y1="-4" x2="-8" y2="-4" stroke="#f59e0b" stroke-width="1"/>
      <line x1="-30" y1="3" x2="-15" y2="3" stroke="#22c55e" stroke-width="1"/>
      <line x1="-30" y1="10" x2="-6" y2="10" stroke="#06b6d4" stroke-width="1"/>
      <line x1="-30" y1="17" x2="-10" y2="17" stroke="#22c55e" stroke-width="1"/>

      <!-- Right column: hex-like blocks -->
      <rect x="5" y="-28" width="4" height="4" rx="0.5" fill="#06b6d4" opacity="0.5"/>
      <rect x="11" y="-28" width="4" height="4" rx="0.5" fill="#06b6d4" opacity="0.3"/>
      <rect x="17" y="-28" width="4" height="4" rx="0.5" fill="#06b6d4" opacity="0.6"/>
      <rect x="23" y="-28" width="4" height="4" rx="0.5" fill="#06b6d4" opacity="0.4"/>

      <rect x="5" y="-21" width="4" height="4" rx="0.5" fill="#22c55e" opacity="0.4"/>
      <rect x="11" y="-21" width="4" height="4" rx="0.5" fill="#22c55e" opacity="0.6"/>
      <rect x="17" y="-21" width="4" height="4" rx="0.5" fill="#22c55e" opacity="0.3"/>
      <rect x="23" y="-21" width="4" height="4" rx="0.5" fill="#22c55e" opacity="0.5"/>

      <rect x="5" y="-14" width="4" height="4" rx="0.5" fill="#f59e0b" opacity="0.4"/>
      <rect x="11" y="-14" width="4" height="4" rx="0.5" fill="#f59e0b" opacity="0.6"/>
      <rect x="17" y="-14" width="4" height="4" rx="0.5" fill="#06b6d4" opacity="0.5"/>
      <rect x="23" y="-14" width="4" height="4" rx="0.5" fill="#06b6d4" opacity="0.3"/>

      <rect x="5" y="-7" width="4" height="4" rx="0.5" fill="#22c55e" opacity="0.5"/>
      <rect x="11" y="-7" width="4" height="4" rx="0.5" fill="#22c55e" opacity="0.3"/>
      <rect x="17" y="-7" width="4" height="4" rx="0.5" fill="#f59e0b" opacity="0.4"/>
      <rect x="23" y="-7" width="4" height="4" rx="0.5" fill="#22c55e" opacity="0.6"/>

      <rect x="5" y="0" width="4" height="4" rx="0.5" fill="#06b6d4" opacity="0.3"/>
      <rect x="11" y="0" width="4" height="4" rx="0.5" fill="#06b6d4" opacity="0.5"/>
      <rect x="17" y="0" width="4" height="4" rx="0.5" fill="#22c55e" opacity="0.6"/>
      <rect x="23" y="0" width="4" height="4" rx="0.5" fill="#06b6d4" opacity="0.4"/>

      <rect x="5" y="7" width="4" height="4" rx="0.5" fill="#f59e0b" opacity="0.5"/>
      <rect x="11" y="7" width="4" height="4" rx="0.5" fill="#22c55e" opacity="0.4"/>
      <rect x="17" y="7" width="4" height="4" rx="0.5" fill="#06b6d4" opacity="0.3"/>
      <rect x="23" y="7" width="4" height="4" rx="0.5" fill="#f59e0b" opacity="0.6"/>

      <rect x="5" y="14" width="4" height="4" rx="0.5" fill="#22c55e" opacity="0.4"/>
      <rect x="11" y="14" width="4" height="4" rx="0.5" fill="#06b6d4" opacity="0.6"/>
      <rect x="17" y="14" width="4" height="4" rx="0.5" fill="#22c55e" opacity="0.5"/>
      <rect x="23" y="14" width="4" height="4" rx="0.5" fill="#06b6d4" opacity="0.3"/>
    </g>
  </g>

  <!-- Detective hat on top of magnifying glass -->
  <g transform="translate(400, 118)">
    <!-- Hat brim -->
    <ellipse cx="0" cy="0" rx="38" ry="8" fill="#334155" stroke="#475569" stroke-width="1"/>
    <!-- Hat crown -->
    <path d="M-24 -2 C-24 -2 -22 -28 0 -28 C22 -28 24 -2 24 -2" fill="#1e293b" stroke="#475569" stroke-width="1"/>
    <!-- Hat band -->
    <rect x="-24" y="-6" width="48" height="5" rx="1" fill="#f59e0b" opacity="0.8"/>
    <!-- Small star on hat band -->
    <g transform="translate(0, -3.5)">
      <path d="M0 -3 L0.8 -1 L3 -1 L1.2 0.3 L1.8 2.5 L0 1.2 L-1.8 2.5 L-1.2 0.3 L-3 -1 L-0.8 -1Z" fill="#fbbf24"/>
    </g>
  </g>

  <!-- ====== RIGHT: SERVER ====== -->
  <g transform="translate(595, 80)">
    <!-- Server rack/tower -->
    <rect x="0" y="30" width="140" height="200" rx="8" fill="url(#re2ServerGrad)" stroke="#475569" stroke-width="1.5"/>

    <!-- Cloud shape on top -->
    <g transform="translate(70, 20)">
      <circle cx="0" cy="0" r="18" fill="#334155" stroke="#475569" stroke-width="1"/>
      <circle cx="-20" cy="5" r="14" fill="#334155" stroke="#475569" stroke-width="1"/>
      <circle cx="20" cy="5" r="14" fill="#334155" stroke="#475569" stroke-width="1"/>
      <circle cx="-10" cy="-8" r="12" fill="#334155" stroke="#475569" stroke-width="1"/>
      <circle cx="10" cy="-8" r="12" fill="#334155" stroke="#475569" stroke-width="1"/>
      <!-- Fill interior to cover strokes -->
      <ellipse cx="0" cy="2" rx="32" ry="16" fill="#334155"/>
    </g>

    <!-- Server rack details -->
    <!-- Slot 1 -->
    <rect x="12" y="50" width="116" height="28" rx="3" fill="#1e293b" stroke="#334155" stroke-width="0.5"/>
    <circle cx="24" cy="64" r="3" fill="#22c55e" opacity="0.8"/>
    <circle cx="34" cy="64" r="3" fill="#22c55e" opacity="0.4"/>
    <rect x="46" y="58" width="70" height="3" rx="1" fill="#334155"/>
    <rect x="46" y="64" width="70" height="3" rx="1" fill="#334155"/>

    <!-- Slot 2 -->
    <rect x="12" y="84" width="116" height="28" rx="3" fill="#1e293b" stroke="#334155" stroke-width="0.5"/>
    <circle cx="24" cy="98" r="3" fill="#3b82f6" opacity="0.8"/>
    <circle cx="34" cy="98" r="3" fill="#3b82f6" opacity="0.4"/>
    <rect x="46" y="92" width="70" height="3" rx="1" fill="#334155"/>
    <rect x="46" y="98" width="70" height="3" rx="1" fill="#334155"/>

    <!-- Slot 3 -->
    <rect x="12" y="118" width="116" height="28" rx="3" fill="#1e293b" stroke="#334155" stroke-width="0.5"/>
    <circle cx="24" cy="132" r="3" fill="#22c55e" opacity="0.8"/>
    <circle cx="34" cy="132" r="3" fill="#f59e0b" opacity="0.6"/>
    <rect x="46" y="126" width="70" height="3" rx="1" fill="#334155"/>
    <rect x="46" y="132" width="70" height="3" rx="1" fill="#334155"/>

    <!-- Database icon at bottom of server -->
    <g transform="translate(50, 164)">
      <ellipse cx="20" cy="0" rx="28" ry="8" fill="#1e293b" stroke="#3b82f6" stroke-width="0.8" opacity="0.7"/>
      <rect x="-8" y="0" width="56" height="30" fill="#1e293b"/>
      <line x1="-8" y1="0" x2="-8" y2="30" stroke="#3b82f6" stroke-width="0.8" opacity="0.7"/>
      <line x1="48" y1="0" x2="48" y2="30" stroke="#3b82f6" stroke-width="0.8" opacity="0.7"/>
      <ellipse cx="20" cy="10" rx="28" ry="6" fill="none" stroke="#3b82f6" stroke-width="0.5" opacity="0.4"/>
      <ellipse cx="20" cy="20" rx="28" ry="6" fill="none" stroke="#3b82f6" stroke-width="0.5" opacity="0.4"/>
      <ellipse cx="20" cy="30" rx="28" ry="8" fill="#1e293b" stroke="#3b82f6" stroke-width="0.8" opacity="0.7"/>
    </g>
  </g>

  <!-- ====== UNLOCKED PADLOCK ====== -->
  <g transform="translate(480, 85)" filter="url(#re2PadlockGlow)">
    <!-- Padlock body -->
    <rect x="-14" y="0" width="28" height="22" rx="3" fill="#b45309" stroke="#f59e0b" stroke-width="1.5"/>
    <!-- Shackle (open/unlocked) -->
    <path d="M-7 2 L-7 -10 C-7 -18 7 -18 7 -10 L7 -5" stroke="#f59e0b" stroke-width="2.5" fill="none" stroke-linecap="round"/>
    <!-- Keyhole -->
    <circle cx="0" cy="9" r="3" fill="#1e293b"/>
    <rect x="-1.5" y="9" width="3" height="6" rx="0.5" fill="#1e293b"/>

    <!-- Small exclamation / alert spark -->
    <g transform="translate(16, -14)" opacity="0.9">
      <path d="M0 -6 L1 -1 L5 -2 L2 2 L6 5 L1 4 L0 9 L-1 4 L-6 5 L-2 2 L-5 -2 L-1 -1Z" fill="#fbbf24" opacity="0.6" transform="scale(0.6)"/>
    </g>
  </g>

  <!-- ====== "PART 2" BADGE ====== -->
  <g transform="translate(715, 15)">
    <!-- Badge background -->
    <rect x="0" y="0" width="70" height="32" rx="6" fill="url(#re2BadgeGrad)" stroke="#fbbf24" stroke-width="1"/>

    <!-- "PART 2" as SVG paths instead of text -->
    <!-- P -->
    <g transform="translate(10, 8)" fill="white">
      <rect x="0" y="0" width="2" height="16" rx="0.3"/>
      <rect x="0" y="0" width="8" height="2" rx="0.3"/>
      <rect x="0" y="6" width="8" height="2" rx="0.3"/>
      <rect x="7" y="0" width="2" height="8" rx="0.3"/>
    </g>
    <!-- T -->
    <g transform="translate(22, 8)" fill="white">
      <rect x="0" y="0" width="8" height="2" rx="0.3"/>
      <rect x="3" y="0" width="2" height="16" rx="0.3"/>
    </g>
    <!-- 2 -->
    <g transform="translate(38, 8)" fill="white">
      <rect x="0" y="0" width="10" height="2" rx="0.3"/>
      <rect x="8" y="0" width="2" height="8" rx="0.3"/>
      <rect x="0" y="7" width="10" height="2" rx="0.3"/>
      <rect x="0" y="7" width="2" height="9" rx="0.3"/>
      <rect x="0" y="14" width="10" height="2" rx="0.3"/>
    </g>
  </g>

  <!-- ====== BOTTOM TERMINAL BAR: mitmproxy command ====== -->
  <g transform="translate(50, 350)">
    <rect x="0" y="0" width="700" height="34" rx="6" fill="#1e293b" stroke="#334155" stroke-width="1"/>

    <!-- "$" prompt symbol as path -->
    <g transform="translate(14, 10)" fill="#fde68a">
      <!-- $ sign -->
      <path d="M3 0 L6 0 L6 2 L3 2 L3 5 L6 5 L6 10 L3 10 L3 12 L0 12 L0 10 L3 10 L3 7 L0 7 L0 2 L3 2Z" transform="scale(0.8)"/>
    </g>

    <!-- "mitmproxy" rendered as small rectangles (simplified monospace) -->
    <!-- Instead of rendering each letter perfectly, use colored bar segments -->
    <!-- Green command area -->
    <rect x="28" y="8" width="75" height="3" rx="1" fill="#86efac" opacity="0.8"/>
    <rect x="28" y="14" width="55" height="2" rx="1" fill="#86efac" opacity="0.4"/>

    <!-- Separator -->
    <rect x="115" y="8" width="10" height="3" rx="1" fill="#64748b" opacity="0.5"/>

    <!-- Output/host area -->
    <rect x="135" y="8" width="90" height="3" rx="1" fill="#06b6d4" opacity="0.6"/>
    <rect x="135" y="14" width="65" height="2" rx="1" fill="#06b6d4" opacity="0.3"/>

    <!-- Right side: flow count visualization -->
    <g transform="translate(400, 6)">
      <!-- Tiny flow indicators -->
      <rect x="0" y="0" width="6" height="6" rx="1" fill="#22c55e" opacity="0.6"/>
      <rect x="8" y="0" width="6" height="6" rx="1" fill="#06b6d4" opacity="0.6"/>
      <rect x="16" y="0" width="6" height="6" rx="1" fill="#22c55e" opacity="0.6"/>
      <rect x="24" y="0" width="6" height="6" rx="1" fill="#f59e0b" opacity="0.6"/>
      <rect x="32" y="0" width="6" height="6" rx="1" fill="#22c55e" opacity="0.6"/>
      <rect x="40" y="0" width="6" height="6" rx="1" fill="#06b6d4" opacity="0.6"/>
      <rect x="48" y="0" width="6" height="6" rx="1" fill="#22c55e" opacity="0.6"/>
      <rect x="56" y="0" width="6" height="6" rx="1" fill="#f59e0b" opacity="0.6"/>
      <rect x="64" y="0" width="6" height="6" rx="1" fill="#06b6d4" opacity="0.6"/>
      <rect x="72" y="0" width="6" height="6" rx="1" fill="#22c55e" opacity="0.6"/>

      <!-- Second row -->
      <rect x="0" y="9" width="6" height="6" rx="1" fill="#06b6d4" opacity="0.4"/>
      <rect x="8" y="9" width="6" height="6" rx="1" fill="#22c55e" opacity="0.4"/>
      <rect x="16" y="9" width="6" height="6" rx="1" fill="#f59e0b" opacity="0.4"/>
      <rect x="24" y="9" width="6" height="6" rx="1" fill="#06b6d4" opacity="0.4"/>
      <rect x="32" y="9" width="6" height="6" rx="1" fill="#22c55e" opacity="0.4"/>
      <rect x="40" y="9" width="6" height="6" rx="1" fill="#06b6d4" opacity="0.4"/>
      <rect x="48" y="9" width="6" height="6" rx="1" fill="#f59e0b" opacity="0.4"/>
      <rect x="56" y="9" width="6" height="6" rx="1" fill="#22c55e" opacity="0.4"/>
      <rect x="64" y="9" width="6" height="6" rx="1" fill="#06b6d4" opacity="0.4"/>
      <rect x="72" y="9" width="6" height="6" rx="1" fill="#22c55e" opacity="0.4"/>
    </g>

    <!-- Arrow/chevron indicator at right -->
    <path d="M660 12 L668 17 L660 22" stroke="#64748b" stroke-width="1.5" fill="none" stroke-linecap="round" stroke-linejoin="round"/>
  </g>

  <!-- ====== FLOATING BINARY BITS (atmosphere) ====== -->
  <g opacity="0.12">
    <!-- Scattered 1s and 0s as tiny rectangles -->
    <rect x="30" y="40" width="3" height="5" rx="0.5" fill="#06b6d4"/>
    <rect x="40" y="35" width="4" height="5" rx="0.5" fill="#06b6d4"/>
    <rect x="55" y="42" width="3" height="5" rx="0.5" fill="#22c55e"/>
    <rect x="750" y="50" width="3" height="5" rx="0.5" fill="#22c55e"/>
    <rect x="760" y="60" width="4" height="5" rx="0.5" fill="#06b6d4"/>
    <rect x="740" y="45" width="3" height="5" rx="0.5" fill="#f59e0b"/>
    <rect x="310" y="30" width="3" height="4" rx="0.5" fill="#06b6d4"/>
    <rect x="325" y="25" width="4" height="4" rx="0.5" fill="#22c55e"/>
    <rect x="470" y="35" width="3" height="4" rx="0.5" fill="#06b6d4"/>
    <rect x="490" y="28" width="4" height="4" rx="0.5" fill="#f59e0b"/>
    <rect x="180" y="345" width="3" height="4" rx="0.5" fill="#06b6d4"/>
    <rect x="600" y="340" width="3" height="4" rx="0.5" fill="#22c55e"/>
    <rect x="350" y="335" width="4" height="4" rx="0.5" fill="#06b6d4"/>
  </g>

  <!-- ====== ADDITIONAL VISUAL FLAIR ====== -->

  <!-- Arrow from phone pointing right (outgoing) -->
  <g transform="translate(205, 170)" opacity="0.5">
    <path d="M0 0 L20 0" stroke="#06b6d4" stroke-width="1.5"/>
    <path d="M18 -3 L24 0 L18 3" fill="#06b6d4"/>
  </g>

  <!-- Arrow into phone (incoming) -->
  <g transform="translate(205, 240)" opacity="0.5">
    <path d="M24 0 L4 0" stroke="#22c55e" stroke-width="1.5"/>
    <path d="M6 -3 L0 0 L6 3" fill="#22c55e"/>
  </g>

  <!-- Arrow from server pointing left (outgoing response) -->
  <g transform="translate(575, 240)" opacity="0.5">
    <path d="M20 0 L0 0" stroke="#22c55e" stroke-width="1.5"/>
    <path d="M2 -3 L-4 0 L2 3" fill="#22c55e"/>
  </g>

  <!-- Arrow into server (incoming request) -->
  <g transform="translate(575, 170)" opacity="0.5">
    <path d="M0 0 L20 0" stroke="#06b6d4" stroke-width="1.5"/>
    <path d="M18 -3 L24 0 L18 3" fill="#06b6d4"/>
  </g>

  <!-- Small eye icon near magnifying glass (watching) -->
  <g transform="translate(345, 150)" opacity="0.4">
    <path d="M-10 0 C-10 0 -5 -7 0 -7 C5 -7 10 0 10 0 C10 0 5 7 0 7 C-5 7 -10 0 -10 0Z" stroke="#f59e0b" stroke-width="1" fill="none"/>
    <circle cx="0" cy="0" r="3" fill="#f59e0b" opacity="0.6"/>
    <circle cx="0" cy="0" r="1" fill="white" opacity="0.8"/>
  </g>

  <!-- Another eye on the other side -->
  <g transform="translate(455, 240)" opacity="0.3">
    <path d="M-8 0 C-8 0 -4 -5 0 -5 C4 -5 8 0 8 0 C8 0 4 5 0 5 C-4 5 -8 0 -8 0Z" stroke="#f59e0b" stroke-width="1" fill="none"/>
    <circle cx="0" cy="0" r="2.5" fill="#f59e0b" opacity="0.6"/>
    <circle cx="0" cy="0" r="0.8" fill="white" opacity="0.8"/>
  </g>

  <!-- Small sparkle effects near the magnifying glass -->
  <g opacity="0.5">
    <g transform="translate(355, 170)">
      <path d="M0 -3 L0.6 -0.6 L3 0 L0.6 0.6 L0 3 L-0.6 0.6 L-3 0 L-0.6 -0.6Z" fill="#06b6d4"/>
    </g>
    <g transform="translate(445, 175)">
      <path d="M0 -4 L0.8 -0.8 L4 0 L0.8 0.8 L0 4 L-0.8 0.8 L-4 0 L-0.8 -0.8Z" fill="#fbbf24"/>
    </g>
    <g transform="translate(370, 240)">
      <path d="M0 -2.5 L0.5 -0.5 L2.5 0 L0.5 0.5 L0 2.5 L-0.5 0.5 L-2.5 0 L-0.5 -0.5Z" fill="#22c55e"/>
    </g>
    <g transform="translate(430, 155)">
      <path d="M0 -2 L0.4 -0.4 L2 0 L0.4 0.4 L0 2 L-0.4 0.4 L-2 0 L-0.4 -0.4Z" fill="#06b6d4"/>
    </g>
  </g>
</svg>