<svg xmlns="http://www.w3.org/2000/svg" viewBox="0 0 800 400">
  <defs>
    <linearGradient id="re4BgGrad" x1="0%" y1="0%" x2="100%" y2="100%">
      <stop offset="0%" style="stop-color:#0a0e27"/>
      <stop offset="50%" style="stop-color:#111833"/>
      <stop offset="100%" style="stop-color:#0d1529"/>
    </linearGradient>
    <linearGradient id="re4TealGlow" x1="0%" y1="0%" x2="100%" y2="0%">
      <stop offset="0%" style="stop-color:#0d9488"/>
      <stop offset="100%" style="stop-color:#2dd4bf"/>
    </linearGradient>
    <linearGradient id="re4GoldPath" x1="0%" y1="0%" x2="100%" y2="0%">
      <stop offset="0%" style="stop-color:#f59e0b"/>
      <stop offset="100%" style="stop-color:#fbbf24"/>
    </linearGradient>
    <linearGradient id="re4PyBlue" x1="0%" y1="0%" x2="0%" y2="100%">
      <stop offset="0%" style="stop-color:#306998"/>
      <stop offset="100%" style="stop-color:#264f73"/>
    </linearGradient>
    <linearGradient id="re4PyYellow" x1="0%" y1="0%" x2="0%" y2="100%">
      <stop offset="0%" style="stop-color:#ffd43b"/>
      <stop offset="100%" style="stop-color:#f0c020"/>
    </linearGradient>
    <linearGradient id="re4ControllerBody" x1="0%" y1="0%" x2="0%" y2="100%">
      <stop offset="0%" style="stop-color:#374151"/>
      <stop offset="100%" style="stop-color:#1f2937"/>
    </linearGradient>
    <linearGradient id="re4WireGrad1" x1="0%" y1="0%" x2="100%" y2="0%">
      <stop offset="0%" style="stop-color:#ef4444"/>
      <stop offset="50%" style="stop-color:#f97316"/>
      <stop offset="100%" style="stop-color:#eab308"/>
    </linearGradient>
    <linearGradient id="re4WireGrad2" x1="0%" y1="0%" x2="100%" y2="0%">
      <stop offset="0%" style="stop-color:#22d3ee"/>
      <stop offset="100%" style="stop-color:#2dd4bf"/>
    </linearGradient>
    <linearGradient id="re4WireGrad3" x1="0%" y1="0%" x2="100%" y2="0%">
      <stop offset="0%" style="stop-color:#a78bfa"/>
      <stop offset="100%" style="stop-color:#818cf8"/>
    </linearGradient>
    <linearGradient id="re4TermGrad" x1="0%" y1="0%" x2="0%" y2="100%">
      <stop offset="0%" style="stop-color:#1e293b"/>
      <stop offset="100%" style="stop-color:#0f172a"/>
    </linearGradient>
    <linearGradient id="re4LockOpen" x1="0%" y1="0%" x2="0%" y2="100%">
      <stop offset="0%" style="stop-color:#4ade80"/>
      <stop offset="100%" style="stop-color:#22c55e"/>
    </linearGradient>
    <linearGradient id="re4BadgeGrad" x1="0%" y1="0%" x2="100%" y2="100%">
      <stop offset="0%" style="stop-color:#f59e0b"/>
      <stop offset="100%" style="stop-color:#d97706"/>
    </linearGradient>
    <linearGradient id="re4DoormatGrad" x1="0%" y1="0%" x2="0%" y2="100%">
      <stop offset="0%" style="stop-color:#92400e"/>
      <stop offset="100%" style="stop-color:#78350f"/>
    </linearGradient>
    <filter id="re4Glow">
      <feGaussianBlur stdDeviation="3" result="blur"/>
      <feMerge>
        <feMergeNode in="blur"/>
        <feMergeNode in="SourceGraphic"/>
      </feMerge>
    </filter>
    <filter id="re4SoftGlow">
      <feGaussianBlur stdDeviation="6" result="blur"/>
      <feMerge>
        <feMergeNode in="blur"/>
        <feMergeNode in="SourceGraphic"/>
      </feMerge>
    </filter>
    <filter id="re4Shadow">
      <feDropShadow dx="0" dy="2" stdDeviation="3" flood-color="#000" flood-opacity="0.5"/>
    </filter>
  </defs>

  <!-- Background -->
  <rect width="800" height="400" fill="url(#re4BgGrad)"/>

  <!-- Subtle circuit board grid pattern -->
  <g opacity="0.04" stroke="#2dd4bf" stroke-width="0.5">
    <line x1="0" y1="50" x2="800" y2="50"/>
    <line x1="0" y1="100" x2="800" y2="100"/>
    <line x1="0" y1="150" x2="800" y2="150"/>
    <line x1="0" y1="200" x2="800" y2="200"/>
    <line x1="0" y1="250" x2="800" y2="250"/>
    <line x1="0" y1="300" x2="800" y2="300"/>
    <line x1="0" y1="350" x2="800" y2="350"/>
    <line x1="100" y1="0" x2="100" y2="400"/>
    <line x1="200" y1="0" x2="200" y2="400"/>
    <line x1="300" y1="0" x2="300" y2="400"/>
    <line x1="400" y1="0" x2="400" y2="400"/>
    <line x1="500" y1="0" x2="500" y2="400"/>
    <line x1="600" y1="0" x2="600" y2="400"/>
    <line x1="700" y1="0" x2="700" y2="400"/>
  </g>

  <!-- Circuit traces in background -->
  <g opacity="0.06" stroke="#2dd4bf" stroke-width="1" fill="none">
    <path d="M0 80 H120 V140 H200"/>
    <path d="M800 120 H680 V180 H600"/>
    <path d="M0 320 H80 V260 H160"/>
    <path d="M800 300 H720 V240 H640"/>
    <!-- Solder dots -->
    <circle cx="120" cy="80" r="2" fill="#2dd4bf"/>
    <circle cx="120" cy="140" r="2" fill="#2dd4bf"/>
    <circle cx="200" cy="140" r="2" fill="#2dd4bf"/>
    <circle cx="680" cy="120" r="2" fill="#2dd4bf"/>
    <circle cx="680" cy="180" r="2" fill="#2dd4bf"/>
    <circle cx="600" cy="180" r="2" fill="#2dd4bf"/>
  </g>

  <!-- ==================== -->
  <!-- LEFT: Modded Game Controller -->
  <!-- ==================== -->
  <g transform="translate(55, 100)" filter="url(#re4Shadow)">
    <!-- Controller body - irregular/hacked shape -->
    <path d="M30 60 Q30 30, 60 25 L120 25 Q150 30, 150 60 L160 100 Q165 130, 145 140 L120 145 Q100 150, 80 145 L60 140 Q35 130, 40 100 Z"
          fill="url(#re4ControllerBody)" stroke="#4b5563" stroke-width="1.5"/>

    <!-- D-pad -->
    <g transform="translate(60, 65)">
      <rect x="-5" y="-15" width="10" height="30" rx="2" fill="#6b7280"/>
      <rect x="-15" y="-5" width="30" height="10" rx="2" fill="#6b7280"/>
      <rect x="-3" y="-3" width="6" height="6" rx="1" fill="#4b5563"/>
    </g>

    <!-- Action buttons (ABXY style) -->
    <g transform="translate(120, 65)">
      <circle cx="0" cy="-10" r="5" fill="#3b82f6" opacity="0.8"/>
      <circle cx="10" cy="0" r="5" fill="#ef4444" opacity="0.8"/>
      <circle cx="-10" cy="0" r="5" fill="#22c55e" opacity="0.8"/>
      <circle cx="0" cy="10" r="5" fill="#eab308" opacity="0.8"/>
    </g>

    <!-- Analog sticks -->
    <circle cx="75" cy="105" r="10" fill="#374151" stroke="#6b7280" stroke-width="1"/>
    <circle cx="75" cy="105" r="6" fill="#4b5563"/>
    <circle cx="105" cy="105" r="10" fill="#374151" stroke="#6b7280" stroke-width="1"/>
    <circle cx="105" cy="105" r="6" fill="#4b5563"/>

    <!-- Screws exposed (hacked open look) -->
    <circle cx="45" cy="40" r="3" fill="#1f2937" stroke="#9ca3af" stroke-width="0.5"/>
    <line x1="43" y1="40" x2="47" y2="40" stroke="#9ca3af" stroke-width="0.5"/>
    <circle cx="135" cy="40" r="3" fill="#1f2937" stroke="#9ca3af" stroke-width="0.5"/>
    <line x1="133" y1="40" x2="137" y2="40" stroke="#9ca3af" stroke-width="0.5"/>

    <!-- Panel partially removed / exposed circuit board -->
    <path d="M130 85 L160 75 L170 95 L155 110 L135 105 Z" fill="#065f46" stroke="#10b981" stroke-width="0.5" opacity="0.6"/>
    <!-- Tiny chip on exposed board -->
    <rect x="140" y="85" width="12" height="8" rx="1" fill="#0f172a" stroke="#10b981" stroke-width="0.3"/>
    <!-- Chip pins -->
    <line x1="142" y1="84" x2="142" y2="85" stroke="#10b981" stroke-width="0.3"/>
    <line x1="145" y1="84" x2="145" y2="85" stroke="#10b981" stroke-width="0.3"/>
    <line x1="148" y1="84" x2="148" y2="85" stroke="#10b981" stroke-width="0.3"/>
    <line x1="151" y1="84" x2="151" y2="85" stroke="#10b981" stroke-width="0.3"/>

    <!-- Sparking solder point -->
    <g transform="translate(155, 90)" opacity="0.8">
      <circle cx="0" cy="0" r="1.5" fill="#fbbf24"/>
      <line x1="-4" y1="-3" x2="-2" y2="-1" stroke="#fbbf24" stroke-width="0.5"/>
      <line x1="2" y1="-4" x2="1" y2="-2" stroke="#fbbf24" stroke-width="0.5"/>
      <line x1="3" y1="2" x2="1" y2="1" stroke="#fbbf24" stroke-width="0.5"/>
    </g>
  </g>

  <!-- ==================== -->
  <!-- Wires from controller to terminal -->
  <!-- ==================== -->

  <!-- Wire 1: Red-orange-yellow (power/auth) -->
  <path d="M220 175 C260 175, 270 145, 310 140 C340 136, 350 155, 365 155"
        fill="none" stroke="url(#re4WireGrad1)" stroke-width="2.5" stroke-linecap="round" opacity="0.9"/>
  <!-- Wire connector dots -->
  <circle cx="220" cy="175" r="3" fill="#ef4444"/>
  <circle cx="365" cy="155" r="3" fill="#eab308"/>

  <!-- Wire 2: Teal (data) -->
  <path d="M215 195 C250 195, 280 210, 310 200 C340 190, 350 175, 365 175"
        fill="none" stroke="url(#re4WireGrad2)" stroke-width="2" stroke-linecap="round" opacity="0.8"/>
  <circle cx="215" cy="195" r="2.5" fill="#22d3ee"/>
  <circle cx="365" cy="175" r="2.5" fill="#2dd4bf"/>

  <!-- Wire 3: Purple (control) -->
  <path d="M210 215 C240 220, 270 240, 310 225 C340 213, 355 195, 365 195"
        fill="none" stroke="url(#re4WireGrad3)" stroke-width="1.5" stroke-linecap="round" opacity="0.7"/>
  <circle cx="210" cy="215" r="2" fill="#a78bfa"/>
  <circle cx="365" cy="195" r="2" fill="#818cf8"/>

  <!-- ==================== -->
  <!-- CENTER-RIGHT: Terminal Window -->
  <!-- ==================== -->
  <g transform="translate(370, 100)" filter="url(#re4Shadow)">
    <!-- Terminal frame -->
    <rect x="0" y="0" width="210" height="155" rx="8" fill="url(#re4TermGrad)" stroke="#334155" stroke-width="1.5"/>

    <!-- Title bar -->
    <rect x="0" y="0" width="210" height="22" rx="8" fill="#1e293b"/>
    <rect x="0" y="12" width="210" height="10" fill="#1e293b"/>
    <!-- Window dots -->
    <circle cx="14" cy="11" r="4" fill="#ef4444" opacity="0.8"/>
    <circle cx="28" cy="11" r="4" fill="#eab308" opacity="0.8"/>
    <circle cx="42" cy="11" r="4" fill="#22c55e" opacity="0.8"/>

    <!-- Terminal content: code lines (decorative, no text) -->
    <!-- Line 1: import statement -->
    <rect x="12" y="30" width="38" height="6" rx="1" fill="#c084fc" opacity="0.7"/>
    <rect x="54" y="30" width="52" height="6" rx="1" fill="#67e8f9" opacity="0.6"/>

    <!-- Line 2: class definition -->
    <rect x="12" y="42" width="28" height="6" rx="1" fill="#c084fc" opacity="0.7"/>
    <rect x="44" y="42" width="70" height="6" rx="1" fill="#fde68a" opacity="0.6"/>

    <!-- Line 3: indented method -->
    <rect x="24" y="54" width="22" height="6" rx="1" fill="#86efac" opacity="0.6"/>
    <rect x="50" y="54" width="62" height="6" rx="1" fill="#94a3b8" opacity="0.4"/>

    <!-- Line 4: auth call -->
    <rect x="24" y="66" width="42" height="6" rx="1" fill="#86efac" opacity="0.6"/>
    <rect x="70" y="66" width="12" height="6" rx="1" fill="#fbbf24" opacity="0.6"/>
    <rect x="86" y="66" width="48" height="6" rx="1" fill="#67e8f9" opacity="0.5"/>

    <!-- Line 5: connect -->
    <rect x="24" y="78" width="36" height="6" rx="1" fill="#86efac" opacity="0.6"/>
    <rect x="64" y="78" width="56" height="6" rx="1" fill="#67e8f9" opacity="0.5"/>

    <!-- Line 6: response -->
    <rect x="24" y="90" width="18" height="6" rx="1" fill="#c084fc" opacity="0.7"/>
    <rect x="46" y="90" width="40" height="6" rx="1" fill="#94a3b8" opacity="0.4"/>

    <!-- Cursor blink -->
    <rect x="12" y="106" width="6" height="8" rx="1" fill="#22c55e" opacity="0.8">
      <animate attributeName="opacity" values="0.8;0.2;0.8" dur="1.5s" repeatCount="indefinite"/>
    </rect>

    <!-- Python logo watermark (simplified two-snake logo) -->
    <g transform="translate(168, 120)" opacity="0.3">
      <!-- Blue half -->
      <path d="M0 -8 Q0 -14, 6 -14 L12 -14 Q18 -14, 18 -8 L18 0 Q18 6, 12 6 L6 6 Q0 6, 0 0 Z"
            fill="#306998"/>
      <!-- Yellow half -->
      <path d="M0 0 Q0 -6, 6 -6 L12 -6 Q18 -6, 18 0 L18 8 Q18 14, 12 14 L6 14 Q0 14, 0 8 Z"
            fill="#ffd43b"/>
      <!-- Eyes -->
      <circle cx="7" cy="-9" r="1.5" fill="white"/>
      <circle cx="11" cy="9" r="1.5" fill="white"/>
    </g>
  </g>

  <!-- ==================== -->
  <!-- BOTTOM: 4-Padlock Authentication Chain -->
  <!-- ==================== -->
  <g transform="translate(115, 295)">
    <!-- Connection line (gold path) behind padlocks -->
    <line x1="0" y1="35" x2="570" y2="35" stroke="#f59e0b" stroke-width="2" opacity="0.2"/>
    <!-- Animated gold pulse along the chain -->
    <line x1="0" y1="35" x2="570" y2="35" stroke="url(#re4GoldPath)" stroke-width="2" opacity="0.6"
          stroke-dasharray="30 540" stroke-dashoffset="0">
      <animate attributeName="stroke-dashoffset" from="570" to="-570" dur="4s" repeatCount="indefinite"/>
    </line>

    <!-- Padlock 1: CLOSED (initial state) -->
    <g transform="translate(0, 10)">
      <!-- Shackle (closed) -->
      <path d="M15 20 L15 10 Q15 0, 25 0 Q35 0, 35 10 L35 20" fill="none" stroke="#9ca3af" stroke-width="3" stroke-linecap="round"/>
      <!-- Body -->
      <rect x="10" y="20" width="30" height="25" rx="4" fill="#4b5563" stroke="#6b7280" stroke-width="1"/>
      <!-- Keyhole -->
      <circle cx="25" cy="29" r="3" fill="#1f2937"/>
      <rect x="23.5" y="30" width="3" height="6" rx="0.5" fill="#1f2937"/>
    </g>

    <!-- Arrow 1-2 -->
    <g transform="translate(55, 30)" opacity="0.7">
      <line x1="0" y1="5" x2="70" y2="5" stroke="#f59e0b" stroke-width="1.5" stroke-dasharray="4 3"/>
      <polygon points="72,1 72,9 82,5" fill="#f59e0b"/>
    </g>

    <!-- Padlock 2: Opening (shackle up) -->
    <g transform="translate(145, 10)">
      <!-- Shackle (opening - right side lifted) -->
      <path d="M15 20 L15 10 Q15 0, 25 0 Q35 0, 35 10 L35 14" fill="none" stroke="#d97706" stroke-width="3" stroke-linecap="round"/>
      <path d="M35 14 L35 6" fill="none" stroke="#d97706" stroke-width="3" stroke-linecap="round" transform="rotate(-30, 35, 14)"/>
      <!-- Body -->
      <rect x="10" y="20" width="30" height="25" rx="4" fill="#b45309" stroke="#d97706" stroke-width="1"/>
      <!-- Keyhole (with glow) -->
      <circle cx="25" cy="29" r="3" fill="#fbbf24" opacity="0.6"/>
      <rect x="23.5" y="30" width="3" height="6" rx="0.5" fill="#fbbf24" opacity="0.6"/>
    </g>

    <!-- Arrow 2-3 -->
    <g transform="translate(200, 30)" opacity="0.7">
      <line x1="0" y1="5" x2="70" y2="5" stroke="#f59e0b" stroke-width="1.5" stroke-dasharray="4 3"/>
      <polygon points="72,1 72,9 82,5" fill="#f59e0b"/>
    </g>

    <!-- Padlock 3: Open (shackle fully up) -->
    <g transform="translate(290, 10)">
      <!-- Shackle (open) -->
      <path d="M15 20 L15 10 Q15 0, 25 0 Q35 0, 35 10 L35 5" fill="none" stroke="#22c55e" stroke-width="3" stroke-linecap="round" transform="rotate(-45, 35, 10)"/>
      <path d="M15 20 L15 10 Q15 0, 25 0" fill="none" stroke="#22c55e" stroke-width="3" stroke-linecap="round"/>
      <!-- Body -->
      <rect x="10" y="20" width="30" height="25" rx="4" fill="#15803d" stroke="#22c55e" stroke-width="1"/>
      <!-- Check mark instead of keyhole -->
      <path d="M18 32 L23 37 L33 26" fill="none" stroke="#86efac" stroke-width="2" stroke-linecap="round" stroke-linejoin="round"/>
    </g>

    <!-- Arrow 3-4 -->
    <g transform="translate(345, 30)" opacity="0.7">
      <line x1="0" y1="5" x2="70" y2="5" stroke="#22c55e" stroke-width="1.5" stroke-dasharray="4 3"/>
      <polygon points="72,1 72,9 82,5" fill="#22c55e"/>
    </g>

    <!-- Padlock 4: Fully unlocked (green glow, connected) -->
    <g transform="translate(435, 10)" filter="url(#re4Glow)">
      <!-- Shackle (wide open) -->
      <path d="M15 20 L15 10 Q15 0, 25 0" fill="none" stroke="#4ade80" stroke-width="3" stroke-linecap="round"/>
      <path d="Q35 0, 35 10 L35 2" fill="none" stroke="#4ade80" stroke-width="3" stroke-linecap="round" transform="translate(0,-6) rotate(-60, 35, 10)"/>
      <!-- Body -->
      <rect x="10" y="20" width="30" height="25" rx="4" fill="url(#re4LockOpen)" stroke="#86efac" stroke-width="1.5"/>
      <!-- Star/burst (success) -->
      <g transform="translate(25, 32)">
        <polygon points="0,-6 2,-2 6,-2 3,1 4,5 0,3 -4,5 -3,1 -6,-2 -2,-2" fill="#fde68a" opacity="0.9"/>
      </g>
    </g>

    <!-- Connected checkmark at end -->
    <g transform="translate(490, 25)">
      <circle cx="15" cy="10" r="12" fill="#22c55e" opacity="0.15"/>
      <circle cx="15" cy="10" r="8" fill="#22c55e" opacity="0.25"/>
      <path d="M9 10 L13 14 L21 5" fill="none" stroke="#4ade80" stroke-width="2" stroke-linecap="round" stroke-linejoin="round"/>
    </g>
  </g>

  <!-- ==================== -->
  <!-- Key Under Doormat -->
  <!-- ==================== -->
  <g transform="translate(598, 110)">
    <!-- Doormat -->
    <path d="M0 55 L80 55 L75 40 L5 40 Z" fill="url(#re4DoormatGrad)" stroke="#a16207" stroke-width="0.5"/>
    <!-- Doormat texture (horizontal lines) -->
    <line x1="10" y1="44" x2="70" y2="44" stroke="#a16207" stroke-width="0.5" opacity="0.5"/>
    <line x1="8" y1="48" x2="72" y2="48" stroke="#a16207" stroke-width="0.5" opacity="0.5"/>
    <line x1="6" y1="52" x2="74" y2="52" stroke="#a16207" stroke-width="0.5" opacity="0.5"/>

    <!-- Key peeking out from under mat -->
    <g transform="translate(20, 42)">
      <!-- Key shaft -->
      <rect x="15" y="3" width="32" height="4" rx="1" fill="#fbbf24" opacity="0.85"/>
      <!-- Key teeth -->
      <rect x="42" y="0" width="3" height="10" rx="0.5" fill="#fbbf24" opacity="0.85"/>
      <rect x="47" y="2" width="3" height="8" rx="0.5" fill="#fbbf24" opacity="0.85"/>
      <rect x="52" y="1" width="3" height="9" rx="0.5" fill="#fbbf24" opacity="0.85"/>
      <!-- Key ring -->
      <circle cx="10" cy="5" r="8" fill="none" stroke="#fbbf24" stroke-width="3" opacity="0.85"/>
      <!-- Gleam -->
      <circle cx="6" cy="2" r="1.5" fill="white" opacity="0.4"/>
    </g>

    <!-- Red accent glow around key area -->
    <ellipse cx="40" cy="47" rx="35" ry="8" fill="#ef4444" opacity="0.08"/>

    <!-- Exclamation mark / warning indicator -->
    <g transform="translate(65, 18)">
      <!-- Triangle -->
      <polygon points="10,0 20,18 0,18" fill="none" stroke="#ef4444" stroke-width="1.5" opacity="0.7"/>
      <!-- ! mark (using shapes) -->
      <rect x="8.5" y="5" width="3" height="7" rx="1" fill="#ef4444" opacity="0.7"/>
      <circle cx="10" cy="15" r="1.5" fill="#ef4444" opacity="0.7"/>
    </g>
  </g>

  <!-- ==================== -->
  <!-- Python Logo (connecting to controller) -->
  <!-- ==================== -->
  <g transform="translate(265, 55)">
    <!-- Python logo (two intertwined snakes, simplified) -->
    <!-- Blue snake (top-left) -->
    <path d="M20 0 Q0 0, 0 12 L0 24 Q0 36, 12 36 L24 36 Q36 36, 36 24 L36 12 Q36 6, 30 4 L20 4 Z"
          fill="url(#re4PyBlue)" opacity="0.9"/>
    <!-- Eye -->
    <circle cx="12" cy="10" r="2.5" fill="white" opacity="0.9"/>
    <circle cx="12" cy="10" r="1" fill="#0a0e27"/>

    <!-- Yellow snake (bottom-right) -->
    <path d="M16 8 Q36 8, 36 20 L36 32 Q36 44, 24 44 L12 44 Q0 44, 0 32 L0 20 Q0 14, 6 12 L16 12 Z"
          fill="url(#re4PyYellow)" opacity="0.9" transform="translate(4, 4)"/>
    <!-- Eye -->
    <circle cx="28" cy="38" r="2.5" fill="white" opacity="0.9"/>
    <circle cx="28" cy="38" r="1" fill="#0a0e27"/>

    <!-- Teal connection line from Python to terminal -->
    <path d="M40 24 C55 24, 70 30, 85 35 C100 40, 115 52, 125 55"
          fill="none" stroke="#2dd4bf" stroke-width="1.5" stroke-dasharray="4 2" opacity="0.6"/>
  </g>

  <!-- ==================== -->
  <!-- "Part 4" Badge (top-right corner) -->
  <!-- ==================== -->
  <g transform="translate(700, 15)">
    <!-- Badge background -->
    <rect x="0" y="0" width="80" height="34" rx="6" fill="url(#re4BadgeGrad)" filter="url(#re4Shadow)"/>
    <rect x="2" y="2" width="76" height="30" rx="5" fill="none" stroke="#fef3c7" stroke-width="0.5" opacity="0.4"/>

    <!-- "4" as a path shape (large, bold) -->
    <g transform="translate(14, 5)">
      <!-- Stylized "PT" (Part) small -->
      <path d="M0 6 L0 0 L4 0 Q7 0, 7 3 Q7 6, 4 6 L2 6 L2 10" fill="none" stroke="#fef3c7" stroke-width="1.2" stroke-linecap="round" stroke-linejoin="round"/>
      <path d="M10 0 L10 10 M7 0 L13 0" fill="none" stroke="#fef3c7" stroke-width="1.2" stroke-linecap="round"/>
    </g>

    <!-- Large "4" -->
    <g transform="translate(40, 3)">
      <path d="M22 0 L22 24 M22 16 L0 16 L18 0" fill="none" stroke="white" stroke-width="3.5" stroke-linecap="round" stroke-linejoin="round"/>
    </g>
  </g>

  <!-- ==================== -->
  <!-- Decorative: floating data particles -->
  <!-- ==================== -->
  <g opacity="0.3">
    <!-- Small dots/particles floating around -->
    <circle cx="50" cy="30" r="1.5" fill="#2dd4bf">
      <animate attributeName="cy" values="30;25;30" dur="3s" repeatCount="indefinite"/>
    </circle>
    <circle cx="180" cy="60" r="1" fill="#fbbf24">
      <animate attributeName="cy" values="60;55;60" dur="2.5s" repeatCount="indefinite"/>
    </circle>
    <circle cx="340" cy="280" r="1.5" fill="#818cf8">
      <animate attributeName="cy" values="280;275;280" dur="3.5s" repeatCount="indefinite"/>
    </circle>
    <circle cx="550" cy="85" r="1" fill="#22c55e">
      <animate attributeName="cy" values="85;80;85" dur="2.8s" repeatCount="indefinite"/>
    </circle>
    <circle cx="750" cy="350" r="1.5" fill="#f59e0b">
      <animate attributeName="cy" values="350;345;350" dur="3.2s" repeatCount="indefinite"/>
    </circle>
    <circle cx="420" cy="45" r="1" fill="#ef4444">
      <animate attributeName="cy" values="45;40;45" dur="2.2s" repeatCount="indefinite"/>
    </circle>

    <!-- Binary-style tiny rectangles -->
    <rect x="90" y="370" width="3" height="3" rx="0.5" fill="#2dd4bf"/>
    <rect x="97" y="370" width="3" height="3" rx="0.5" fill="#2dd4bf"/>
    <rect x="104" y="370" width="3" height="3" rx="0.5" fill="#2dd4bf" opacity="0.3"/>
    <rect x="111" y="370" width="3" height="3" rx="0.5" fill="#2dd4bf"/>
    <rect x="118" y="370" width="3" height="3" rx="0.5" fill="#2dd4bf" opacity="0.3"/>
    <rect x="125" y="370" width="3" height="3" rx="0.5" fill="#2dd4bf"/>
    <rect x="132" y="370" width="3" height="3" rx="0.5" fill="#2dd4bf"/>
    <rect x="139" y="370" width="3" height="3" rx="0.5" fill="#2dd4bf" opacity="0.3"/>

    <rect x="660" y="375" width="3" height="3" rx="0.5" fill="#f59e0b"/>
    <rect x="667" y="375" width="3" height="3" rx="0.5" fill="#f59e0b" opacity="0.3"/>
    <rect x="674" y="375" width="3" height="3" rx="0.5" fill="#f59e0b"/>
    <rect x="681" y="375" width="3" height="3" rx="0.5" fill="#f59e0b"/>
    <rect x="688" y="375" width="3" height="3" rx="0.5" fill="#f59e0b" opacity="0.3"/>
    <rect x="695" y="375" width="3" height="3" rx="0.5" fill="#f59e0b"/>
  </g>

  <!-- ==================== -->
  <!-- Decorative: small wrench near controller (DIY energy) -->
  <!-- ==================== -->
  <g transform="translate(30, 260)" opacity="0.4">
    <!-- Wrench shape -->
    <path d="M0 8 Q0 0, 8 0 Q12 0, 14 4 L30 4 L30 8 L14 8 Q12 12, 8 12 Q0 12, 0 8 Z" fill="#9ca3af"/>
    <circle cx="8" cy="6" r="2" fill="#4b5563"/>
  </g>

  <!-- Small soldering iron near controller -->
  <g transform="translate(210, 240)" opacity="0.35">
    <rect x="0" y="0" width="4" height="18" rx="1" fill="#f59e0b" transform="rotate(-30)"/>
    <polygon points="-1,18 5,18 2,26" fill="#9ca3af" transform="rotate(-30)"/>
    <!-- Tip glow -->
    <circle cx="-8" cy="22" r="2" fill="#ef4444" opacity="0.6"/>
  </g>

  <!-- ==================== -->
  <!-- Subtle vignette overlay -->
  <!-- ==================== -->
  <rect width="800" height="400" fill="url(#re4BgGrad)" opacity="0" pointer-events="none"/>

  <!-- Corner shadows for depth -->
  <rect x="0" y="0" width="800" height="400" rx="0" fill="none" stroke="#000" stroke-width="60" opacity="0.15" mask="none" style="pointer-events:none"/>
</svg>