<svg xmlns="http://www.w3.org/2000/svg" viewBox="0 0 800 450">
  <defs>
    <linearGradient id="bgGrad" x1="0%" y1="0%" x2="100%" y2="100%">
      <stop offset="0%" style="stop-color:#1a1a2e"/>
      <stop offset="100%" style="stop-color:#16213e"/>
    </linearGradient>
    <linearGradient id="orangeGrad" x1="0%" y1="0%" x2="100%" y2="100%">
      <stop offset="0%" style="stop-color:#f97316"/>
      <stop offset="100%" style="stop-color:#fb923c"/>
    </linearGradient>
    <linearGradient id="blueGrad" x1="0%" y1="0%" x2="100%" y2="100%">
      <stop offset="0%" style="stop-color:#0077b5"/>
      <stop offset="100%" style="stop-color:#00a0dc"/>
    </linearGradient>
  </defs>

  <!-- Background -->
  <rect width="800" height="450" fill="url(#bgGrad)"/>

  <!-- Subtle grid -->
  <g opacity="0.03">
    <pattern id="grid" width="40" height="40" patternUnits="userSpaceOnUse">
      <path d="M 40 0 L 0 0 0 40" fill="none" stroke="#fff" stroke-width="1"/>
    </pattern>
    <rect width="800" height="450" fill="url(#grid)"/>
  </g>

  <!-- Title -->
  <text x="400" y="40" font-family="Arial, sans-serif" font-size="20" fill="#fff" text-anchor="middle" font-weight="bold">
    Write Once, Share Everywhere
  </text>

  <!-- Center: Blog/RSS icon -->
  <g transform="translate(340, 140)">
    <!-- Blog document -->
    <rect x="0" y="0" width="120" height="150" rx="8" fill="#2a2a4a" stroke="#4a4a6a" stroke-width="2"/>
    <rect x="15" y="20" width="60" height="8" rx="2" fill="#f97316"/>
    <rect x="15" y="35" width="90" height="6" rx="2" fill="#5a6a8a"/>
    <rect x="15" y="48" width="75" height="6" rx="2" fill="#5a6a8a"/>
    <rect x="15" y="61" width="85" height="6" rx="2" fill="#5a6a8a"/>
    <rect x="15" y="80" width="90" height="6" rx="2" fill="#5a6a8a"/>
    <rect x="15" y="93" width="65" height="6" rx="2" fill="#5a6a8a"/>

    <!-- RSS icon on doc -->
    <g transform="translate(75, 110)">
      <circle cx="20" cy="20" r="18" fill="url(#orangeGrad)"/>
      <circle cx="12" cy="28" r="4" fill="#fff"/>
      <path d="M12,16 Q12,28 24,28" stroke="#fff" stroke-width="3" fill="none"/>
      <path d="M12,8 Q12,28 32,28" stroke="#fff" stroke-width="3" fill="none"/>
    </g>
  </g>

  <!-- Left arrow to LinkedIn -->
  <g transform="translate(180, 200)">
    <path d="M150,20 Q100,20 80,80" stroke="#f97316" stroke-width="3" fill="none" stroke-dasharray="8,4"/>
    <polygon points="75,75 85,85 70,85" fill="#f97316"/>
  </g>

  <!-- Right arrow to Twitter/X -->
  <g transform="translate(470, 200)">
    <path d="M0,20 Q50,20 70,80" stroke="#f97316" stroke-width="3" fill="none" stroke-dasharray="8,4"/>
    <polygon points="75,75 65,85 80,85" fill="#f97316"/>
  </g>

  <!-- Up arrow to Newsletter -->
  <g transform="translate(385, 80)">
    <path d="M15,60 L15,20" stroke="#f97316" stroke-width="3" fill="none" stroke-dasharray="8,4"/>
    <polygon points="15,15 10,25 20,25" fill="#f97316"/>
  </g>

  <!-- LinkedIn icon (left) -->
  <g transform="translate(80, 290)">
    <rect x="0" y="0" width="100" height="100" rx="12" fill="url(#blueGrad)"/>
    <text x="50" y="70" font-family="Arial, sans-serif" font-size="50" fill="#fff" text-anchor="middle" font-weight="bold">in</text>
  </g>
  <text x="130" y="410" font-family="Arial, sans-serif" font-size="12" fill="#94a3b8" text-anchor="middle">LinkedIn</text>

  <!-- Twitter/X icon (right) -->
  <g transform="translate(620, 290)">
    <rect x="0" y="0" width="100" height="100" rx="12" fill="#1a1a2e" stroke="#4a4a6a" stroke-width="2"/>
    <text x="50" y="68" font-family="Arial, sans-serif" font-size="45" fill="#fff" text-anchor="middle" font-weight="bold">X</text>
  </g>
  <text x="670" y="410" font-family="Arial, sans-serif" font-size="12" fill="#94a3b8" text-anchor="middle">Twitter/X</text>

  <!-- Newsletter icon (top) -->
  <g transform="translate(350, 60)">
    <rect x="0" y="-45" width="100" height="70" rx="8" fill="#2a2a4a" stroke="#4a4a6a" stroke-width="2"/>
    <!-- Envelope shape -->
    <path d="M10,-35 L50,-10 L90,-35" stroke="#10b981" stroke-width="2" fill="none"/>
    <rect x="15" y="-30" width="70" height="45" rx="4" fill="none" stroke="#10b981" stroke-width="2"/>
  </g>
  <text x="400" y="90" font-family="Arial, sans-serif" font-size="11" fill="#94a3b8" text-anchor="middle">Newsletter</text>

  <!-- Zapier/automation badge -->
  <g transform="translate(520, 170)">
    <rect x="0" y="0" width="80" height="30" rx="4" fill="#ff4a00" opacity="0.9"/>
    <text x="40" y="20" font-family="Arial, sans-serif" font-size="11" fill="#fff" text-anchor="middle" font-weight="bold">Zapier</text>
  </g>

  <!-- IFTTT badge -->
  <g transform="translate(200, 170)">
    <rect x="0" y="0" width="70" height="30" rx="4" fill="#000" stroke="#333" stroke-width="1"/>
    <text x="35" y="20" font-family="Arial, sans-serif" font-size="11" fill="#fff" text-anchor="middle" font-weight="bold">IFTTT</text>
  </g>

  <!-- Bottom: feed URLs -->
  <g transform="translate(280, 420)">
    <rect x="0" y="0" width="240" height="25" rx="4" fill="#1e293b" stroke="#334155" stroke-width="1"/>
    <text x="120" y="17" font-family="monospace" font-size="10" fill="#94a3b8" text-anchor="middle">/feed.xml  •  /feed.json</text>
  </g>
</svg>