<svg xmlns="http://www.w3.org/2000/svg" viewBox="0 0 1200 630">
  <defs>
    <linearGradient id="bg" x1="0%" y1="0%" x2="100%" y2="100%">
      <stop offset="0%" style="stop-color:#1a1a2e"/>
      <stop offset="100%" style="stop-color:#1e293b"/>
    </linearGradient>
    <linearGradient id="draft" x1="0%" y1="0%" x2="0%" y2="100%">
      <stop offset="0%" style="stop-color:#fbbf24"/>
      <stop offset="100%" style="stop-color:#d97706"/>
    </linearGradient>
    <linearGradient id="revision" x1="0%" y1="0%" x2="0%" y2="100%">
      <stop offset="0%" style="stop-color:#3b82f6"/>
      <stop offset="100%" style="stop-color:#1d4ed8"/>
    </linearGradient>
    <linearGradient id="final" x1="0%" y1="0%" x2="0%" y2="100%">
      <stop offset="0%" style="stop-color:#22c55e"/>
      <stop offset="100%" style="stop-color:#15803d"/>
    </linearGradient>
  </defs>

  <!-- Background -->
  <rect width="1200" height="630" fill="url(#bg)"/>

  <!-- Grid -->
  <g stroke="#334155" stroke-width="0.5" opacity="0.3">
    <line x1="0" y1="157" x2="1200" y2="157"/>
    <line x1="0" y1="315" x2="1200" y2="315"/>
    <line x1="0" y1="472" x2="1200" y2="472"/>
    <line x1="400" y1="0" x2="400" y2="630"/>
    <line x1="800" y1="0" x2="800" y2="630"/>
  </g>

  <!-- Phase 1: Draft (messy, energetic) -->
  <g transform="translate(200, 280)">
    <rect x="-120" y="-150" width="240" height="300" rx="8" fill="#1e293b" stroke="url(#draft)" stroke-width="3"/>
    <!-- Messy text lines -->
    <g opacity="0.7">
      <rect x="-90" y="-120" width="160" height="8" fill="#fbbf24"/>
      <rect x="-90" y="-100" width="140" height="8" fill="#fbbf24"/>
      <rect x="-90" y="-80" width="170" height="8" fill="#fbbf24"/>
      <rect x="-90" y="-60" width="120" height="8" fill="#fbbf24"/>
      <rect x="-90" y="-40" width="155" height="8" fill="#fbbf24"/>
      <!-- Crossed out / messy -->
      <line x1="-90" y1="-16" x2="50" y2="-16" stroke="#ef4444" stroke-width="2"/>
      <rect x="-90" y="-20" width="130" height="8" fill="#fbbf24" opacity="0.5"/>
      <rect x="-90" y="0" width="145" height="8" fill="#fbbf24"/>
      <rect x="-90" y="20" width="100" height="8" fill="#fbbf24"/>
      <!-- Margin notes -->
      <text x="80" y="-75" fill="#f97316" font-family="monospace" font-size="10" transform="rotate(15, 80, -75)">YES!</text>
      <text x="75" y="10" fill="#f97316" font-family="monospace" font-size="8" transform="rotate(-10, 75, 10)">expand?</text>
    </g>
    <!-- Energy sparks -->
    <g fill="#fbbf24" opacity="0.6">
      <circle cx="-130" cy="-100" r="4"/>
      <circle cx="130" cy="-80" r="3"/>
      <circle cx="-125" cy="50" r="3"/>
    </g>
    <!-- Label -->
    <text x="0" y="180" text-anchor="middle" fill="#fbbf24" font-family="system-ui" font-size="16" font-weight="bold">DISCOVER</text>
    <text x="0" y="200" text-anchor="middle" fill="#94a3b8" font-family="system-ui" font-size="12">Fast &amp; Messy</text>
  </g>

  <!-- Arrow 1 -->
  <g transform="translate(370, 280)">
    <line x1="0" y1="0" x2="50" y2="0" stroke="#64748b" stroke-width="2"/>
    <polygon points="50,-6 65,0 50,6" fill="#64748b"/>
  </g>

  <!-- Phase 2: Structural Revision -->
  <g transform="translate(600, 280)">
    <rect x="-120" y="-150" width="240" height="300" rx="8" fill="#1e293b" stroke="url(#revision)" stroke-width="3"/>
    <!-- Organized text lines -->
    <g opacity="0.7">
      <rect x="-90" y="-120" width="160" height="8" fill="#3b82f6"/>
      <rect x="-90" y="-100" width="160" height="8" fill="#3b82f6"/>
      <rect x="-90" y="-80" width="160" height="8" fill="#3b82f6"/>
      <!-- Section break -->
      <line x1="-90" y1="-60" x2="70" y2="-60" stroke="#3b82f6" stroke-width="1" stroke-dasharray="4,4"/>
      <rect x="-90" y="-40" width="160" height="8" fill="#3b82f6"/>
      <rect x="-90" y="-20" width="160" height="8" fill="#3b82f6"/>
      <rect x="-90" y="0" width="160" height="8" fill="#3b82f6"/>
      <!-- Another section -->
      <line x1="-90" y1="20" x2="70" y2="20" stroke="#3b82f6" stroke-width="1" stroke-dasharray="4,4"/>
      <rect x="-90" y="40" width="160" height="8" fill="#3b82f6"/>
      <rect x="-90" y="60" width="140" height="8" fill="#3b82f6"/>
    </g>
    <!-- Structure indicators -->
    <g stroke="#60a5fa" stroke-width="1" fill="none">
      <rect x="-100" y="-130" width="10" height="60" rx="2"/>
      <rect x="-100" y="-50" width="10" height="60" rx="2"/>
      <rect x="-100" y="30" width="10" height="50" rx="2"/>
    </g>
    <!-- Label -->
    <text x="0" y="180" text-anchor="middle" fill="#3b82f6" font-family="system-ui" font-size="16" font-weight="bold">STRUCTURE</text>
    <text x="0" y="200" text-anchor="middle" fill="#94a3b8" font-family="system-ui" font-size="12">Slow &amp; Analytical</text>
  </g>

  <!-- Arrow 2 -->
  <g transform="translate(770, 280)">
    <line x1="0" y1="0" x2="50" y2="0" stroke="#64748b" stroke-width="2"/>
    <polygon points="50,-6 65,0 50,6" fill="#64748b"/>
  </g>

  <!-- Phase 3: Voice Restoration -->
  <g transform="translate(1000, 280)">
    <rect x="-120" y="-150" width="240" height="300" rx="8" fill="#1e293b" stroke="url(#final)" stroke-width="3"/>
    <!-- Polished text -->
    <g opacity="0.8">
      <rect x="-90" y="-120" width="160" height="8" fill="#22c55e"/>
      <rect x="-90" y="-100" width="145" height="8" fill="#22c55e"/>
      <rect x="-90" y="-80" width="155" height="8" fill="#22c55e"/>
      <rect x="-90" y="-60" width="130" height="8" fill="#22c55e"/>
      <rect x="-90" y="-40" width="160" height="8" fill="#22c55e"/>
      <rect x="-90" y="-20" width="150" height="8" fill="#22c55e"/>
      <rect x="-90" y="0" width="140" height="8" fill="#22c55e"/>
      <rect x="-90" y="20" width="160" height="8" fill="#22c55e"/>
      <rect x="-90" y="40" width="135" height="8" fill="#22c55e"/>
      <rect x="-90" y="60" width="155" height="8" fill="#22c55e"/>
    </g>
    <!-- Sparkle/polish effect -->
    <g fill="#4ade80" opacity="0.8">
      <circle cx="85" cy="-110" r="5"/>
      <circle cx="90" cy="-95" r="3"/>
      <circle cx="80" cy="-85" r="2"/>
    </g>
    <!-- Label -->
    <text x="0" y="180" text-anchor="middle" fill="#22c55e" font-family="system-ui" font-size="16" font-weight="bold">RESTORE</text>
    <text x="0" y="200" text-anchor="middle" fill="#94a3b8" font-family="system-ui" font-size="12">Careful &amp; Selective</text>
  </g>

  <!-- Stats callout -->
  <g transform="translate(600, 520)">
    <rect x="-200" y="-30" width="400" height="60" rx="4" fill="#1e293b" stroke="#475569" stroke-width="1"/>
    <text x="0" y="-5" text-anchor="middle" fill="#ef4444" font-family="monospace" font-size="14">
      40× "five hundred years" | 32× "not X but Y" | ∞ em-dashes
    </text>
    <text x="0" y="18" text-anchor="middle" fill="#64748b" font-family="system-ui" font-size="12">
      Patterns found. Patterns eliminated.
    </text>
  </g>

  <!-- Bottom text -->
  <text x="600" y="600" text-anchor="middle" fill="#64748b" font-family="system-ui, sans-serif" font-size="14">
    NaNoWriMo Process • Voice vs Tics • Archaeology and Architecture
  </text>
</svg>
